<svg xmlns="http://www.w3.org/2000/svg" width="145" height="25" fill="currentColor" viewBox="0 0 145 25">
  <path d="M64.522 11.73a938.837 938.837 0 010-4.041 372.39 372.39 0 00-3.472-.003 449.06 449.06 0 01.006-4.405c-1.531.008-3.065.005-4.595.003v4.399h-1.905c-.003 1.348 0 2.696 0 4.047h1.902v.003h.003c.005 1.23-.002 2.462-.002 3.693h-.001v.538c0 .717.002 1.435.011 2.152.04 1.94.745 4.017 2.378 5.157 1.438 1.028 3.228 1.22 4.947 1.197-1.414-1.473-2.262-3.624-2.603-5.353l-.01-.05-.007-.051c-.046-.38-.103-.988-.097-1.632-.01-.137-.018-.274-.024-.408-.005-.35-.005-.7-.007-1.048-.006-1.4.008-2.798.004-4.195 1.155.003 2.314.003 3.472-.003zM53.697 4.544c-.008-1.35-.008-2.7 0-4.05-2.267-.38-4.877-.23-6.694 1.336-1.625 1.46-1.945 3.783-1.886 5.856H43.13c.002 1.349.002 2.698 0 4.048h1.677l.32-.001v.001h.009v2.212h-.007c.003 3.312.005 6.625-.003 9.936h2.134c.843 0 1.687.001 2.53-.002-.002-3.361-.004-6.721.001-10.081v-2.07h3.111c-.003-1.35-.003-2.698 0-4.046h-3.134c.042-.91-.063-2 .687-2.675.902-.758 2.16-.511 3.241-.464zM36.79 23.882h4.558c-.029-3.469.027-6.938-.029-10.408-.036-2.036-.808-4.294-2.75-5.25-2.775-1.38-6.027-1.068-8.989-.594-.01 1.472-.002 2.947-.004 4.423 1.904-.414 3.982-.845 5.869-.14.877.303 1.205 1.228 1.341 2.064-1.32-.166-2.658-.48-3.989-.21-1.578.194-3.14.966-4.033 2.319-1.439 2.152-1.028 5.408 1.103 6.964 2 1.524 4.906 1.36 6.939-.02-.003.213-.011.636-.017.852zm-.193-3.505c-1.18.364-2.622.767-3.705-.058-.99-.697-.861-2.378.21-2.927 1.095-.578 2.373-.376 3.535-.145a13.598 13.598 0 01-.04 3.13M12.947 1.916c1.859.011 3.717.003 5.575.003C15.8 5.58 13.14 9.29 10.4 12.936c2.439 3.644 4.839 7.31 7.297 10.94-1.927.015-3.855-.004-5.78.012-2.147-3.258-4.3-6.514-6.436-9.778-.005 3.259-.005 6.517.002 9.775-1.66-.008-3.322-.003-4.983-.003.006-7.319.006-14.638 0-21.958 1.661-.008 3.32 0 4.98-.008-.002 3.456-.007 6.911.003 10.366 2.478-3.463 4.981-6.907 7.465-10.366zM18.853 7.736c1.564-.008 3.13 0 4.697-.008-.006 1.033-.008 2.066-.025 3.097.759-1.711 2.4-2.825 4.222-3.12.003 1.534.023 3.07-.02 4.603-1.996.239-4.049 1.728-4.122 3.883-.055 2.561-.01 5.128-.013 7.692-1.58 0-3.161 0-4.739-.003.003-5.383.003-10.764 0-16.144zM102.239 20.601c-.655.262-.786.393-1.571.655a4.035 4.035 0 01-2.49 0c-2.49-1.048-.917-4.848-.917-4.848 10.219-2.489 8.778-7.992 6.027-8.254-1.704 0-7.861.262-10.744 7.337-.393 1.048-3.145 8.517 3.014 9.04 1.31 0 2.751-.13 4.061-.785 1.179-.656 2.097-1.442 2.882-2.49.656-1.18-.262-.655-.262-.655zm-1.441-10.482c.786.262-1.179 4.193-1.179 4.193-.786.262-1.572.524-2.096.524.262-.524 1.703-5.503 3.275-4.717zM126.086 22.042c-.131-.131-.393-.131-.524-.262-.786-.525-.132-1.966 0-2.752l2.358-8.385c.131-.524 1.048-3.275-2.621-2.752-3.144.525-5.372 2.49-5.372 2.49.263-.786.525-1.965 0-2.228-.654-.262-4.454.918-5.372 1.704-.261 0-.654.393-.261.786.392.524.524.917.261 1.834-.523 1.573-2.095 7.076-2.489 8.124-.393 1.048-.917 3.013 0 3.668.656.525 3.407-.655 3.8-.917.393-.131.786-.393.917-.524.524-.524-.262-.786.524-3.538 0-.131.918-2.882 1.572-5.24.525-1.966 2.358-2.883 3.014-3.014 1.048-.13.786.786.655 1.441-.917 2.883-1.965 7.206-2.358 8.255-.394 1.048-1.048 3.144 0 3.537.917.655 5.109-1.179 5.503-1.44.785-.525.785-.787.393-.787z"/>
  <path d="M110.101 22.042c-.262-.13-.393-.13-.525-.262-.785-.524-.262-1.965 0-2.752l2.49-8.384c.131-.918.655-2.097 0-2.49-.786-.262-4.586.917-5.503 1.703-.131 0-.524.393-.131.787.393.523.393.916.131 1.833-.393 1.573-2.228 7.207-2.62 8.255-.393 1.048-.918 3.145.261 3.538.918.655 4.849-1.049 5.372-1.442.918-.393.918-.786.525-.786zM109.315 6.188c.262.524 2.62-.523 3.8-1.179.131-.13.655-.524.786-.917.262-.917.393-1.31.524-1.966.131-.261.131-.654-.262-.786-.524-.13-3.669.263-4.455 1.573-.262.523-1.179 3.013-.393 3.275zM144.428 15.36c-.392-1.441-2.751-1.835-3.668-1.048-.524.523-.786 1.572-.655 1.834 2.227-.655 2.62 1.31 2.227 2.096-.786 1.18-1.048 1.572-2.096 1.572h-6.944c-.131-.13-.263-.261 0-.524.392-.524 7.205-9.826 7.468-10.22.131-.261.524-.917-.394-.917h-7.599c-.785 0-1.179.262-1.834.918-.524.655-1.179 2.62-1.572 3.93 0 0 0 .524.786-.13.131-.132.393-.656.786-.656h4.586c1.441 0-6.158 7.207-8.517 11.006-.392.655.262.655.656.655h9.957c2.49 0 2.097.393 3.407-1.441 0 0 4.061-5.24 3.406-7.075zM89.661 19.815l2.752-10.613c1.834-6.42 2.882-6.682 3.537-7.338h-4.323c-1.572 0-2.752 2.228-3.014 3.67l-1.835 6.682h-3.93s2.359-8.517 2.62-9.434c.131-.393.131-.918-.654-.918-.132 0-8.386-.261-11.007.656-1.179.393-2.882 1.44-3.406 3.014-.393.917-.917 2.62.262 5.764.131.393.393.656.524.787.393.261 3.8-.262 3.669-.262.262 0 .393-.132.13-.656-.261-.655-1.047-1.834-1.179-3.013-.523-4.586 2.752-5.241 3.276-5.372a6.365 6.365 0 012.227 0c.263 0 .917.13 1.048.393.263.524-.13 1.441-.392 2.49-.262.786-2.49 8.909-3.145 11.136-.393 1.704-2.096 5.372-3.8 5.897-.393.13-.917.13-1.441 0a4.845 4.845 0 01-1.441-.656c-1.048-1.048-1.704-3.145-1.835-4.716-.13-1.966.263-3.407-.13-3.407-.684 0-2.967.902-3.893 1.567l-.005.003c-.375.268-.4.32-.4.32a.281.281 0 00-.043.055c-.242.412-.226 1.877-.114 2.772.393 1.965 1.441 4.192 3.014 5.24 4.192 2.883 11.53-2.358 12.315-2.882 1.18-1.048 1.966-2.49 2.228-3.538.393-1.31 1.048-3.537 1.048-3.537h3.93s-1.572 5.896-1.965 7.337c-.392 1.179-.655 3.144.393 3.014 3.931 0 5.504-1.442 5.635-1.572a.4.4 0 000-.525c-.262-.13-1.18-1.048-.656-2.358z"/>
</svg>
