<svg xmlns="http://www.w3.org/2000/svg" width="144" height="17" fill="currentColor" viewBox="0 0 144 17"><path d="M41.77 4.745v7.354h1.834a3.5 3.5 0 0 0 2.494-1.098 3.683 3.683 0 0 0 1.006-2.585 3.62 3.62 0 0 0-.992-2.597 3.438 3.438 0 0 0-2.508-1.075h-1.833Zm1.834-2.306c3.418 0 6.004 2.648 6.004 5.977s-2.586 5.992-6.003 5.992H39.56a.294.294 0 0 1-.29-.297V2.748c0-.164.13-.298.29-.298l4.044-.011Zm14.813 9.916c1.552.005 2.954-.95 3.552-2.419a4.006 4.006 0 0 0-.821-4.289 3.765 3.765 0 0 0-4.18-.862c-1.435.606-2.372 2.04-2.374 3.63 0 2.17 1.709 3.93 3.824 3.94m0-10.187c3.597 0 6.348 2.835 6.348 6.248 0 3.413-2.75 6.248-6.349 6.248-3.597 0-6.324-2.821-6.324-6.248s2.75-6.248 6.324-6.248m15.087 10.187c2.116-.005 3.828-1.767 3.826-3.936-.003-2.172-1.718-3.93-3.834-3.93-2.117 0-3.834 1.756-3.836 3.927a3.99 3.99 0 0 0 1.126 2.786 3.793 3.793 0 0 0 2.717 1.153m0-10.187c3.586 0 6.336 2.82 6.336 6.248 0 3.427-2.761 6.248-6.336 6.248-3.574 0-6.347-2.821-6.347-6.248s2.75-6.248 6.347-6.248Zm14.724 2.577H85.64V7.91h2.586a1.496 1.496 0 0 0 1.11-.424c.3-.29.47-.692.474-1.114a1.592 1.592 0 0 0-.449-1.165 1.511 1.511 0 0 0-1.135-.46v-.002ZM83.14 2.748c0-.164.13-.298.29-.298h4.87c2.32 0 4 1.744 4 3.934.018 1.481-.791 2.842-2.082 3.505l2.245 4.07a.305.305 0 0 1 .011.318.288.288 0 0 1-.275.146h-1.97a.29.29 0 0 1-.264-.161L87.8 10.234h-2.168V14.1a.295.295 0 0 1-.29.298h-1.898a.295.295 0 0 1-.29-.298L83.14 2.75h-.001Zm15.678 2.053v7.355h1.833a3.498 3.498 0 0 0 2.495-1.094 3.68 3.68 0 0 0 1.007-2.584 3.632 3.632 0 0 0-.988-2.601 3.44 3.44 0 0 0-2.513-1.075L98.818 4.8Zm1.833-2.309c3.418 0 6.003 2.651 6.003 5.986 0 3.336-2.585 5.987-6.003 5.987h-4.032a.293.293 0 0 1-.29-.298V2.805c0-.165.13-.299.29-.299l4.033-.014h-.001Zm13.63 2.925-1.418 3.933h2.834l-1.416-3.933Zm-2.251 6.156-.928 2.618a.29.29 0 0 1-.29.206h-2.014a.288.288 0 0 1-.265-.126.306.306 0 0 1-.025-.297l4.352-11.351a.288.288 0 0 1 .29-.196h2.253a.293.293 0 0 1 .291.196l4.352 11.351c.021.048.03.1.026.152a.314.314 0 0 1-.052.145.286.286 0 0 1-.265.125h-2.013a.288.288 0 0 1-.29-.206l-.929-2.618h-4.493Zm10.351-5.9c0-1.88 1.584-3.505 4.085-3.505a5.103 5.103 0 0 1 3.628 1.401.296.296 0 0 1 .095.22.305.305 0 0 1-.095.218l-1.115 1.136a.293.293 0 0 1-.206.087.291.291 0 0 1-.206-.087 2.894 2.894 0 0 0-1.935-.783c-1.001 0-1.741.596-1.741 1.283 0 2.222 5.913.94 5.913 5.215-.003 2.167-1.599 3.806-4.421 3.806a5.844 5.844 0 0 1-4.218-1.737.297.297 0 0 1-.095-.22.305.305 0 0 1 .095-.218l1.079-1.107a.289.289 0 0 1 .325-.068.293.293 0 0 1 .096.068 3.678 3.678 0 0 0 2.55 1.066c1.25 0 2.074-.685 2.074-1.542 0-2.223-5.91-.94-5.91-5.216m19.147-2.957v4.492h-5.005V2.733a.29.29 0 0 0-.083-.208.29.29 0 0 0-.207-.09h-1.898a.29.29 0 0 0-.207.09.303.303 0 0 0-.083.208v11.35c0 .164.131.298.29.298h1.898c.159 0 .29-.134.29-.299V9.52h5.001v4.563c0 .165.131.299.29.299h1.898c.16 0 .29-.134.29-.299V2.733a.31.31 0 0 0-.021-.112.286.286 0 0 0-.157-.161.29.29 0 0 0-.112-.024h-1.898a.293.293 0 0 0-.286.297ZM28.616 3.951C27.298 1.51 24.721-.01 21.92 0H.724a.73.73 0 0 0-.67.447.713.713 0 0 0 .158.782L4.829 5.81c.408.405.963.633 1.541.633h14.943a1.915 1.915 0 0 1 1.947 1.882c.011 1.05-.843 1.91-1.908 1.92H11.05a.73.73 0 0 0-.671.446.714.714 0 0 0 .156.783l4.62 4.586c.41.406.965.633 1.542.632h4.659c6.062 0 10.646-6.396 7.26-12.745"></path></svg>