<svg width="121" height="84" viewBox="0 0 121 84" fill="none" xmlns="http://www.w3.org/2000/svg">
<path fill-rule="evenodd" clip-rule="evenodd" d="M28.8877 26.3389C31.9751 24.1673 36.5025 21.1904 39.1569 19.4595C36.7118 20.2227 32.6874 21.8067 28.1908 24.8979C23.8333 27.8941 21.8663 29.4915 20.9984 30.2749H23.9696C25.4816 28.9434 27.2049 27.5226 28.8877 26.3389Z" fill="#162020"/>
<path fill-rule="evenodd" clip-rule="evenodd" d="M93.7755 23.6477C90.1025 21.2314 87.1006 19.9344 85.1527 19.2585C87.2158 20.6726 90.6247 23.0774 94.8181 26.2868C96.6229 27.6682 98.155 28.9642 99.4386 30.1306H102.507C101.035 28.9018 97.8066 26.2992 93.7755 23.6477Z" fill="#162020"/>
<mask id="nug-32456346" mask-type="alpha" maskUnits="userSpaceOnUse" x="0" y="0" width="120" height="84">
<path fill-rule="evenodd" clip-rule="evenodd" d="M0.499695 0.944092H119.514V83.8912H0.499695V0.944092Z" fill="white"/>
</mask>
<g mask="url(#nug-32456346)">
<path fill-rule="evenodd" clip-rule="evenodd" d="M118.032 76.7682C118.032 77.6821 116.598 82.6454 110.257 82.6454C107.411 82.6454 105.098 80.9596 104.374 80.3682L102.48 81.8274V67.8805H108.889V72.4117C108.887 72.451 108.82 73.3102 109.271 73.7999C109.487 74.0341 109.789 74.1483 110.194 74.1483C110.601 74.1483 110.904 74.0331 111.12 73.797C111.566 73.3102 111.503 72.452 111.502 72.4443L111.501 67.2392C111.426 66.8196 111.08 65.4939 110.439 65.1032C107.786 63.4894 105.333 61.6961 104.19 60.5354C103.334 59.6666 102.418 57.4164 102.418 55.4541V45.6131C102.418 44.5437 102.814 42.1187 104.314 40.5952C105.433 39.4595 107.448 38.1049 110.689 38.1049C113.92 38.1049 115.881 39.7331 116.463 40.2985L118.155 39.6275V55.1882H111.688V48.8099C111.688 48.7898 111.705 47.5514 111.102 46.936C110.664 46.4877 109.851 46.4858 109.452 46.9254C108.995 47.4275 108.978 48.4307 109.011 48.7754V54.1476C109.011 54.7073 109.45 55.8564 110.654 56.729L110.971 56.9575C114.373 59.4238 115.647 60.3463 116.332 61.1047C117.009 61.8545 118.032 63.8081 118.032 65.0456V76.7682ZM101.412 55.3399H96.9624L96.9806 54.9597C96.9816 54.9473 97.044 53.6724 96.7521 52.8132C96.6197 52.4234 96.4171 52.0932 96.2203 51.8368V72.1919C96.2213 72.5787 96.298 73.6885 96.6475 74.1752C97.1112 74.8213 97.6401 75.3042 97.6459 75.308L97.7649 75.4165V82.6473H87.7742V75.4712L87.9834 75.3733C87.9902 75.3704 88.5758 75.093 88.8849 74.6264C89.123 74.2635 89.3937 72.9455 89.5079 72.1986L89.5041 50.5514C89.1796 50.8212 88.8071 51.3213 88.8071 52.1949V55.3399H84.0061V40.5395L84.4333 40.6192C84.5591 40.6432 87.5745 41.224 93.3576 43.9696C99.1176 46.7047 101.156 47.9488 101.239 48.0007L101.412 48.1063V55.3399ZM82.9368 55.34H77.6289L77.6423 54.9656C77.6923 53.5247 77.6894 49.5637 77.0769 48.5595C76.8849 48.2456 76.6535 47.9989 76.45 47.8184V58.4793H79.7851V64.2153H76.3252V73.8826C76.7217 73.6282 77.2651 73.0992 77.4619 72.0605C77.7595 70.5005 77.6433 67.2844 77.6423 67.2518L77.6279 66.8764H82.9368V82.6465H68.5741V75.3581L68.8468 75.288C68.8804 75.2784 69.7952 75.0029 69.7952 73.5705V46.9294C69.7952 45.8734 68.7354 45.0996 68.7258 45.092L68.5741 44.9844V37.4926L68.9216 37.4791C68.9821 37.4743 70.5575 37.4273 75.85 38.4881C81.132 39.5479 82.643 40.1115 82.7035 40.1355L82.9368 40.2238V55.34ZM61.3212 35.8153C39.2632 35.8153 25.3431 44.0099 25.2058 44.0925L24.8497 44.3066L19.0282 34.8054L19.3565 34.6201C19.5696 34.4041 21.0231 32.9305 23.0304 31.1142H19.2451L19.6464 30.4719C19.7271 30.3433 20.6371 29.0732 27.7172 24.206C34.7896 19.3426 40.5832 18.156 41.3915 18.0091L41.6142 17.8651L42.6088 18.9279L41.956 19.4597L41.4808 18.9509C40.0168 19.8975 33.4369 24.1647 29.3713 27.0255C26.5681 28.9974 23.6516 31.6393 21.8112 33.3903C27.4119 30.7676 42.3218 24.758 61.3212 24.758C81.2894 24.758 97.7352 32.2412 102.969 34.911C101.53 33.2531 98.7423 30.3471 94.3071 26.9525C88.3089 22.3618 83.9256 19.4271 82.81 18.6907L82.1332 19.3435L81.4862 18.8011L82.7073 17.6242L82.9147 17.7576C83.6059 17.8814 87.9086 18.7839 94.237 22.9464C99.8194 26.6185 103.882 30.2002 103.922 30.2358L104.751 30.9702H100.344C103.408 33.8713 104.772 35.7913 104.853 35.9075L104.839 35.9171L105.107 36.0736L98.8844 45.3059L98.5407 45.0919C98.3919 44.9997 83.3591 35.8153 61.3212 35.8153ZM67.8916 55.3399H61.0823V47.9959C61.0977 47.7107 61.0602 46.9475 60.7089 46.575C60.4113 46.2602 59.8199 46.289 59.5598 46.5606C59.2324 46.9005 59.2612 47.6051 59.2698 47.8355L59.2727 47.9325V71.5179C59.2574 71.7992 59.2938 72.5519 59.6423 72.9215C59.9284 73.2239 60.489 73.2239 60.7732 72.9215C61.1226 72.5519 61.1591 71.7992 61.1438 71.54V64.2257H60.0935V58.4791H67.8907L67.8648 76.9007C67.7717 77.1359 65.5243 82.6722 60.393 82.6722C54.1914 82.6722 52.4989 76.3564 52.4836 76.292L52.472 76.2028V43.8582C52.4807 43.7546 53.2256 36.8924 60.2999 36.8924C63.6273 36.8924 65.746 39.2675 66.346 40.0374L67.8916 39.4451V55.3399ZM51.456 55.3401H44.7091V49.6261C44.7312 49.3957 44.7293 48.8399 44.471 48.5538C44.352 48.4213 44.184 48.357 43.9584 48.357C43.6253 48.357 43.3843 48.4443 43.2192 48.6229C42.9254 48.9426 42.959 49.4639 42.959 49.4687L42.9609 71.5181C42.9446 71.7984 42.9821 72.551 43.3305 72.9207C43.6147 73.2231 44.1725 73.2259 44.4336 72.9303C44.7542 72.5674 44.7417 71.8022 44.7129 71.5622L44.7091 64.2259H43.7827V58.4783H51.456L51.4311 76.9037C51.3341 77.1399 49.0243 82.7079 43.8355 82.7079C38.5199 82.7079 36.3695 77.1293 36.3695 76.202V46.3016C36.3791 46.1874 37.2902 38.9192 44.207 38.9192C47.5354 38.9211 49.5341 41.0753 50.1495 41.8539L51.456 41.1166V55.3401ZM36.0404 48.1736L35.9741 48.2677C35.9482 48.3032 35.3425 49.1624 34.9671 49.6078C34.7981 49.8325 34.7146 51.1554 34.7425 52.2488V75.0134C34.7357 75.1171 34.0849 82.7089 27.4608 82.7089C20.8396 82.7089 20.1859 75.241 20.1801 75.1661L20.1792 57.8994C20.2272 57.5125 20.2636 56.5439 19.9008 56.133C19.7385 55.9516 19.3968 55.8872 19.2787 55.8767L18.9446 55.8498L18.9436 48.9406L19.0905 48.8322C19.1193 48.811 19.8163 48.3022 22.3392 46.867C24.8602 45.4328 26.7408 44.6005 26.76 44.5918L27.2669 44.3691L27.2496 51.3675C27.239 51.3992 26.9837 52.1682 26.713 52.581C26.6189 52.7269 26.5882 53.4402 26.6477 54.1064L26.6486 71.8781C26.6486 72.1814 26.6477 72.6845 26.9002 72.9379C27.1114 73.1482 27.6019 73.2144 27.8669 72.9427C28.1607 72.6441 28.2144 72.0182 28.2115 71.8224V51.693C28.1991 51.6325 28.0109 51.4818 27.817 51.4011L27.5942 51.309L27.5933 44.2443L31.2125 42.7102C33.8564 41.587 35.5057 41.0878 35.5748 41.0676L36.0404 40.9275V48.1736ZM18.0181 46.6201C17.9087 46.7718 17.781 47.6685 17.7522 48.5306V82.6473H11.9691L7.74222 62.298V72.1285C7.82766 72.7525 8.04654 73.9573 8.2539 74.3365C8.47854 74.7445 9.06415 75.2552 9.27151 75.4174L9.41071 75.5259V82.6473H1.47338V75.4942L1.65194 75.3886C1.65866 75.3867 2.15882 75.0939 2.54954 74.6965C2.74923 74.493 2.91339 73.5541 2.94027 72.8053V48.5171C2.85195 47.9613 2.63498 46.8736 2.43914 46.5529C2.1569 46.0979 1.58858 45.5449 1.58282 45.5392L1.47338 45.4326V38.5446H8.29038L12.7784 59.6109L12.8274 48.5162C12.8408 47.7741 12.7189 46.8419 12.499 46.6192C12.0334 46.1478 11.445 45.5277 11.445 45.5277L11.3451 45.424V38.5446H19.0501V45.4067L18.9714 45.5056C18.9445 45.5382 18.3359 46.2966 18.0181 46.6201ZM62.3714 4.30321L80.721 19.9119L69.5369 15.3356L69.4764 20.1001L65.1506 16.0268L62.6805 22.6076L59.5288 15.8386L55.8837 18.5958L54.5857 14.9602L44.5748 18.9087L62.3714 4.30321ZM119.339 75.9503V66.3061C119.339 64.1365 118.727 62.8818 118.258 61.9275C117.846 61.0885 117.235 60.4107 116.633 59.6984C115.532 58.3966 112.294 56.4584 112.294 56.4584H119.514V38.0915L116.896 38.9978C116.896 38.9978 114.92 37.6211 113.083 37.289C110.77 36.8714 106.3 36.9626 106.3 36.9626L106.497 36.1206L103.4 32.2662H107.813C107.813 32.2662 102.075 26.3689 93.4189 20.965C87.1164 17.029 82.0073 16.2341 82.0073 16.2341L81.3641 16.8677L62.5153 0.944092L42.9081 17.2162L42.5366 16.7784C42.5366 16.7784 37.439 16.8408 28.6357 22.2706C21.7054 26.5455 16.0923 32.2576 16.0923 32.2576H20.0139L17.7041 34.7123L18.9397 37.288H0.498901V46.7229C0.498901 46.7229 1.79299 46.7412 1.79299 47.7962V73.3353C1.79299 74.3702 0.608342 74.4278 0.608342 74.4278V83.7072H10.1057L10.8401 83.2713L11.2164 83.7072H18.2763C18.2763 83.7072 20.4181 82.3776 21.931 81.4684C22.9208 82.3142 23.8059 82.9862 25.0069 83.4307C26.4795 83.9779 28.2037 84.0077 29.7685 83.6765C31.3333 83.3453 36.5308 79.6665 36.5308 79.6665C36.5308 79.6665 38.8041 82.3977 40.8816 83.2848C42.3523 83.9126 45.2246 83.8819 46.2941 83.5411C48.0413 82.9862 50.6007 81.0614 52.7943 79.7145C53.5018 80.4595 54.2132 81.4109 55.0522 82.0502C56.1389 82.8777 57.289 83.4537 58.6062 83.6649C59.7754 83.8512 60.9582 83.8368 62.1918 83.6429C63.9236 83.3702 65.2129 82.1904 66.4801 81.2486C67.1281 82.1597 68.3656 83.7245 68.3656 83.7245H84.2959V80.999L87.7654 83.7245H99.3191V81.2486L102.933 83.2099L104.492 81.8457C104.492 81.8457 106.169 83.0659 107.185 83.3942C108.988 83.976 112.078 84.0403 114.08 83.3337C115.893 82.6944 117.22 81.4502 118.237 79.8067C118.759 78.96 119.339 76.9036 119.339 75.9503Z" fill="#162020"/>
</g>
<path fill-rule="evenodd" clip-rule="evenodd" d="M95.6159 35.6337L93.3455 34.7236L92.8549 35.9793L95.1263 36.8904C95.9231 37.211 96.2821 37.0113 96.4117 36.6801C96.5404 36.3489 96.4137 35.9534 95.6159 35.6337Z" fill="#162020"/>
<path fill-rule="evenodd" clip-rule="evenodd" d="M95.8354 38.6029L96.6907 41.1392C96.755 41.337 96.8539 41.4426 97.0027 41.5021L96.949 41.6394L94.1371 40.5114L94.1909 40.3741C94.3857 40.4394 94.5163 40.425 94.5691 40.2877C94.6094 40.185 93.7905 38.0336 93.7089 37.7235L92.3851 37.1927L91.6353 39.1108C91.5969 39.2144 91.6056 39.3095 91.9358 39.4679L91.882 39.6052L89.0971 38.4877L89.1508 38.3514C89.4964 38.4647 89.5694 38.4004 89.6097 38.2976L91.6843 32.9725C91.7236 32.8707 91.716 32.7738 91.3848 32.6163L91.4385 32.479L96.3845 34.4634C98.3851 35.265 99.0043 36.201 98.4965 37.5037C98.0894 38.5559 97.0594 38.7892 95.8354 38.6029ZM86.3598 32.7046L86.1909 32.6614C86.2158 32.3773 86.1745 32.3033 86.0181 32.264L81.4926 31.1168L81.2507 32.1056L83.8715 32.7699C84.1528 32.8429 84.2814 32.7478 84.364 32.6038L84.532 32.647L84.0731 34.5066L83.9041 34.4634C83.8993 34.2982 83.8302 34.1542 83.547 34.0822L80.9272 33.4179L80.6526 34.5258L85.1781 35.6739C85.3345 35.7133 85.4046 35.6682 85.5208 35.3811L85.6907 35.4224L85.1781 37.497L85.0101 37.4547C85.0168 37.2406 84.9765 37.1677 84.8209 37.1274L77.7851 35.3437L77.8215 35.1997C78.1787 35.2659 78.243 35.193 78.2689 35.0854L79.6379 29.5318C79.6638 29.4233 79.6417 29.3292 79.2951 29.2169L79.3307 29.0739L86.3656 30.8576C86.5201 30.8969 86.5921 30.8518 86.7006 30.5888L86.8706 30.63L86.3598 32.7046ZM74.9444 28.3578C74.8264 28.3693 74.7659 28.3875 74.7112 28.4922C74.5249 28.8675 71.2052 33.8567 71.187 34.0276C71.1793 34.089 71.2474 34.1447 71.378 34.1601L71.3607 34.3185L68.3847 33.993L68.4001 33.8461C68.5748 33.8404 68.6209 33.8087 68.6276 33.7597C68.6391 33.6503 66.5751 28.4327 66.3255 27.7626C66.2237 27.4794 66.1729 27.4122 66.0298 27.3834L66.0433 27.2384L69.0078 27.561L68.9914 27.7069C68.7591 27.6954 68.6948 27.7376 68.6871 27.8231C68.6766 27.92 68.8618 28.2368 70.3162 31.7572C72.3774 28.7197 72.6462 28.3904 72.6615 28.2435C72.6702 28.1581 72.6308 28.1168 72.459 28.0861L72.4753 27.9402L74.9608 28.2109L74.9444 28.3578ZM58.8483 33.7386L58.8396 33.5908C59.1008 33.5764 59.1718 33.5226 59.166 33.4362C59.1574 33.2768 58.7859 33.1386 54.7558 29.7373L54.9679 33.5898C54.9747 33.6993 55.0217 33.7837 55.3855 33.7876L55.3951 33.9345L52.638 34.0909L52.6294 33.9441C52.9903 33.8999 53.0297 33.8106 53.0239 33.7012L52.7081 27.9824C52.7023 27.873 52.6543 27.7895 52.2905 27.7856L52.2828 27.6387L55.7782 27.44L55.7868 27.5869C55.4537 27.6186 55.3855 27.6963 55.3894 27.7703C55.3971 27.9047 58.0313 30.0195 59.0988 30.9056L58.9184 27.6311C58.9107 27.4832 58.7916 27.4285 58.6016 27.4275L58.5929 27.2797L61.2493 27.129L61.256 27.2768C60.895 27.3219 60.8557 27.4103 60.8624 27.5207L61.1782 33.2365C61.1849 33.3469 61.2329 33.4305 61.5968 33.4343L61.6054 33.5821L58.8483 33.7386ZM47.9664 35.0383C47.8828 34.8425 47.8137 34.7945 47.6563 34.8262L40.5493 36.2921L40.5215 36.1481C40.8719 36.0511 40.8978 35.9571 40.8757 35.8486L39.7525 30.2383C39.7314 30.1298 39.6719 30.054 39.31 30.1029L39.2812 29.9589L46.3871 28.493C46.5446 28.4613 46.5897 28.3884 46.5763 28.1023L46.7481 28.0677L47.1676 30.1625L46.9958 30.198C46.8988 29.9301 46.8287 29.8812 46.6723 29.9138L42.0998 30.8565L42.3004 31.8559L44.95 31.3097C45.2342 31.2502 45.3091 31.11 45.3225 30.9449L45.4924 30.9093L45.8687 32.7881L45.6979 32.8236C45.6239 32.6758 45.5001 32.5759 45.215 32.6345L42.5673 33.1807L42.79 34.3011L47.3635 33.3583C47.519 33.3257 47.5651 33.2537 47.5468 32.9436L47.7168 32.9081L48.1363 35.0028L47.9664 35.0383ZM32.7313 38.6451L28.3153 40.1705L28.2673 40.0313C28.6042 39.8892 28.6167 39.7932 28.5821 39.6895L26.7629 34.2694C26.7274 34.1647 26.6583 34.0985 26.3069 34.1926L26.2599 34.0543L30.8276 32.4751C33.3591 31.6015 34.9883 32.5183 35.57 34.2502C36.1038 35.8438 35.2897 37.7609 32.7313 38.6451ZM103.906 36.3535C101.084 34.8051 83.3618 25.5967 61.321 25.5967C39.3282 25.5967 22.8872 33.7107 20.2049 35.1171L25.1355 43.1686C27.4789 41.8822 41.0082 34.9759 61.321 34.9759C81.748 34.9759 96.2403 42.7952 98.6355 44.1738L103.906 36.3535Z" fill="#162020"/>
<path fill-rule="evenodd" clip-rule="evenodd" d="M30.9179 33.9759L29.1707 34.5798L30.3025 37.9542L32.0507 37.3494C33.508 36.8454 33.8641 35.943 33.5339 34.9551C33.2017 33.9654 32.3761 33.4729 30.9179 33.9759Z" fill="#162020"/>
<path fill-rule="evenodd" clip-rule="evenodd" d="M117.829 82.212H118.303V83.507H118.489V82.212H118.96V82.0449H117.829V82.212Z" fill="#162020"/>
<path fill-rule="evenodd" clip-rule="evenodd" d="M120.238 82.0447L119.822 83.2888L119.408 82.0447H119.142V83.5068H119.334V82.3192L119.727 83.5068H119.917L120.311 82.3192V83.5068H120.5V82.0447H120.238Z" fill="#162020"/>
</svg>
