<svg width="126" height="36" viewBox="0 0 126 36" fill="none" xmlns="http://www.w3.org/2000/svg">
<path fill-rule="evenodd" clip-rule="evenodd" d="M101.251 14.7112C99.782 14.3292 98.219 14.6672 97.039 15.6222C96.697 15.9632 96.47 15.9632 96.242 15.6222C95.751 15.0452 95.059 14.6792 94.307 14.5972C92.987 14.4552 91.668 14.8672 90.664 15.7352C90.777 14.9392 90.55 14.8252 89.98 14.8252H87.932C87.704 14.8252 87.59 14.9392 87.59 15.2802V25.2982C87.59 25.7542 87.704 25.7542 88.045 25.7542H90.095C90.55 25.8682 90.664 27.1202 90.664 25.0712C90.664 23.0222 90.777 19.7202 90.777 18.6952C90.777 17.6712 91.46 17.2152 92.372 17.2152C93.282 17.2152 93.737 17.5572 93.852 18.6952V19.4922V25.1852C93.852 25.6402 93.965 25.7542 94.42 25.7542H96.47C96.925 25.7542 97.039 25.6402 97.039 25.1852V18.6952C97.039 18.6562 97.041 18.6172 97.043 18.5772C97.106 17.7622 97.818 17.1532 98.633 17.2152C99.543 17.2152 99.999 17.5572 100.113 18.5822C100.206 18.9152 100.245 19.2612 100.227 19.6062V25.2982C100.227 25.6402 100.34 25.7542 100.682 25.7542H102.845C103.3 25.7542 103.414 25.6402 103.414 25.2982V17.4432C103.443 16.1312 102.535 14.9842 101.251 14.7112Z" fill="#162020"/>
<path fill-rule="evenodd" clip-rule="evenodd" d="M58.6738 22.908H52.2988C51.9568 22.908 51.7298 22.908 51.7298 22.339C51.8428 21.584 51.8428 20.817 51.7298 20.062C51.7298 19.606 51.9568 19.492 52.2988 19.492H56.0548C56.7378 19.492 57.6488 19.834 58.1048 19.379C58.5598 18.924 58.1048 17.444 58.2178 17.102C58.3318 16.761 58.1048 16.647 57.7628 16.647H53.7778C53.0948 16.647 52.4128 16.988 51.9568 16.533C51.5018 16.077 51.7298 15.053 51.7298 14.597C51.7298 14.142 51.9568 14.028 52.4128 14.028H58.1048C58.5598 14.028 58.7878 13.914 58.7878 13.345C58.6738 12.82 58.6738 12.277 58.7878 11.751C58.7878 11.296 58.6738 11.182 58.2178 11.182H48.7698C48.1998 11.182 48.0868 11.296 48.1998 11.751V18.468V25.185C48.1998 25.526 48.0868 25.754 48.5418 25.754H58.9018C59.2428 25.754 59.3568 25.64 59.3568 25.299C59.2998 24.731 59.2998 24.159 59.3568 23.591C59.3568 23.022 59.2428 22.908 58.6738 22.908Z" fill="#162020"/>
<path fill-rule="evenodd" clip-rule="evenodd" d="M66.415 22.6803C66.061 23.3483 65.349 23.7483 64.594 23.7043C63.844 23.7123 63.167 23.2613 62.886 22.5663C62.652 21.8303 62.537 21.0613 62.544 20.2893C62.52 19.5053 62.676 18.7263 63 18.0123C63.262 17.2513 64.021 16.7763 64.821 16.8743C65.6 16.8843 66.286 17.3873 66.529 18.1263C67.064 19.6043 67.023 21.2303 66.415 22.6803ZM69.603 11.1814H67.439C66.984 11.1814 66.871 11.2954 66.871 11.7514V15.6214L66.529 15.3944C66.222 15.1774 65.889 14.9994 65.538 14.8664C63.245 13.9964 60.682 15.1504 59.812 17.4434C59.415 18.7324 59.299 20.0904 59.471 21.4284C59.509 23.1444 60.465 24.7094 61.975 25.5264C63.594 26.5224 65.691 26.2364 66.984 24.8434V25.0714C66.908 25.6784 67.136 25.9064 67.667 25.7544H69.603C69.944 25.7544 70.058 25.6404 70.058 25.2984V11.6374C70.058 11.2954 69.944 11.1814 69.603 11.1814Z" fill="#162020"/>
<path fill-rule="evenodd" clip-rule="evenodd" d="M111.156 21.0862C111.042 22.6802 110.473 23.4772 109.22 23.5912H108.196C107.787 23.4132 107.52 23.0122 107.513 22.5662C107.473 22.0802 107.747 21.6222 108.196 21.4282C109.043 21.0562 109.919 20.7522 110.814 20.5172C111.384 20.4032 111.042 20.9722 111.156 21.0862ZM114.115 17.8984C114.32 16.4254 113.308 15.0594 111.839 14.8254C110.417 14.4824 108.934 14.4824 107.513 14.8254C106.1 15.0444 105.046 16.2424 105.008 17.6714C105.008 17.8984 104.894 18.1274 105.35 18.1274H107.74C107.892 18.1274 108.006 18.0124 108.082 17.7854C108.111 17.6334 108.163 17.4864 108.237 17.3514C108.629 16.6334 109.528 16.3694 110.245 16.7604C110.928 16.8744 111.156 17.4434 111.156 18.2404C111.156 19.0374 110.587 18.6954 110.245 18.8094H109.676C108.365 18.9614 107.093 19.3474 105.919 19.9484C104.813 20.7044 104.273 22.0534 104.553 23.3634C104.652 24.6614 105.652 25.7094 106.944 25.8684C108.521 26.2914 110.204 25.8594 111.384 24.7294C111.27 25.7544 111.725 25.8684 112.522 25.7544H113.888C114.344 25.7544 114.344 25.6404 114.344 25.2984C114.156 24.7894 114.079 24.2464 114.115 23.7054V17.8984Z" fill="#162020"/>
<path fill-rule="evenodd" clip-rule="evenodd" d="M125.386 17.1018C125.334 15.7838 124.309 14.7108 122.995 14.5978C121.603 14.4168 120.199 14.8308 119.125 15.7358C119.239 14.9388 119.011 14.8248 118.442 14.8248H116.392C116.051 14.8248 115.937 14.9388 115.937 15.2808V25.2988C115.937 25.7538 116.165 25.7538 116.392 25.7538H118.328C119.011 25.8678 119.125 25.5258 119.125 24.9568V18.8098C119.118 18.7308 119.118 18.6508 119.125 18.5728C119.19 17.7578 119.904 17.1498 120.719 17.2158C121.743 17.2158 122.198 17.6708 122.312 18.8098V25.1848C122.312 25.6408 122.426 25.7538 122.882 25.7538H124.931C125.386 25.7538 125.5 25.6408 125.5 25.2988V21.3138C125.386 19.9478 125.5 18.4678 125.386 17.1018Z" fill="#162020"/>
<path fill-rule="evenodd" clip-rule="evenodd" d="M77.9131 19.0375H76.2051H74.6121C74.1561 19.0375 74.1561 18.8095 74.1561 18.4685C74.4891 17.5965 75.2791 16.9825 76.2051 16.8745C77.1811 16.8495 78.0381 17.5165 78.2551 18.4685C78.3691 18.8095 78.3691 19.0375 77.9131 19.0375ZM79.9161 16.1263C77.9941 14.0513 74.7521 13.9273 72.6761 15.8493C71.4521 17.1733 70.8331 18.9463 70.9691 20.7453C70.9091 22.9423 72.2271 24.9423 74.2701 25.7543C76.5231 26.5283 79.0211 25.9033 80.6451 24.1603C81.5561 23.1353 81.5561 23.1353 80.3041 22.4523C80.3041 22.3903 80.2531 22.3383 80.1901 22.3383C79.1651 21.7693 79.1651 21.7693 78.3691 22.6803C78.3691 22.8063 78.2671 22.9083 78.1411 22.9083C77.5671 23.6163 76.6111 23.8903 75.7501 23.5913C74.8441 23.2403 74.2231 22.3973 74.1561 21.4283C74.1561 21.0863 74.2701 20.9723 74.6121 20.9723H77.9131H80.9871C81.4421 20.9723 81.5561 20.8583 81.5561 20.4033C81.4761 19.5473 81.2851 18.7053 80.9871 17.8983C80.7541 17.2413 80.3901 16.6383 79.9161 16.1263Z" fill="#162020"/>
<path fill-rule="evenodd" clip-rule="evenodd" d="M85.1992 11.1819H83.1502C82.6952 11.1819 82.5812 11.2959 82.5812 11.6379C82.6952 16.1909 82.6952 20.7449 82.5812 25.1849C82.5812 25.6399 82.6952 25.7539 83.1502 25.7539H85.1992C85.6552 25.7539 85.7682 25.6399 85.7682 25.1849V18.4679V11.7509C85.7682 11.2959 85.6552 11.1819 85.1992 11.1819Z" fill="#162020"/>
<path fill-rule="evenodd" clip-rule="evenodd" d="M18.373 35.7722L35.222 18.6952H18.373V35.7722Z" fill="#162020"/>
<mask id="edel-0296743" mask-type="alpha" maskUnits="userSpaceOnUse" x="0" y="18" width="18" height="18">
<path fill-rule="evenodd" clip-rule="evenodd" d="M0.5 18.6956H17.349V35.7722H0.5V18.6956Z" fill="white"/>
</mask>
<g mask="url(#edel-0296743)">
<path fill-rule="evenodd" clip-rule="evenodd" d="M0.5 18.6956L17.349 35.7726V18.6956H17.235H0.5Z" fill="#162020"/>
</g>
<mask id="edel-02976267" mask-type="alpha" maskUnits="userSpaceOnUse" x="18" y="0" width="18" height="18">
<path fill-rule="evenodd" clip-rule="evenodd" d="M18.373 0.481201H35.222V17.6711H18.373V0.481201Z" fill="white"/>
</mask>
<g mask="url(#edel-02976267)">
<path fill-rule="evenodd" clip-rule="evenodd" d="M18.373 17.6711H35.222L18.373 0.481079V17.6711Z" fill="#162020"/>
</g>
</svg>
