<svg fill="none" height="83" viewBox="0 0 144 83" width="144" xmlns="http://www.w3.org/2000/svg" xmlns:xlink="http://www.w3.org/1999/xlink"><mask id="a" height="19" maskUnits="userSpaceOnUse" width="14" x="130" y="38"><path clip-rule="evenodd" d="m130.077 38.8779h13.923v17.2695h-13.923z" fill="#fff" fill-rule="evenodd"/></mask><g clip-rule="evenodd" fill="#000" fill-rule="evenodd"><path d="m.00170898 82.38h16.36929102v-32.9509h-16.36929102z" fill-opacity=".4"/><path d="m0 32.9518h16.3685v-32.9518h-16.3685z" fill-opacity=".6"/><path d="m.0015564 32.952v16.4746h32.7386436v32.9536h16.3702v-32.9536-16.4746z"/><path d="m65.7606 32.9723h2.6956v8.716h.0651c.8879-1.9812 3.2008-2.811 5.1683-2.811 4.3126 0 5.6465 2.4895 5.6465 6.0334v10.8544h-2.6965v-11.1732c0-2.0118-1.2689-3.3203-3.3301-3.3203-3.2668 0-4.8533 2.2022-4.8533 5.1713v9.3222h-2.6956z"/><path d="m93.1946 47.2412c-1.0467.766-3.0767.7975-4.8828 1.1172-1.7766.3188-3.2989.9574-3.2989 2.97 0 1.7846 1.5223 2.4231 3.1704 2.4231 3.5541 0 5.0113-2.2336 5.0113-3.7334zm4.3793 8.4609c-.4773.283-1.0805.4446-1.9362.4446-1.3965 0-2.2843-.7678-2.2843-2.5542-1.4911 1.7584-3.4872 2.5542-5.7732 2.5542-2.9804 0-5.4209-1.3408-5.4209-4.6288 0-3.7352 2.7556-4.5327 5.5502-5.0751 2.9812-.5739 5.5172-.3818 5.5172-2.4249 0-2.3638-1.9337-2.7464-3.646-2.7464-2.2861 0-3.9654.7023-4.093 3.1298h-2.6966c.1623-4.088 3.3015-5.5241 6.9466-5.5241 2.9509 0 6.1534.6709 6.1534 4.5327v8.4924c0 1.2762 0 1.8492.8566 1.8492.2196 0 .4739-.0314.8262-.159z"/><path d="m106.639 55.7648h-2.885l-6.0896-16.5043h3.0136l4.6 13.7571h.062l4.472-13.7571h2.822z"/><path d="m124.434 47.2412c-1.047.766-3.077.7975-4.885 1.1172-1.775.3188-3.296.9574-3.296 2.97 0 1.7846 1.521 2.4231 3.167 2.4231 3.554 0 5.014-2.2336 5.014-3.7334zm4.379 8.4609c-.48.283-1.083.4446-1.937.4446-1.397 0-2.284-.7678-2.284-2.5542-1.492 1.7584-3.489 2.5542-5.774 2.5542-2.98 0-5.422-1.3408-5.422-4.6288 0-3.7352 2.759-4.5327 5.55-5.0751 2.983-.5739 5.519-.3818 5.519-2.4249 0-2.3638-1.933-2.7464-3.647-2.7464-2.283 0-3.962.7023-4.091 3.1298h-2.697c.16-4.088 3.3-5.5241 6.946-5.5241 2.949 0 6.152.6709 6.152 4.5327v8.4924c0 1.2762 0 1.8492.857 1.8492.223 0 .477-.0314.828-.159z"/></g><g mask="url(#a)"><path clip-rule="evenodd" d="m132.772 50.5604c.097 2.4266 2.19 3.191 4.412 3.191 1.679 0 3.961-.3818 3.961-2.4564 0-2.1052-2.663-2.4598-5.359-3.0634-2.662-.6062-5.36-1.5033-5.36-4.6602 0-3.322 3.268-4.6935 6.122-4.6935 3.616 0 6.501 1.1487 6.723 5.1704h-2.696c-.19-2.1061-2.03-2.7778-3.806-2.7778-1.617 0-3.488.4472-3.488 2.1078 0 1.9471 2.853 2.265 5.361 2.8713 2.695.6079 5.358 1.5016 5.358 4.6925 0 3.9282-3.648 5.2053-6.977 5.2053-3.678 0-6.788-1.5007-6.946-5.587z" fill="#000" fill-rule="evenodd"/></g></svg>