<svg width="144" height="80" xmlns="http://www.w3.org/2000/svg"><g fill="#000" fill-rule="evenodd"><path d="M60.337 38.995c-1.128-.096-7.156-.367-8.004-.438-.646-.057-.909-.378-.909-.906 0-.428.274-.764.854-.806 1.932-.127 5.273-.1 6.594-.022.65.04.907.356.942.725v.562h3.27v-.5c-.06-2.413-1.247-3.333-3.504-3.424-2.454-.095-5.117-.122-7.657.024-1.689.095-3.487.972-3.732 3.02a3.978 3.978 0 00-.01 1.063c.264 2.252 1.94 2.797 3.279 2.91 1.381.118 7.022.415 7.711.469.925.076 1.057.433 1.057.919 0 .543-.257.862-1.057.908-1.738.103-5.004.07-6.643.02-.579-.021-.996-.17-1.016-.854l-.007-.587h-3.27s-.005.28-.004.355c.015 2.527.891 3.697 3.343 3.886 2.367.178 5.944.152 8.594-.013 2.316-.146 3.169-1.72 3.254-3.531.007-.097 0-.278 0-.429-.071-2.143-1.34-3.188-3.085-3.351zM90.881 43.732h-6.58v-2.306h6.653c.552.025 1.3.254 1.3 1.137 0 .916-.618 1.14-1.373 1.169zm-6.58-6.839h6.653c.599.042 1.113.288 1.113.943 0 .67-.466 1.017-1.17 1.056H84.3v-1.999zm9.822 3.045c.508-.218 1.094-.95 1.094-2.38 0-2.142-1.383-3.266-3.435-3.345-2.106-.002-10.747 0-10.747 0V46.42H91.87c2.54-.067 3.673-1.381 3.673-3.744 0-1.66-.808-2.557-1.419-2.74zM76.043 42.315c-.021.747-.488 1.052-1.091 1.108a41.56 41.56 0 01-6.053 0c-.55-.048-.986-.564-1.006-1.134v-8.076H64.65v8.807c.09 2.105 1.362 3.276 3.54 3.36 2.484.095 5.028.104 7.733-.005 2.062-.083 3.266-1.344 3.382-3.364v-8.798h-3.261v8.102zM123.4 39.241h-6.746v-2.345l6.746-.004c.769.062 1.175.396 1.175 1.168 0 .732-.397 1.144-1.175 1.181zm3.083 1.4c.541-.294 1.294-1.06 1.294-2.748 0-2.513-1.347-3.581-3.49-3.682h-10.883v12.21l3.25-.004v-4.37h6.746c.771.013 1.167.513 1.213 1.176.082 1.247.05 3.19.05 3.19l3.298.008s-.013-1.766-.054-3.08c-.043-1.403-.77-2.499-1.424-2.7zM101.631 41.665l2.352-4.411 2.311 4.411h-4.663zm3.976-7.455h-3.436l-6.78 12.206h3.707l1.155-2.165h7.396l1.134 2.165h3.813l-6.773-12.206h-.216zM140.737 34.213v8.103c-.017.745-.48 1.052-1.084 1.107a41.647 41.647 0 01-6.057 0c-.548-.047-.98-.563-1.004-1.133v-8.077h-3.242v8.806c.088 2.106 1.359 3.277 3.536 3.36 2.485.097 5.026.105 7.729-.004 2.067-.082 3.274-1.344 3.386-3.364v-8.798h-3.264z"/><g><path d="M21.42 50.37c-11.074 0-19.853-4.518-19.853-10.09 0-5.614 9.147-10.088 19.853-10.088 10.616 0 19.656 4.474 19.656 10.088 0 5.572-8.944 10.09-19.656 10.09zM21.41 29C9.842 29 0 34.047 0 40.28c0 6.23 9.684 11.282 21.41 11.282 11.568 0 21.23-5.052 21.23-11.282 0-6.233-9.662-11.28-21.23-11.28z"/><path d="M16.55 40.963c.401-1.297.793-1.75 2.194-1.99 1.41-.247 4.056-.555 5.638-.74.397-.048 1.31-.124 2.155-.224 1.613-.176 1.754-.162 3.343.03.838.099 1.412.178 2.085.29.542.09.746.24.91.701.133.368.236.77.306 1.047.062.242.143.635.162.718.026.101.095.12.136.12a.157.157 0 00.148-.12c.023-.103.097-.476.157-.718.06-.248.204-.748.31-1.047.152-.423.394-.605.799-.686.448-.097 1.224-.198 1.788-.281.43-.059 1.331-.171 1.397-.18.09-.008.14-.063.14-.145 0-.074-.056-.128-.14-.138-.06 0-.94-.117-1.407-.177-.538-.079-1.207-.153-1.808-.281-.243-.048-.567-.174-.735-.513-.118-.237-.185-.482-.327-.947-.043-.133-.143-.51-.168-.6-.028-.106-.088-.128-.142-.128-.054 0-.113.017-.148.128l-.173.59c-.148.492-.23.762-.329.962-.159.316-.416.446-.841.524-.418.068-1.273.186-2.128.295-1.666.204-1.737.198-3.335.022-.479-.05-1.747-.209-2.166-.265-1.532-.178-4.078-.434-5.627-.702-.84-.151-1.592-.329-2.078-1.503-.324-.791-.52-1.5-.7-2.14-.155-.532-.329-1.258-.388-1.5-.029-.116-.077-.156-.154-.156-.07 0-.118.037-.153.156-.064.239-.265.993-.413 1.496-.186.62-.36 1.36-.69 2.144-.421.99-.956 1.296-2.054 1.509-1.568.293-3.48.524-5.253.712-.87.091-3.391.363-3.496.374-.109.01-.144.09-.144.138 0 .053.035.13.144.142.105.014 2.694.28 3.508.367 1.835.195 3.536.404 5.165.683 1.578.267 1.946 1.06 2.249 2.044.236.778.554 2.142.663 2.674.11.468.298 1.446.32 1.53.024.107.073.15.15.15.07 0 .126-.038.155-.15.02-.092.21-1.098.309-1.534.118-.521.442-1.945.666-2.681z"/><path d="M37.095 41.328c-.238-.055-.472-.215-.578-.438a4.297 4.297 0 01-.27-.687 34.34 34.34 0 00-.165-.588c-.024-.088-.092-.11-.146-.11-.054 0-.11.027-.137.117-.03.104-.104.369-.17.584a3.242 3.242 0 01-.262.684c-.113.216-.288.377-.64.45-.655.137-1.22.253-1.577.306-.764.115-1.129.168-2.288.008-.518-.077-1.395-.206-2.082-.336-.38-.073-.72-.179-.91-.545-.123-.248-.203-.537-.293-.832-.059-.187-.17-.567-.21-.71-.027-.099-.067-.138-.15-.138-.08 0-.12.04-.148.138-.038.122-.143.49-.208.707-.086.287-.176.59-.297.83-.185.371-.494.46-.893.543-.571.118-1.482.213-2.294.297-.361.046-1.022.12-1.177.145-.087.008-.136.053-.136.136 0 .086.035.13.135.14.142.022.92.107 1.172.137.435.047 1.478.187 2.297.302.562.081.864.295 1.029.943.087.351.164.61.22.88.05.221.131.573.152.642.03.102.08.144.144.144.065 0 .127-.03.154-.148.014-.065.113-.503.138-.623.06-.255.136-.57.225-.898.167-.583.341-.779 1.05-.94.556-.127 1.578-.255 2.073-.324 1.219-.173 1.537-.114 2.296-.012.342.046.923.158 1.577.302.434.098.583.32.68.591.101.266.173.573.257.895.075.274.125.514.131.558.022.083.082.128.142.128.065 0 .128-.04.147-.121.014-.059.064-.299.134-.57.076-.292.162-.616.255-.893.09-.259.239-.473.623-.566.365-.081.966-.18 1.457-.252.426-.063 1.16-.155 1.263-.17.107-.016.15-.08.15-.14 0-.063-.034-.133-.15-.145-.106-.018-.811-.112-1.27-.177a24.285 24.285 0 01-1.45-.244z"/><path d="M34.726 45.968a63.02 63.02 0 01-1.345-.142c-.605-.07-1.644-.218-1.992-.294-.367-.081-.543-.183-.708-.516a3.062 3.062 0 01-.225-.597c-.038-.148-.188-.636-.209-.715-.022-.096-.078-.125-.136-.125-.064 0-.116.022-.144.127-.034.103-.154.565-.205.722-.059.178-.108.356-.21.58-.127.263-.305.447-.692.524-.59.116-1.655.282-1.907.32-.958.13-1.183.155-1.84.089-.505-.046-1.633-.219-2.38-.333-.453-.066-.919-.1-1.17-.518-.148-.249-.229-.49-.328-.799a19.635 19.635 0 01-.248-.843c-.03-.091-.069-.142-.15-.142-.081 0-.123.05-.15.149-.035.102-.179.593-.248.827-.107.344-.2.622-.334.808-.256.365-.497.412-1.114.515-.649.106-1.455.196-2.083.258-.552.063-.9.1-1.102.122-.1.012-.16.045-.16.141 0 .099.06.135.16.146.184.026.726.084 1.107.121.637.068 1.212.122 2.078.258.839.127.986.238 1.256.86.136.31.186.538.24.78.06.262.184.788.203.896.008.08.054.146.142.146.09 0 .131-.058.148-.15.021-.122.15-.677.21-.892.06-.242.119-.483.23-.78.27-.672.489-.743 1.307-.867.628-.096 1.795-.27 2.386-.336.657-.06.921-.06 1.844.075.318.048 1.433.208 1.89.29.384.08.574.199.76.646.063.147.155.464.206.648.067.232.154.586.165.617.011.043.054.09.129.09.067 0 .111-.05.126-.093.022-.05.121-.41.185-.625.05-.185.143-.48.21-.637.113-.262.259-.544.717-.632.46-.08 1.513-.211 2.036-.273.394-.043 1.25-.153 1.35-.163.106-.016.148-.076.148-.142 0-.074-.042-.13-.153-.141z"/></g></g></svg>