<svg width="126" height="35" viewBox="0 0 126 35" fill="none" xmlns="http://www.w3.org/2000/svg">
<mask id="penn-09873246" mask-type="alpha" maskUnits="userSpaceOnUse" x="0" y="0" width="31" height="34">
<path fill-rule="evenodd" clip-rule="evenodd" d="M0.500122 0.0921631H30.1696V33.1982H0.500122V0.0921631Z" fill="white"/>
</mask>
<g mask="url(#penn-09873246)">
<path fill-rule="evenodd" clip-rule="evenodd" d="M29.3181 15.6561C29.2651 17.6851 28.7671 19.6771 27.8591 21.4931C27.6161 21.8571 27.6161 21.6141 27.4941 21.4931L24.5761 18.6961L15.6991 10.4271L15.3351 10.1841L13.0241 12.3731L4.51313 20.3981L3.17513 21.7361C3.05313 21.8571 2.93213 21.8571 2.81013 21.6141C1.89813 19.6711 1.40113 17.5591 1.35113 15.4131C1.23013 13.7111 1.35113 12.1301 1.23013 10.5491C1.23013 10.3471 1.39313 10.1841 1.59413 10.1841H15.3351H15.4561V10.0621H28.9531C29.3181 10.0621 29.3181 8.60311 29.3181 10.4271C29.3181 12.2521 29.4401 13.9541 29.3181 15.6561ZM22.8741 23.6809C21.7971 24.1669 20.5321 23.9229 19.7121 23.0729C18.9491 22.2929 18.8001 21.0989 19.3471 20.1549C19.8971 18.9559 21.2391 18.3359 22.5091 18.6959C23.7751 18.8789 24.7111 19.9699 24.6971 21.2499C24.6911 22.3729 23.9501 23.3599 22.8741 23.6809ZM12.4161 15.4127C12.4171 15.4107 12.4171 15.4087 12.4171 15.4077C12.4851 13.8647 13.7921 12.6697 15.3351 12.7377C15.3761 12.7357 15.4181 12.7347 15.4591 12.7347C17.0041 12.7367 18.2551 13.9897 18.2531 15.5347C18.2531 15.5357 18.2531 15.5377 18.2531 15.5397C18.1841 17.0827 16.8781 18.2777 15.3351 18.2097C15.2931 18.2117 15.2521 18.2127 15.2111 18.2127C13.6661 18.2107 12.4151 16.9577 12.4161 15.4127ZM22.9951 27.9368C21.0551 29.6758 18.8351 31.0728 16.4291 32.0708C16.1101 32.3008 15.7281 32.4278 15.3351 32.4358L14.4841 32.1928C11.9671 31.1578 9.66011 29.6748 7.67411 27.8148C7.43111 27.6938 7.55211 27.5718 7.67411 27.4508L15.0911 19.7908C15.3351 19.5468 15.3351 19.5468 15.5781 19.7908L22.9951 27.4508C23.2381 27.6938 23.1171 27.6938 22.9951 27.9368ZM5.85013 21.2499V21.2439C5.91913 19.7009 7.22513 18.5059 8.76913 18.5739C8.81013 18.5719 8.85113 18.5719 8.89313 18.5719C10.3701 18.5729 11.5671 19.7719 11.5651 21.2499V21.2549C11.4961 22.7979 10.1901 23.9929 8.64713 23.9249C7.14913 23.9259 5.91513 22.7469 5.85013 21.2499ZM1.23013 1.30717C1.23013 0.943167 1.35113 0.821167 1.71613 0.821167H15.3351H28.9531C29.3181 0.821167 29.3181 0.943167 29.3181 1.30717V9.09017C29.3181 9.33317 29.3181 9.45517 28.9531 9.45517H1.71613C1.35113 9.45517 1.23013 9.33317 1.23013 9.09017C1.35113 6.53717 1.35113 3.86117 1.23013 1.30717ZM29.8041 0.0921631H0.500122V16.5082C0.622122 16.5082 0.622122 16.6292 0.622122 16.7512C0.849122 19.0762 1.59712 21.3202 2.81012 23.3162C5.52512 27.6332 9.52212 30.9912 14.2401 32.9232C14.9231 33.2902 15.7461 33.2902 16.4291 32.9232C20.5891 31.2062 24.2041 28.3892 26.8861 24.7762C29.0411 21.9932 30.1971 18.5672 30.1691 15.0482V0.457163C30.1691 0.214163 30.1691 0.0921631 29.8041 0.0921631Z" fill="#162020"/>
</g>
<path fill-rule="evenodd" clip-rule="evenodd" d="M9.49822 7.14416C9.98422 6.53716 9.62022 6.17116 9.49822 6.04916C9.37622 5.92816 9.49822 5.68516 9.49822 5.56316C9.73022 4.89416 10.0152 4.24316 10.3492 3.61816C10.5922 3.25316 10.8352 3.37416 10.9572 3.61816C11.0792 3.86116 11.0792 4.10416 11.2002 4.34716C11.2192 4.55716 11.1772 4.76916 11.0792 4.95616C10.9572 4.95616 10.9572 5.07716 11.0792 5.19916H11.3222C12.0512 4.83316 12.1732 4.83316 12.6592 5.44216L12.9022 5.80616L12.1732 6.29316L11.9302 6.53716C11.9302 6.65816 11.8082 6.53716 12.1732 6.65816C12.5382 6.78016 12.5382 6.90116 12.2942 7.14416C11.8132 7.53816 11.2822 7.86516 10.7142 8.11716C10.4712 8.11716 10.1062 8.23916 9.86322 7.87316C10.4112 7.87316 10.9352 7.65416 11.3222 7.26616C11.4432 7.14416 11.5652 7.14416 11.4432 6.90116C11.3222 6.65816 11.2002 6.90116 11.0792 7.02316C10.7482 7.41716 10.2562 7.64016 9.74122 7.63016C9.62022 7.63016 9.49822 7.63016 9.49822 7.38716C9.43122 7.38716 9.37622 7.33216 9.37622 7.26616C9.37622 7.19916 9.43122 7.14416 9.49822 7.14416ZM12.1732 2.64512C12.4162 2.76712 12.1732 2.88812 12.6592 2.52412C13.1462 2.15912 13.2682 2.15912 13.6322 2.52412C13.8202 2.72412 14.1192 2.77412 14.3622 2.64512C14.9702 2.40212 15.2132 2.40212 15.3342 3.01012C15.3362 3.01812 15.3372 3.02612 15.3392 3.03412C15.4122 3.36212 15.7362 3.56912 16.0642 3.49712C16.7932 3.49712 16.7932 3.86112 16.7932 4.22612C16.7932 4.59012 16.6722 4.71212 17.1582 4.95612C17.6452 5.19912 17.7672 5.32012 17.4012 5.92812C17.0892 5.54312 16.8052 5.13712 16.5502 4.71212C15.7532 3.51112 14.3242 2.89112 12.9022 3.13112L11.4432 3.49712C11.3222 3.49712 11.3222 3.61812 11.2002 3.49712C11.1112 3.39712 11.0672 3.26412 11.0792 3.13112C11.3222 2.52412 11.9302 2.52412 12.1732 2.64512ZM19.8332 7.26639C19.8812 7.24539 19.9272 7.22039 19.9712 7.19339C20.4842 6.87339 20.6402 6.19839 20.3202 5.68539C20.1112 5.35939 19.6852 5.25139 19.3472 5.44239L18.9822 5.68539C18.7392 4.95639 19.4692 4.34739 19.7122 4.34739C19.9552 4.34739 19.9552 4.10439 19.9552 3.98339C19.8692 3.38839 20.2312 2.81939 20.8062 2.64539C21.0492 2.64539 21.1712 2.64539 21.0492 3.01039C20.8472 3.77439 20.8892 4.58139 21.1712 5.32039C21.2252 5.50639 21.2542 5.69939 21.2572 5.89339C21.2762 7.10239 20.3122 8.09739 19.1042 8.11739C18.1712 8.06339 17.2602 7.81539 16.4292 7.38739C15.6942 6.87339 14.8692 6.50239 13.9972 6.29339H12.9022C13.0242 6.17139 13.2682 5.92839 13.2682 5.80639C13.2682 5.68539 13.1462 5.44239 13.0242 5.32039C12.9022 5.19939 12.6592 5.07739 12.7812 4.95639C12.7882 4.93639 12.7972 4.91739 12.8092 4.90139C12.8832 4.78939 13.0342 4.75939 13.1462 4.83339L13.6322 5.07739V5.44239C14.4832 5.07739 14.4832 5.07739 14.8482 5.80639H14.9702C15.2132 5.56339 15.3342 5.68539 15.4562 5.92839C15.5682 6.17939 15.7952 6.36039 16.0642 6.41539H16.3072C16.3072 6.53739 16.4292 6.53739 16.5502 6.53739C16.6722 6.53739 16.5502 6.41539 16.5502 6.29339C16.5502 6.09139 16.3872 5.92839 16.1852 5.92839C15.9422 5.92839 15.8212 5.80639 15.6992 5.56339C15.5782 5.32039 15.4562 5.19939 15.0912 5.32039C14.9572 5.32039 14.8482 5.21139 14.8482 5.07739L14.2402 4.83339C13.9972 4.95639 13.8752 4.83339 13.6322 4.59039C13.3552 4.34339 12.9362 4.34339 12.6592 4.59039C12.2942 4.83339 11.9302 4.59039 11.6862 4.59039C11.4432 4.59039 11.5652 4.10439 11.4432 3.98339C11.3222 3.86139 11.4432 3.74039 11.5652 3.74039C12.9862 3.13039 14.6272 3.36539 15.8212 4.34739C16.1702 4.65739 16.4582 5.02839 16.6722 5.44239C17.0112 5.94439 17.4212 6.39439 17.8882 6.78039C18.3962 7.28939 19.1452 7.47639 19.8332 7.26639ZM9.25521 7.75204C9.62021 7.99604 9.62021 8.48204 10.1062 8.48204H10.3492C11.2742 8.38304 12.1132 7.89704 12.6592 7.14404C12.9272 6.81904 13.3322 6.63804 13.7542 6.65804C14.5252 6.87804 15.2622 7.20604 15.9422 7.63004C16.8222 8.18604 17.8242 8.51904 18.8612 8.60304L19.8332 8.36004C19.8862 8.34804 19.9372 8.33404 19.9882 8.32004C21.2102 7.95204 21.9032 6.66404 21.5362 5.44204C21.1732 4.46104 21.1732 3.38204 21.5362 2.40204C21.6572 2.28104 21.6572 2.28104 21.4142 2.28104H20.8062C20.1612 2.42704 19.6762 2.96104 19.5902 3.61804C19.5902 3.86104 20.1982 3.61804 19.3472 4.10404C18.4962 4.59004 18.7392 5.80604 18.7392 6.04904C18.7392 6.29304 18.8612 6.29304 18.9822 6.04904H19.2262C19.4372 5.90004 19.7062 5.85504 19.9552 5.92804C20.1982 6.04904 20.1982 6.29304 20.0772 6.53704C20.0822 6.83004 19.8782 7.08504 19.5902 7.14404C19.1702 7.18204 18.7482 7.09704 18.3742 6.90104C18.0312 6.64704 17.8472 6.23204 17.8882 5.80604C18.0102 5.32004 17.6452 4.95604 17.4012 4.83304C17.1582 4.71204 17.1582 5.19904 17.1582 4.34704C17.1582 3.49704 16.1852 3.25304 16.0642 3.25304C15.9422 3.25304 15.6992 3.13104 15.6992 3.01004C15.6752 2.90704 15.6352 2.80804 15.5792 2.71804C15.2962 2.26104 14.6972 2.12004 14.2402 2.40204C14.1192 2.52404 13.9972 2.40204 13.8752 2.28104C13.5002 1.92504 12.9132 1.92504 12.5382 2.28104C12.4162 2.40204 12.9022 2.64504 12.2942 2.40204C11.6862 2.15904 11.3222 2.40204 10.9572 2.88804H10.7142C10.5922 2.64504 10.4712 2.88804 10.3492 3.01004C9.77221 3.81304 9.35921 4.72204 9.13321 5.68504C9.02221 5.89004 9.07421 6.14604 9.25521 6.29304C9.49821 6.41504 9.74121 6.41504 9.37621 6.78004C9.01221 7.14404 8.89021 7.50904 9.25521 7.75204Z" fill="#162020"/>
<path fill-rule="evenodd" clip-rule="evenodd" d="M22.1442 5.80633C22.0912 5.82733 22.0442 5.85833 22.0052 5.89933C21.8682 6.04633 21.8752 6.27733 22.0222 6.41433C22.2812 6.56133 22.4252 6.84933 22.3872 7.14433C22.2662 7.38733 22.3872 7.38733 22.6302 7.38733H27.9802C28.2242 7.38733 28.3452 7.38733 28.2242 7.14433C28.1852 6.84933 28.3302 6.56133 28.5882 6.41433C28.7122 6.27633 28.7122 6.06733 28.5882 5.92833C28.2242 5.56333 28.3452 5.19933 28.2242 4.83333C28.2322 4.60933 28.3182 4.39433 28.4672 4.22633C28.4822 4.21233 28.4972 4.19833 28.5102 4.18333C28.6872 3.98133 28.6682 3.67433 28.4672 3.49633C28.3452 3.37433 28.1022 3.49633 28.2242 3.13133C28.3452 2.76733 28.1022 2.76733 27.8592 2.76733C27.7982 3.90133 27.7982 5.03733 27.8592 6.17133C27.8592 6.41433 27.7372 6.65833 27.3732 6.53633H26.2782C26.0102 6.49633 25.7392 6.58633 25.5482 6.78033H25.0622C24.9402 6.53633 24.6972 6.53633 24.4542 6.53633H23.1172C22.9152 6.53633 22.7522 6.37233 22.7522 6.17133V2.76733C22.5092 2.76733 22.3872 3.01033 22.3872 3.13133C22.3872 3.25333 22.2662 3.37433 22.1442 3.49633C22.0912 3.51633 22.0442 3.54733 22.0052 3.58833C21.8682 3.73633 21.8752 3.96633 22.0222 4.10433C22.3212 4.33033 22.4632 4.70933 22.3872 5.07733C22.3872 5.44233 22.3872 5.68533 22.1442 5.80633Z" fill="#162020"/>
<path fill-rule="evenodd" clip-rule="evenodd" d="M1.95923 4.10421C2.44523 4.46921 2.32423 5.07721 2.32423 5.32021C2.32423 5.56321 2.32423 5.68521 2.08123 5.80621C1.83723 5.92821 1.83723 6.17121 2.08123 6.41521C2.27323 6.60521 2.36323 6.87621 2.32423 7.14421C2.20223 7.38721 2.32423 7.38721 2.56723 7.38721H7.91723C8.16023 7.38721 8.28223 7.38721 8.16023 7.14421C8.18423 6.86321 8.31423 6.60221 8.52523 6.41521C8.64723 6.29321 8.64723 6.04921 8.40323 5.80621C8.16423 5.30721 8.16423 4.72521 8.40323 4.22621C8.41923 4.21221 8.43323 4.19821 8.44723 4.18321C8.62523 3.98121 8.60523 3.67421 8.40323 3.49721C8.28223 3.37521 8.28223 3.49721 8.28223 3.13121C8.28223 2.76721 8.03923 2.76721 7.79523 2.76721V6.17121C7.74223 6.32521 7.59323 6.42321 7.43123 6.41521H6.21523C5.94723 6.37521 5.67623 6.46521 5.48523 6.65821C5.45223 6.79221 5.31523 6.87421 5.18123 6.84021C5.04723 6.80621 4.96523 6.67021 4.99923 6.53721H3.05323C2.81023 6.53721 2.68823 6.53721 2.68823 6.17121V2.76721C2.44523 2.76721 2.32423 3.01021 2.32423 3.13121C2.32423 3.25321 2.32423 3.37521 2.08123 3.49721C1.83723 3.61821 1.47323 3.74021 1.95923 4.10421Z" fill="#162020"/>
<path fill-rule="evenodd" clip-rule="evenodd" d="M25.5485 5.80635C26.0655 6.09835 26.6595 6.22635 27.2515 6.17135C27.4945 6.17135 27.4945 6.17135 27.4945 5.92835V4.46935V3.37435C27.4975 3.02435 27.3115 2.69935 27.0075 2.52435C26.5805 2.36535 26.1185 2.32335 25.6705 2.40235C25.5485 2.52435 25.4265 2.52435 25.4265 2.76735V5.56335C25.4265 5.68535 25.4265 5.80635 25.5485 5.80635Z" fill="#162020"/>
<path fill-rule="evenodd" clip-rule="evenodd" d="M23.4816 6.1716L24.9406 5.9286L25.1836 5.5636C25.1236 4.6726 25.1236 3.7786 25.1836 2.8886C25.1836 2.6196 24.9656 2.4016 24.6976 2.4016C24.2106 2.1586 23.6036 2.5246 23.3596 2.6456C23.1166 2.7676 23.1166 2.8886 23.1166 3.0106V4.4696V5.8066C23.1166 6.1716 23.2386 6.1716 23.4816 6.1716Z" fill="#162020"/>
<path fill-rule="evenodd" clip-rule="evenodd" d="M3.29662 6.1716L4.75562 5.9286C4.99962 5.8066 5.12062 5.6856 5.12062 5.4426C5.05962 4.5916 5.05962 3.7386 5.12062 2.8886C5.12062 2.5246 5.12062 2.6456 4.63462 2.4016C4.14862 2.1586 3.41862 2.5246 3.29662 2.6456C3.17462 2.7676 3.05362 2.8886 3.05362 3.0106V4.4696V5.9286C3.05362 6.1716 3.17462 6.1716 3.29662 6.1716Z" fill="#162020"/>
<path fill-rule="evenodd" clip-rule="evenodd" d="M5.48553 5.80632C5.96253 6.08932 6.51453 6.21632 7.06653 6.17132C7.30953 6.17132 7.43053 6.17132 7.43053 5.92832V4.46932V3.49632C7.43053 3.01032 7.30953 2.64532 6.82253 2.52432C6.45453 2.30732 6.01053 2.26232 5.60753 2.40232C5.48553 2.52432 5.36353 2.52432 5.36353 2.76732V5.56332C5.36353 5.68532 5.36353 5.80632 5.48553 5.80632Z" fill="#162020"/>
<path fill-rule="evenodd" clip-rule="evenodd" d="M10.9572 6.41474C11.0542 6.13574 11.1352 5.85174 11.2002 5.56274C10.8352 5.80674 10.4712 6.17174 10.4712 6.29374C10.4712 6.41474 10.4712 6.41474 10.5922 6.53674C10.7142 6.65774 10.8352 6.53674 10.9572 6.41474Z" fill="#162020"/>
<mask id="penn-1203570" mask-type="alpha" maskUnits="userSpaceOnUse" x="75" y="12" width="51" height="22">
<path fill-rule="evenodd" clip-rule="evenodd" d="M75.1881 12.3705H125.5V33.5849H75.1881V12.3705Z" fill="white"/>
</mask>
<g mask="url(#penn-1203570)">
<path fill-rule="evenodd" clip-rule="evenodd" d="M124.041 32.3141C122.825 32.0711 122.338 31.5851 122.217 30.4911C122.116 30.0931 122.075 29.6841 122.095 29.2751V19.9121C122.095 19.4251 121.974 18.8171 121.974 18.3311C121.48 14.8401 118.445 12.2761 114.921 12.3731C112.953 12.5281 111.083 13.2931 109.571 14.5611L107.747 16.3851C107.687 15.2101 107.687 14.0341 107.747 12.8591C107.747 12.3731 107.625 12.3731 107.139 12.3731L100.573 12.9811C100.33 12.9811 100.33 12.7381 100.33 13.3451C100.33 13.9541 100.33 13.9541 100.937 14.0751H101.303C103.126 14.1971 103.734 14.8041 103.734 16.6281V29.2751C103.713 29.8891 103.632 30.5001 103.491 31.0981C103.379 31.8321 102.771 32.3871 102.032 32.4361C100.992 32.6791 99.9102 32.6791 98.8702 32.4361C97.9562 32.3761 97.2282 31.6481 97.1682 30.7341C97.0732 30.2941 97.0322 29.8451 97.0472 29.3961C96.9252 25.9921 97.0472 22.5861 96.9252 19.1821C96.9122 18.7601 96.8612 18.3411 96.7722 17.9281C95.9652 14.1871 92.2762 11.8081 88.5352 12.6161C86.6772 13.0571 84.9872 14.0291 83.6712 15.4131C83.3382 15.8071 82.9722 16.1731 82.5772 16.5071V12.8591C82.5772 12.4951 82.5772 12.4951 82.2122 12.4951H79.9012L75.6452 12.9811C75.5242 12.9811 75.5242 12.6161 75.2812 13.2241C75.0382 13.8321 75.2812 13.9541 75.8892 14.0751H76.2542C78.0782 14.1971 78.6862 14.8041 78.6862 16.6281V29.2751C78.6572 29.9281 78.5762 30.5801 78.4422 31.2201C78.2672 31.8481 77.7472 32.3211 77.1042 32.4361H75.5242C75.0382 32.4361 75.4022 32.8001 75.2812 33.0441C75.1592 33.2881 75.1592 33.5311 75.5242 33.4091H85.6162C85.7382 33.4091 85.9812 33.7741 86.1032 33.2881C86.2252 32.8001 86.1032 32.4361 85.4952 32.4361H84.8872C83.7252 32.4381 82.7632 31.5301 82.6982 30.3691C82.6982 30.0041 82.5772 29.5181 82.5772 29.1531V18.8171C82.5742 18.6471 82.6162 18.4801 82.6982 18.3311C83.5772 17.1071 84.6932 16.0731 85.9812 15.2921C87.4482 14.3321 89.3322 14.2841 90.8452 15.1691C92.3352 15.9871 93.1952 17.6121 93.0342 19.3031V30.8551C92.9432 31.6431 92.3542 32.2831 91.5752 32.4361C90.9882 32.6351 90.3692 32.7181 89.7512 32.6791H89.5082V33.5311C89.5082 33.6521 89.8722 33.5311 89.9942 33.5311H110.665C111.03 33.5311 111.151 33.2881 111.151 32.9221C111.151 32.5571 111.151 32.4361 110.665 32.4361H109.936C109.894 32.4391 109.853 32.4401 109.811 32.4401C108.735 32.4381 107.866 31.5651 107.868 30.4911C107.768 30.0931 107.727 29.6841 107.747 29.2751V18.8171C107.729 18.6461 107.771 18.4731 107.868 18.3311C108.691 17.1431 109.721 16.1141 110.908 15.2921C112.404 14.2801 114.351 14.2331 115.894 15.1691C117.341 15.9681 118.194 17.5331 118.083 19.1821V30.4911C118.155 31.3891 117.516 32.1891 116.623 32.3141C116.125 32.5251 115.582 32.6081 115.043 32.5571C114.435 32.5571 114.557 32.9221 114.557 33.2881C114.557 33.6521 114.8 33.5311 115.043 33.5311H125.5V32.4361C125.011 32.5151 124.51 32.4731 124.041 32.3141Z" fill="#162020"/>
</g>
<path fill-rule="evenodd" clip-rule="evenodd" d="M53.3942 13.4675C52.4182 15.2475 50.6612 16.4635 48.6512 16.7505C46.6392 17.1375 44.5672 17.0955 42.5722 16.6285C42.2072 16.5075 42.0852 16.3855 42.0852 16.0215V8.96855V2.03755C42.0852 1.67255 42.2072 1.55055 42.5722 1.55055C44.2752 1.47055 45.9812 1.51055 47.6792 1.67255C51.0302 2.03855 53.6942 4.65255 54.1232 7.99555C54.5462 9.84755 54.2872 11.7905 53.3942 13.4675ZM58.1362 13.2243C59.8512 9.54626 58.7312 5.16926 55.4612 2.76726C53.2482 1.20326 50.6292 0.316257 47.9222 0.213257H41.5992V0.334257H33.9382C33.8172 0.943257 33.9382 1.30726 34.5462 1.30726C35.9862 1.28726 37.2252 2.32026 37.4652 3.73926C37.6052 4.50226 37.6872 5.27526 37.7082 6.04926V27.6943C37.7482 28.3523 37.6652 29.0113 37.4652 29.6393C37.4012 30.8363 36.6392 31.8843 35.5192 32.3143H34.3032C33.8172 32.3143 33.9382 32.6793 33.9382 33.0443C33.9382 33.4083 34.1822 33.2873 34.4252 33.2873H45.2472C45.8552 33.2873 45.8552 33.0443 45.8552 32.6793C45.8552 32.3143 45.6122 32.3143 45.3692 32.3143C43.8012 32.3853 42.4582 31.2033 42.3292 29.6393C42.1812 28.8773 42.1002 28.1053 42.0852 27.3283V18.3303C42.0852 17.8443 42.2072 17.8443 42.5722 17.8443L46.0982 18.2093C48.5282 18.3153 50.9582 17.9863 53.2722 17.2373C55.3942 16.6593 57.1662 15.1973 58.1362 13.2243Z" fill="#162020"/>
<mask id="mask2" mask-type="alpha" maskUnits="userSpaceOnUse" x="55" y="12" width="21" height="23">
<path fill-rule="evenodd" clip-rule="evenodd" d="M55.5145 12.3219H75.0934V34.1612H55.5145V12.3219Z" fill="white"/>
</mask>
<g mask="url(#mask2)">
<path fill-rule="evenodd" clip-rule="evenodd" d="M61.4191 15.2919C62.1641 14.5369 63.1111 14.0149 64.1481 13.7879C67.1001 13.1439 70.0161 15.0149 70.6601 17.9669C70.7821 18.4529 70.9031 19.1829 70.9031 19.5479C70.9031 19.9119 70.7821 20.0339 70.4171 20.0339H65.3111H60.2031C59.8381 20.0339 59.7171 19.9119 59.7171 19.5469C59.7851 17.9769 60.3851 16.4759 61.4191 15.2919ZM73.0921 30.2475C71.2881 32.1595 68.5691 32.9095 66.0401 32.1925C63.5801 31.3795 61.6161 29.5045 60.6901 27.0855C60.0041 25.2605 59.6741 23.3205 59.7171 21.3705C59.5951 20.8845 59.8381 21.0065 60.2031 21.0065H74.1871C74.6731 21.0065 74.7951 20.8845 74.7951 20.5205C74.7961 18.9975 74.3291 17.5115 73.4571 16.2645C73.4091 16.1965 73.3611 16.1305 73.3121 16.0645C70.2081 11.9295 64.3391 11.0925 60.2031 14.1965C57.4131 16.0965 55.6961 19.2135 55.5831 22.5865C55.2821 25.1395 55.9791 27.7095 57.5281 29.7615C59.2861 32.2275 62.0471 33.7855 65.0671 34.0175C68.6321 34.6255 72.2501 33.2805 74.5521 30.4905C75.0191 29.8165 75.1931 28.9835 75.0381 28.1805L73.0921 30.2475Z" fill="#162020"/>
</g>
</svg>
