<svg width="141" height="43" viewBox="0 0 141 43" fill="none" xmlns="http://www.w3.org/2000/svg">
<path fill-rule="evenodd" clip-rule="evenodd" d="M46.4296 8.08544C46.3288 8.20192 46.3904 8.15152 46.4296 8.08544V8.08544Z" fill="#162020"/>
<path fill-rule="evenodd" clip-rule="evenodd" d="M43.3524 11.0079V4.94538L43.7657 5.2209L45.971 7.9761H46.3843C46.475 7.9761 46.4593 8.03546 46.4302 8.08586C46.4873 8.01978 46.5959 7.90218 46.7975 7.70058C47.6241 6.87514 48.3129 5.9097 49.0017 5.08314H49.2783V10.8702C49.2783 11.1457 49.4161 11.1457 49.5539 11.1457H51.3447C51.8958 11.1457 51.8958 11.1457 51.8958 10.7324V1.3625C51.8958 1.22474 51.8958 1.08698 51.6203 1.08698H49.5539C48.4507 2.18906 47.4863 3.43002 46.522 4.5321H46.1087L43.4902 1.3625C43.2147 1.08698 43.0769 0.949219 42.8014 0.949219H41.1483C40.8727 0.949219 40.8727 0.949219 40.8727 1.22474V11.1457H43.2147C43.3524 11.1457 43.4902 11.1457 43.3524 11.0079Z" fill="#162020"/>
<path fill-rule="evenodd" clip-rule="evenodd" d="M110.181 0.949219H108.251C107.976 0.949219 107.976 0.949219 107.976 1.22474V7.0129L107.7 6.87514L106.598 5.63418L102.602 0.949219H100.398C100.26 0.949219 100.122 0.949219 100.122 1.22474V11.1457H102.327C102.602 11.1457 102.602 11.1457 102.602 10.8702V4.94538C102.603 4.86922 102.664 4.80874 102.739 4.80874C102.816 4.80762 102.878 4.86922 102.878 4.94538L103.568 5.63418L108.251 11.0079H110.457V1.22474C110.457 0.949219 110.457 0.949219 110.181 0.949219Z" fill="#162020"/>
<path fill-rule="evenodd" clip-rule="evenodd" d="M134.707 31.5387H132.779C132.503 31.5387 132.228 30.0233 132.365 31.8142C132.503 33.6062 132.503 37.1879 132.503 37.3257C132.503 37.4646 132.503 37.6023 132.365 37.6023V37.4646L127.128 31.5387H125.062C124.649 31.5387 124.649 31.5387 124.649 31.9519V41.5974C124.649 41.7351 124.649 41.8729 124.924 41.8729H126.854C127.128 41.8729 127.266 41.8729 127.266 41.5974V35.6726C127.266 35.6726 127.128 35.6726 127.266 35.5348C127.268 35.5326 127.266 35.527 127.268 35.5247C127.314 35.574 127.353 35.6166 127.404 35.6726C129.196 37.6023 130.987 39.6687 132.641 41.7351H134.707C134.983 41.7351 134.983 41.7351 134.983 41.4596V31.8142C134.983 31.5387 134.983 31.5387 134.707 31.5387Z" fill="#162020"/>
<path fill-rule="evenodd" clip-rule="evenodd" d="M52.447 26.3029H54.3756C54.6511 26.3029 54.6511 26.3029 54.6511 26.0273V20.1025H54.7889L54.9266 20.3781L56.8564 22.4445L60.1626 26.4406H62.0924C62.2302 26.4406 62.3679 26.4406 62.3679 26.1651V16.5197C62.3679 16.2441 62.2302 16.2441 61.9546 16.2441H60.026C59.8882 16.2441 59.7505 16.2441 59.7505 16.5197V22.0312L58.6473 20.9291L54.6511 16.2441H52.447C52.1714 16.2441 52.1714 16.2441 52.1714 16.3819V26.0273C52.1714 26.3029 52.1714 26.3029 52.447 26.3029Z" fill="#162020"/>
<path fill-rule="evenodd" clip-rule="evenodd" d="M120.24 38.2906C119.665 39.1743 118.674 39.6951 117.621 39.6682H117.346C116.175 39.7377 115.062 39.1542 114.453 38.1529C114.229 37.7698 114.092 37.342 114.052 36.9007C113.899 35.233 115.128 33.758 116.795 33.6057C117.77 33.4097 118.783 33.6628 119.551 34.2945C120.167 34.7436 120.526 35.4626 120.515 36.2242C120.631 36.9254 120.534 37.6444 120.24 38.2906ZM118.448 31.4012C116.973 31.1872 115.466 31.4784 114.176 32.2277C112.363 33.182 111.323 35.1532 111.559 37.1882C111.666 38.3239 112.151 39.3912 112.936 40.22C114.147 41.3042 115.721 41.8944 117.346 41.8732H118.034C120.021 41.7578 121.801 40.6064 122.719 38.8413C123.522 37.2576 123.417 35.366 122.444 33.8808C121.511 32.5391 120.065 31.6408 118.448 31.4012Z" fill="#162020"/>
<path fill-rule="evenodd" clip-rule="evenodd" d="M66.5016 38.4279C65.9114 39.353 64.8294 39.8402 63.7453 39.6678C62.2882 39.6711 61.0013 38.7191 60.5757 37.3258C60.3842 36.2182 60.7437 35.087 61.5411 34.2951C62.1022 33.8572 62.7664 33.5727 63.4698 33.4674C64.3736 33.407 65.264 33.7038 65.9506 34.2951C66.5229 34.6546 66.8835 35.2718 66.9149 35.9482C67.1254 36.7961 66.9754 37.6932 66.5016 38.4279ZM65.6751 31.6766C64.8362 31.3798 63.9391 31.2857 63.0565 31.4011C61.5703 31.522 60.1882 32.2142 59.1981 33.3297C58.0949 34.5113 57.6783 36.1779 58.096 37.7391C58.4477 39.5311 59.7816 40.9715 61.5412 41.4598C63.1876 42.1127 65.03 42.0635 66.6394 41.3209C68.4236 40.4955 69.594 38.7393 69.6712 36.7748C69.6992 35.9147 69.51 35.0612 69.1191 34.294C68.4168 32.9534 67.1546 31.9947 65.6751 31.6766Z" fill="#162020"/>
<path fill-rule="evenodd" clip-rule="evenodd" d="M74.0797 25.476C74.2533 25.3461 74.3552 25.1422 74.3552 24.925V23.1341V21.2043C74.3552 21.0666 74.3552 20.9288 74.0797 20.9288H70.6346C70.4968 20.9288 70.3591 20.9288 70.3591 21.2043V22.8586H71.6C71.7378 22.8586 71.8756 22.9963 71.7378 23.1341V23.8229C71.8756 23.9606 71.7378 24.0984 71.4623 24.2362C70.564 24.5128 69.6042 24.5128 68.706 24.2362C68.1437 24.0973 67.6364 23.7926 67.2488 23.3614C66.1804 22.1742 66.2778 20.3442 67.4661 19.2757C68.0743 18.6171 68.9143 18.2218 69.8092 18.1725C71.2327 18.1165 72.6495 18.3998 73.942 19.0002C74.0797 19.1379 74.0797 19.1379 74.0797 18.8624V17.0715C74.0797 16.9338 74.0797 16.9338 73.942 16.796L73.1154 16.5194C71.4746 15.928 69.6871 15.8798 68.0172 16.3816C67.0327 16.5866 66.1255 17.0648 65.3986 17.7592C64.0647 18.9778 63.5775 20.8717 64.1588 22.583C64.5844 24.4322 66.0292 25.877 67.8794 26.3026C69.2738 26.7125 70.7567 26.7125 72.1511 26.3026C72.8466 26.1726 73.5052 25.8904 74.0797 25.476Z" fill="#162020"/>
<path fill-rule="evenodd" clip-rule="evenodd" d="M65.399 3.98116V3.01684C65.399 2.87908 65.399 2.74132 65.5368 2.87908C66.1774 2.81076 66.8248 2.81076 67.4654 2.87908C67.9459 3.01236 68.245 3.4906 68.1542 3.98116C68.245 4.4706 67.9459 4.94884 67.4654 5.08324C67.0085 5.15268 66.5448 5.15268 66.0878 5.08324C65.399 5.08324 65.399 5.08324 65.399 4.5322V3.98116ZM63.195 11.1459H65.1236C65.3991 11.1459 65.3991 11.1459 65.3991 10.8704V7.28866C65.3991 7.1509 65.3991 7.01314 65.5369 7.01314C66.0778 6.92914 66.6289 7.07922 67.0522 7.42642C67.5742 7.8565 67.9583 8.43218 68.1543 9.07954L68.982 11.1459H71.7372C71.875 11.1459 71.875 11.1459 71.7372 11.0082L70.9106 8.94178C70.4895 8.0357 69.9318 7.19906 69.2575 6.46098C69.1198 6.32322 69.1198 6.32322 69.2575 6.32322L69.6708 6.0477C69.7033 6.02642 69.7346 6.00514 69.766 5.98274C70.9386 5.13714 71.2052 3.50082 70.3596 2.32706C69.6966 1.40082 68.6034 0.878898 67.4655 0.949458H63.195C62.9194 0.949458 62.9194 0.949458 62.9194 1.22498V6.0477V10.8704C62.9194 11.1459 62.9194 11.1459 63.195 11.1459Z" fill="#162020"/>
<path fill-rule="evenodd" clip-rule="evenodd" d="M43.4902 26.4406C44.9103 26.7688 46.3955 26.6736 47.7619 26.1651C48.5638 25.903 49.247 25.3665 49.6916 24.6486C50.1923 23.8209 50.4319 22.86 50.3793 21.8934V16.5196C50.3793 16.2441 50.2415 16.2441 50.1038 16.2441H48.0374C47.8996 16.2441 47.7619 16.2441 47.7619 16.5196V21.8934C47.8055 22.3694 47.7092 22.8476 47.4863 23.271C46.746 24.3272 45.3718 24.7281 44.179 24.2364C43.2023 23.971 42.5606 23.038 42.6636 22.0312V19.4137V16.5196C42.6636 16.2441 42.6636 16.2441 42.3881 16.2441H40.3206C40.1828 16.2441 39.9084 14.4521 40.0451 16.5196C40.1828 18.586 40.0451 20.6536 40.1828 22.72C40.1918 23.2956 40.3329 23.8624 40.5972 24.3731C41.1841 25.4774 42.2548 26.2424 43.4902 26.4406Z" fill="#162020"/>
<path fill-rule="evenodd" clip-rule="evenodd" d="M93.0951 4.53188C93.0951 4.25636 93.2329 4.1186 93.3706 3.84308C93.3706 3.76692 93.4322 3.70532 93.5084 3.70532L94.7482 6.5994V7.01268C94.886 7.2882 94.886 7.42596 94.6105 7.42596H93.3706L92.2686 7.56372C91.993 7.56372 91.993 7.42596 91.993 7.2882L93.0951 4.53188ZM91.0276 9.49233C91.0276 9.26385 91.2135 9.07905 91.4408 9.07905H93.3706H95.437L95.8503 9.49233C95.988 10.0434 96.2647 10.5955 96.4024 11.1455H99.1576C99.1576 11.1455 99.2954 11.1455 99.1576 11.0077L98.7444 10.0434L96.678 5.22065C95.988 3.84305 95.0237 1.50001 94.886 1.22449C94.7482 0.948975 94.6104 0.948975 94.4727 0.948975H92.1308L91.5786 1.22449C91.181 2.44193 90.7207 3.63697 90.201 4.80737L87.7213 11.0077H90.4765C90.6143 10.4578 90.8898 9.90561 91.0276 9.49233Z" fill="#162020"/>
<path fill-rule="evenodd" clip-rule="evenodd" d="M91.7169 37.8769H90.2004L91.4414 34.5696C91.5792 34.4318 91.5792 34.2952 91.7169 34.2952C91.8547 34.2952 91.8547 34.4318 91.8547 34.5696L93.2334 37.8769H91.7169ZM97.3662 41.0464L95.7131 37.4636C95.162 36.086 94.1966 34.0196 93.9211 33.4674C93.6455 32.9164 93.5089 32.2276 93.2334 31.6765H90.0638C89.5127 32.9164 89.0995 34.4317 88.5473 35.5349C87.9963 36.637 87.583 37.8768 87.0319 39.1167C86.7934 39.9298 86.4708 40.7149 86.0676 41.4597C86.0676 41.5975 86.0676 41.7352 86.3431 41.7352H88.5473C88.6851 41.7352 88.6851 41.873 88.8239 41.4597C88.9617 41.0464 89.2372 40.0821 89.375 39.9444C89.5127 39.8066 89.5127 39.6688 89.6505 39.6688H93.9211C94.0588 39.6688 94.0588 39.3933 94.1966 39.9444C94.3343 40.4954 94.6099 41.1842 94.7487 41.4597C94.8865 41.7352 94.8865 41.7352 95.162 41.7352H96.2641H97.3662C97.6417 41.7352 97.5039 41.5975 97.5039 41.4597C97.5039 41.322 97.3662 41.1842 97.3662 41.0464Z" fill="#162020"/>
<path fill-rule="evenodd" clip-rule="evenodd" d="M32.6009 31.754C32.6009 31.754 32.602 31.754 32.6031 31.754C32.6166 31.7249 32.6155 31.7249 32.6009 31.754Z" fill="#162020"/>
<path fill-rule="evenodd" clip-rule="evenodd" d="M35.2231 37.8769H34.121L32.8812 38.0147C32.6057 38.0147 32.6057 38.0147 32.7434 37.7392L33.9833 34.4318C33.9833 34.2952 33.9833 34.2952 34.121 34.2952C34.6721 35.3972 35.3609 37.0504 35.4986 37.4636C35.6364 37.8769 35.6364 37.8769 35.2231 37.8769ZM38.5305 38.4279C38.1083 37.3336 37.602 36.2741 37.014 35.2594C36.6142 34.1327 36.155 33.0295 35.6364 31.952C35.4987 31.8143 35.4987 31.6765 35.2231 31.6765H32.8812C32.7569 31.6765 32.6718 31.7112 32.6035 31.7538C32.5811 31.8042 32.5094 31.961 32.3302 32.3653C31.778 33.6063 31.227 34.845 30.8137 36.086L29.4361 39.3933L28.6095 41.5975C28.4718 41.873 28.4718 41.873 28.7473 41.873H30.9515C31.0892 41.873 31.0892 42.1485 31.227 41.5975C31.3647 41.0464 31.6403 40.6332 31.778 40.0821L32.0535 39.8066H36.1875C36.463 39.8066 36.463 39.9444 36.6007 40.0821L37.1518 41.7352H38.6683L39.6326 41.873C40.0459 41.873 40.3214 42.424 39.9081 41.4597C39.4948 40.4954 38.9438 39.5311 38.5305 38.4279Z" fill="#162020"/>
<path fill-rule="evenodd" clip-rule="evenodd" d="M32.4674 31.9521C32.4674 32.0193 32.5626 31.8289 32.6007 31.7539C32.5178 31.8076 32.4674 31.8771 32.4674 31.9521Z" fill="#162020"/>
<path fill-rule="evenodd" clip-rule="evenodd" d="M33.4315 4.94529L33.8448 3.84321L34.1203 3.42993C34.2581 3.98097 34.5336 4.39425 34.6714 4.94529C34.9346 5.70465 35.2571 6.44161 35.6368 7.15057C35.6368 7.28833 35.6368 7.42609 35.3613 7.42609H32.7427C32.605 7.42609 32.605 7.28833 32.605 7.15057L33.4315 4.94529ZM29.1611 11.1455H31.0897C31.3652 10.5944 31.7785 9.49233 31.7785 9.35457C31.7785 9.21681 31.9163 9.07905 32.1918 9.07905H36.188C36.3257 9.07905 36.4635 9.07905 36.3257 9.49233C36.496 10.0669 36.7267 10.6202 37.0145 11.1455H39.7708V10.8711C39.53 10.4835 39.3452 10.0669 39.2187 9.63009C38.8412 8.96817 38.5187 8.27713 38.2544 7.56257C37.99 6.84913 37.6675 6.15809 37.29 5.49617L36.188 2.74097V2.46545C35.9236 2.14401 35.7344 1.76769 35.6369 1.36225C35.4992 1.08673 35.4992 0.948975 35.0859 0.948975H33.0184C32.4673 0.948975 32.4673 0.948975 32.3296 1.50001L31.0897 4.53185H30.952C30.8736 4.87569 30.7336 5.20273 30.5387 5.49617L29.7121 7.83809L29.2988 8.66577V8.94129C29.1308 9.60433 28.9001 10.2506 28.6089 10.8711C28.4712 11.1455 28.4712 11.1455 28.7467 11.1455H29.1611Z" fill="#162020"/>
<path fill-rule="evenodd" clip-rule="evenodd" d="M61.2653 9.7681C61.2653 9.49258 61.1275 9.35482 60.9897 9.35482H56.5803C56.3048 9.35482 56.3048 9.21706 56.3048 8.94154V7.15066C56.3048 6.87514 56.3048 6.87514 56.5803 6.87514H60.5765C60.852 6.87514 60.9897 6.87514 60.9897 6.5985C60.9203 6.18858 60.9203 5.7697 60.9897 5.35866C60.9897 4.94538 60.9897 4.94538 60.5765 4.94538H56.5803C56.3048 4.94538 56.3048 4.94538 56.3048 4.66986V3.1545C56.3048 2.87898 56.3048 2.74122 56.5803 2.87898H60.852C61.1275 2.87898 61.1275 2.74122 61.1275 2.60346V1.22474C61.1275 0.949219 61.1275 0.949219 60.852 0.949219H53.9617C53.824 0.949219 53.6862 0.949219 53.6862 1.22474V6.04746V11.1457H61.2653V9.7681Z" fill="#162020"/>
<path fill-rule="evenodd" clip-rule="evenodd" d="M80.0051 10.595C81.1083 11.1629 82.3515 11.4026 83.5869 11.2838C84.7562 11.2603 85.8963 10.9266 86.8942 10.3195L87.1698 10.044V8.25199C87.1698 8.11423 87.032 7.97647 86.8942 8.11423L85.9299 8.52751C85.0104 9.04831 83.9419 9.24207 82.8981 9.07855C81.5888 9.08751 80.4218 8.25423 80.0051 7.01215C79.5773 6.04783 79.7386 4.92447 80.4184 4.11919C81.4522 3.15375 82.888 2.74383 84.2757 3.01599C85.1392 3.16719 85.9758 3.44607 86.7565 3.84367C86.8942 3.98143 87.032 3.98143 87.032 3.70591V2.74047V2.05167C87.032 1.83551 86.9301 1.63055 86.7565 1.50063C85.6309 0.997753 84.4056 0.762553 83.1747 0.811833C82.2854 0.815193 81.4029 0.954073 80.5562 1.22511C79.5885 1.66415 78.7395 2.32495 78.0754 3.15375C77.1626 4.38015 76.9061 5.97503 77.3866 7.42543C77.6352 8.87135 78.6309 10.0776 80.0051 10.595Z" fill="#162020"/>
<path fill-rule="evenodd" clip-rule="evenodd" d="M79.8672 31.952H79.7295C78.5165 31.4223 77.1837 31.2319 75.8711 31.401C74.9583 31.5287 74.0735 31.8087 73.2536 32.2276C71.5154 33.1885 70.494 35.0701 70.6351 37.0503C70.7639 37.8757 71.0439 38.6698 71.4616 39.3933C72.3252 40.7855 73.8204 41.6624 75.4578 41.7352C77.1423 42.0533 78.8839 41.8114 80.4183 41.0464C80.5191 40.9333 80.5684 40.7832 80.556 40.6332V38.9789C80.556 38.7034 80.556 38.5656 80.2805 38.8412C79.5312 39.1996 78.7461 39.4762 77.9375 39.6688C76.85 39.9052 75.7132 39.7069 74.769 39.1167C74.4308 38.9207 74.1351 38.6575 73.901 38.3439C72.9468 37.0615 73.2122 35.2493 74.4935 34.2951C75.7008 33.4528 77.2408 33.2468 78.6274 33.744C79.2098 33.8885 79.7676 34.1204 80.2805 34.4317C80.4183 34.5695 80.556 34.5695 80.556 34.2951V33.4685V32.9164C80.556 32.0898 80.6938 32.3653 79.8672 31.952Z" fill="#162020"/>
<path fill-rule="evenodd" clip-rule="evenodd" d="M46.935 36.3615C46.198 35.909 45.4118 35.5394 44.5931 35.2594C44.0745 35.1721 43.5951 34.9335 43.2155 34.5695C42.9399 34.1574 42.9399 33.7441 43.3532 33.6063C43.715 33.3454 44.1473 33.202 44.5931 33.1919C45.5932 33.3218 46.5687 33.5996 47.486 34.0196C47.6238 34.1574 47.7615 34.1574 47.7615 33.8818V32.2276C47.7615 32.0753 47.6383 31.9521 47.486 31.9521L45.6951 31.401C44.5046 31.0796 43.2401 31.177 42.1123 31.6766C41.5915 31.8636 41.1401 32.203 40.8153 32.6498C39.9204 33.8807 40.1926 35.6044 41.4235 36.4993C42.1817 37.0055 43.0206 37.3785 43.9031 37.6014L45.2819 38.2902C45.3435 38.3249 45.3983 38.3686 45.4465 38.419C45.7086 38.6956 45.6963 39.1313 45.4196 39.3934L44.8686 39.8066C44.1775 39.8985 43.4742 39.8514 42.8022 39.6689L40.8724 38.7034H40.5969V39.8066V40.4954C40.5969 40.771 40.5969 40.9087 40.8724 41.0465C42.4807 41.901 44.3579 42.0993 46.1084 41.5975C47.3079 41.2884 48.1524 40.2177 48.1748 38.979C48.2913 37.943 47.8108 36.9294 46.935 36.3615Z" fill="#162020"/>
<path fill-rule="evenodd" clip-rule="evenodd" d="M55.4782 36.2237L53.2741 35.2594L52.0331 34.7072C51.9805 34.6691 51.9345 34.6221 51.8953 34.5694C51.6669 34.2659 51.7285 33.8336 52.0331 33.6062C52.0331 33.4685 52.1709 33.4685 52.3086 33.4685C52.7734 33.2154 53.3222 33.1661 53.824 33.3307L56.3048 34.0195C56.4425 34.1573 56.4425 34.1573 56.4425 33.8818V32.3653C56.4425 32.2275 56.4425 32.0898 56.3048 32.0898L55.616 31.8142C54.1185 31.2229 52.4609 31.1736 50.931 31.6765C50.688 31.7862 50.4606 31.9274 50.2545 32.0954C48.9587 33.156 48.7683 35.0656 49.8289 36.3614C50.4976 36.9595 51.3017 37.3851 52.1709 37.6013L53.824 38.2901C54.0782 38.4536 54.272 38.6955 54.3761 38.9789C54.3817 39.3877 54.0894 39.7382 53.6862 39.8066C52.9661 40.0126 52.2022 40.0126 51.4821 39.8066L49.5534 38.8411C49.5534 38.7661 49.4918 38.7034 49.4157 38.7034C49.2779 38.8411 49.4157 38.8411 49.4157 38.9789V39.8066V40.6331C49.4157 40.7709 49.4157 40.9086 49.5534 40.9086L51.2065 41.7352C52.2997 41.9402 53.4208 41.9402 54.5139 41.7352C55.1243 41.5269 55.6865 41.1998 56.167 40.7709C56.3451 40.5861 56.4985 40.3778 56.6229 40.1526C57.3912 38.7515 56.8793 36.9931 55.4782 36.2237Z" fill="#162020"/>
<path fill-rule="evenodd" clip-rule="evenodd" d="M96.2643 31.5386C95.9888 31.5386 95.9888 31.5386 95.9888 31.8141V33.1928C95.9888 33.3306 95.9888 33.3306 96.1265 33.3306H99.1572C99.5716 33.3306 99.7094 33.3306 99.7094 33.8816V41.3218C99.7094 41.4595 99.7094 41.5973 99.9849 41.5973H101.914C102.066 41.5973 102.189 41.4741 102.189 41.3218V33.6061C102.189 33.1928 102.189 33.1928 102.465 33.1928H105.634C105.772 33.1928 105.91 33.1928 105.91 33.0551V31.5386H100.949H96.2643Z" fill="#162020"/>
<path fill-rule="evenodd" clip-rule="evenodd" d="M33.5693 16.2441H31.5029C31.2274 16.2441 31.2274 16.2441 31.2274 16.5197V21.3424V26.1651C31.2274 26.4406 31.3652 26.4406 31.5029 26.4406H38.8053C38.9431 26.4406 39.0809 26.4406 39.0809 26.1651V24.7864L38.8053 24.5109H34.1204C33.8449 24.5109 33.8449 24.5109 33.8449 24.2365V16.5197C33.8449 16.2441 33.7071 16.2441 33.5693 16.2441Z" fill="#162020"/>
<path fill-rule="evenodd" clip-rule="evenodd" d="M73.1155 11.1457H75.1819C75.3197 11.1457 75.3197 11.1457 75.3197 10.8702V6.04746V1.22474C75.3197 0.949219 75.3197 0.949219 75.0442 0.949219H73.1155C72.84 0.949219 72.84 0.949219 72.84 1.22474V10.8702C72.84 11.1457 72.84 11.1457 73.1155 11.1457Z" fill="#162020"/>
<path fill-rule="evenodd" clip-rule="evenodd" d="M84.5518 31.5386H82.6231C82.4854 31.5386 82.3476 31.5386 82.3476 31.8141V41.4595C82.3476 41.7351 82.4854 41.7351 82.7609 41.7351H84.5518C84.8273 41.7351 84.965 41.7351 84.965 41.4595V36.6368V31.8141C84.965 31.5386 84.965 31.5386 84.5518 31.5386Z" fill="#162020"/>
<path fill-rule="evenodd" clip-rule="evenodd" d="M107.287 31.8143V41.7353H109.63H109.768V31.5388H107.425C107.287 31.5388 107.287 31.6766 107.287 31.8143Z" fill="#162020"/>
<path fill-rule="evenodd" clip-rule="evenodd" d="M138.703 41.3216C137.866 41.3216 137.187 40.644 137.187 39.8063C137.187 38.9685 137.866 38.2898 138.703 38.2898C139.541 38.2898 140.22 38.9685 140.22 39.8063C140.22 40.644 139.541 41.3216 138.703 41.3216ZM138.566 37.8767C137.583 38.0077 136.832 38.8175 136.775 39.8065C136.775 40.8716 137.638 41.7351 138.703 41.7351C138.75 41.7362 138.799 41.734 138.847 41.7306C139.832 41.6533 140.57 40.7921 140.494 39.8065C140.494 38.7413 139.631 37.8767 138.566 37.8767Z" fill="#162020"/>
<path fill-rule="evenodd" clip-rule="evenodd" d="M138.841 39.6683H138.566C138.198 39.6683 138.06 39.4846 138.152 39.1172H138.703C138.979 39.1172 138.979 39.255 138.979 39.3928C138.979 39.5305 138.979 39.6683 138.841 39.6683ZM139.117 40.2196C139.108 40.2118 139.1 40.204 139.092 40.195C138.991 40.0808 139.002 39.9072 139.117 39.8064C139.392 39.8064 139.392 39.5308 139.392 39.2553C139.392 39.0716 139.254 38.9339 138.979 38.842H138.015C137.877 38.842 137.877 38.9798 137.877 39.1176V39.8064V40.6329C137.877 40.7707 137.877 40.9084 138.015 40.9084C138.152 40.9084 138.152 40.7707 138.152 40.6329V40.3574C138.152 40.2196 138.152 40.2196 138.29 40.0819C138.428 39.9441 138.566 40.0819 138.703 40.2196L138.979 40.6329L139.392 40.9084C139.53 40.9084 139.53 40.7707 139.392 40.6329L139.117 40.2196Z" fill="#162020"/>
<mask id="ala-09827637" mask-type="alpha" maskUnits="userSpaceOnUse" x="0" y="0" width="21" height="42">
<path fill-rule="evenodd" clip-rule="evenodd" d="M0.5 0.94873H20.9959V41.5969H0.5V0.94873Z" fill="white"/>
</mask>
<g mask="url(#ala-09827637)">
<path fill-rule="evenodd" clip-rule="evenodd" d="M13.1769 13.075H19.2395L20.8926 11.1452C21.0304 11.0075 21.0304 11.0075 20.8926 10.8708L19.2395 9.07881H13.0392C12.9014 9.07881 12.9014 9.07881 12.9014 8.80329V3.01625C12.9014 2.87849 12.7637 2.74073 12.6259 2.60297L10.9717 0.94873H10.6961L8.90526 2.60297C8.80446 2.71609 8.75406 2.86505 8.7675 3.01625V8.80329C8.7675 9.07881 8.7675 9.07881 8.49198 9.07881H3.39374C2.7867 8.98921 2.17182 9.19417 1.74062 9.62985L0.499664 11.0075V11.283L2.29166 12.9372L2.70494 13.2127H8.49198C8.62974 13.2127 8.7675 13.2127 8.7675 13.4883V16.9334C8.7675 17.0711 8.7675 17.2089 8.49198 17.2089H2.8427L2.1539 17.4844L0.637424 19.1375C0.628464 19.1454 0.621744 19.1532 0.613904 19.1622C0.513104 19.2764 0.524304 19.45 0.637424 19.5508L2.29166 21.3417H8.49198C8.7675 21.3417 8.7675 21.3417 8.7675 21.6172V30.575V39.5305C8.75406 39.6817 8.80446 39.8307 8.90526 39.9438L10.6961 41.5969H10.9717L12.6259 39.9438L12.9014 39.5305V21.6172C12.9014 21.4795 12.9014 21.3417 13.0392 21.3417H19.1017L20.8926 19.6886C20.9016 19.6807 20.9094 19.6729 20.9173 19.6639C21.0181 19.5508 21.0069 19.3761 20.8926 19.2753L19.2395 17.6222L18.8262 17.3467H13.0392C12.9014 17.3467 12.9014 17.2089 12.9014 17.0711V13.4883C12.9014 13.2127 12.9014 13.2127 13.1769 13.075Z" fill="#162020"/>
</g>
</svg>
