<svg enable-background="new 0 0 125 75.7" height="75.7" viewBox="0 0 125 75.7" width="125" xmlns="http://www.w3.org/2000/svg"><path d="m42.3 47.4-.6.7-2.2 2.9c-1.3 1.8-3.2 3-5.4 3.5-1.7.3-3.5.5-5.3.4-6-.4-11.9-1.3-17.7-2.7l-1.7-.5c.4-2.4.8-4.7 1.1-7.2.7-6.4 1.5-12.9 2.1-19.3.3-3.1.2-6.2.2-9.3 0-.4-.2-.8-.5-1.1-2-1.5-4.3-2.5-6.7-2.8-.5 0-.9.1-1.4.3v.3l1.1.5c1.1.3 1.8 1.2 1.7 2.3.3 4.1.8 8.3.9 12.5 0 6.3-.3 12.7-1.2 19-.2 1.2-.3 2.3-.5 3.5l-1.2-.3c-2.7-.9-4.3-.1-5 2.7v.3c-.4 2.1.9 3.1 2.5 2.7 1.6-.3 3.1-.8 4.6-1.3.4-.1.9-.2 1.4-.1l11.6 3.1c4 1.1 8.1 1.6 12.2 1.5 3 0 5.9-1.1 8.2-3 .8-.6 1.5-1.5 2-2.4.6-1.7.7-3.6.1-5.4 0-.2-.1-.5-.3-.8z"/><path d="m66.2 36.1c-.5 1.4-.9 2.8-1.2 4.3-.5 2.2.1 4.5 1.7 6.2 1.4 1.6 3.7 1.8 5.4.6 1.2-1.1 2.4-2.3 3.5-3.5.2-.3.4-.7.4-1.1s-.1-.7-.2-1.1h-.3l-.8.9c-1.1 1.2-2.6 2.8-3.4 3.6-.7.7-1.5.5-1.9-.4-.1-.3-.3-.7-.3-1.1-.3-1.8-.2-3.6.1-5.4 2.8-.6 5-2.5 6.1-5.1.8-1.9 1.1-3.9.9-5.9 0-1.2-.4-1.5-1.6-1.5-2.2.1-4.2 1.3-5.4 3.2-.6.9-1.2 1.9-1.7 2.8 2-4.6 3.8-9.3 5.5-13.9.1-.3.2-.6.2-.9l-.7-.3c-1.7-.2-3.4.4-4.6 1.6-.9 1.2-1.5 2.5-1.8 4l-2.5 9.9c-1.3 5.2-3.3 10.3-6 15-.6.9-1.3 1.9-1.9 2.7h-.3c-.2-1.5-.4-2.9-.5-4.4-.1-3.1-.1-6.1-.1-9.2 0-7.2.1-14.3 0-21.5 0-3.2-.3-6.2-.5-9.3-.1-1.9-1.1-3.7-2.7-4.7-1.4-1-3.1-1.6-4.8-1.6-5.5 0-11 .8-16.3 2.4-.1 0-.2 0-.3.1-.5.2-.8.9-.5 1.4.5 1.2 1.5 2.2 2.7 2.6.6.2 1.2.3 1.8.1l4.3-1.5 8.7-3c1.1-.3 1.5-.1 1.9.9.3.7.5 1.5.6 2.2.2 3 .5 5.9.5 8.9 0 5.3-.2 10.4-.3 15.7 0 3.4.1 7.6.1 10.1s.1 5.1.3 7.6c.2 1.7.5 3.5 1.1 5.2.4 1.3 1.8 2.1 3.2 1.8 1.9-.4 3.6-1.6 4.4-3.4 1.2-2.1 2.2-4.2 3.3-6.3 1.3-2.8 2.6-5.8 3.9-8.7zm7.9-6.6c.1 4-2 8.1-4.5 8.4.1-2.2 3.1-7.9 4.5-8.4z"/><path d="m107.3 18.2c3 .9 4 3.3 4.6 6 .6-2.7 1.9-5 4.7-6-3-1.1-4.1-3.4-4.7-6.1-.5 2.8-1.7 5-4.6 6.1z"/><path d="m109.4 9c.3-2 1.6-3.6 3.5-4.3-2.1-.7-3-2.4-3.5-4.4-.2 2-1.6 3.7-3.5 4.4 2.2.7 3.1 2.4 3.5 4.3z"/><path d="m103.5 13.6c.3.6.6 1.2.8 1.8.2-.6.5-1.2.8-1.8.4-.5.9-1 1.5-1.5-1.4-.5-1.9-1.8-2.3-3.3-1.2 2.5-1.2 2.5-2.4 3.3.6.5 1.1 1 1.6 1.5z"/><path d="m18.3 8.3h.8c1.1-.1 1.5-1.5 1.5-1.5v-2.7l.1.1v-2c0-1.9-.3-2.2-2.2-2.1h-.2c-.8 0-1.3-.7-1.3 1.2s-.1 5.1 0 5.8c.2.7.6 1.1 1.3 1.2zm-.1-7.2h1.3v6.1l-1.3-.1z"/><path d="m23.1 4.5h1.2v-1.1h-1.2v-2.3h1.5v-1h-2.6v8.1h1.1z"/><path d="m123.4 28.7c-.8-.2-1.7-.3-2.5-.2-3.2.4-6.2 1.6-8.7 3.5-1.1.7-2 1.7-2.7 2.7l.7-2c.1-.6.2-1.1.2-1.7-1.7 0-3.3 0-3.9 1.8l-1.5-.8c-1.5-.9-3.3-.4-4.2 1.1-3.1 3.9-6.5 7.6-10.1 11.1l-.7.5c.1-2.8.8-5.6 1.9-8.2 1.6-3 3.3-5.9 4.8-8.9.5-.7.9-1.5.9-2.3-2.6-1.4-4.1 0-5.3 2.1l-.3-.4c-.1-.1-.2-.3-.3-.4-1.1-1.3-3.1-1.3-4.3-.2-.8.5-1.6 1.1-2.3 1.8-2.9 2.9-5 6.5-5.9 10.5-.5 2.1-.5 4.4.1 6.5.5 1.4 1.5 1.6 2.4.5l3.2-4 1.2-1.4-.5 7.1-3.1 1.5-14.4 6.9c-3.3 1.5-5.8 4.3-7.1 7.7-1.6 4.4-.1 8.6 3.7 10.7 2.1 1 4.3 1.5 6.6 1.5 7.7 0 13.5-3.1 17.3-9.7 1.5-2.3 2.3-5 2.1-7.7-.2-1.6-.4-2.6-.5-4.7s-.3-4.2-.4-6.1l7.1-6.5c-.2 1.5-.5 2.7-.6 4.1-.2 1.5.1 3.1.7 4.4.2.3.4.5.7.6 1.3.5 2.9-.1 3.5-1.4l.6-1.3 1.1-2.1c0 .7-.2.2 0 2.2s1.7 2.8 3.4 1.7c.9-.7 1.8-1.5 2.6-2.3.1-.1.2-.1.3-.3.2-.3.1-.8-.3-1-.4-.4-.8-.1-1.2.2l-1.1.8-.9.3c-.1-.5-.1-.9 0-1.4.4-1.4.9-2.7 1.4-4l.8-2.2c0 2 1.3 3.5 3.7 4.1l1.3.2h4.1l3.3-.2c0 .5 0 .9-.1 1.4-.2.6-.5 1.2-.8 1.8-2.1 3.4-4.8 6.4-8 8.7-.7.5-1.6 1-2.4 1.3-1.4.4-2.2-.4-1.7-1.7.3-.9.8-1.8 1.5-2.5 1.6-1.7 3.2-3.3 4.7-5l.7-.9c-1.5-.8-3.4-.6-4.7.4-1.9 1.5-3.3 3.5-3.9 5.9-.4 1.2-.4 2.5 0 3.7.3 1.2 1.3 2 2.5 2 1.1 0 2.2-.3 3.2-.7 4.7-2.3 8.6-6 11.2-10.5.7-1.1 1.1-2.3 1.2-3.6 0-.1 0-.2 0-.3 0-1.2-1-2.2-2.2-2.2-1.3 0-2.6.1-3.9.3-1.5.4-3 .4-4.5 0-1.3-.3-2.1-1.5-1.8-2.7.1-.8.3-1.6.7-2.3 1.9-3.3 5.1-5 8.6-5.9l1.3-.2c-.2.6-.5 1.2-.8 1.8l-2.4 3.4-2.2 2.6.7.6c1.6.4 3.2-.1 4.4-1.2.9-1.3 1.8-2.5 2.6-3.8.5-.8.8-1.7 1.1-2.6.1-.1.1-.3.1-.4-.3-1.1-1-2-2-2.1zm-41.2 39.9c-2.6 3-6.1 5-10 5.7-2.9.7-5.9-.2-7.9-2.3-2.1-2-2.6-5.2-1.3-7.8 1.2-2.7 3.2-4.9 5.8-6.3 2-1.2 4-2.1 6.1-3.2l10-5 .6-.4c.2 1.5.3 2.5.4 4.4s.3 3.9.3 5.8c-.1 3.5-1.6 6.7-4 9.1zm4.1-31.2-3.6 3.7-.7.6-.3-.2-.1.1c.4-1.3.7-2.5 1.3-3.7 1.1-3.1 2.9-6 5.2-8.4.5-.4 1-.8 1.6-1.1 0 0 .1 0 .1-.1.6-.3 1.4 0 1.7.6-2.2 2.7-2.9 6.1-5.2 8.5zm13.5 9.5-.2-.4c.6-3.9 1.8-7.7 3.7-11.2.3-.8 1-1.4 1.8-1.6l.9.6c-1.5 4.5-3.6 8.7-6.2 12.6z"/><path d="m31.3 40c1.4 0 2.8-.1 4.1-.3l1.7-.3c0 .4-.1.7-.2 1.1-1.2 3.1-3.2 5.8-5.8 7.9l-1.4.6c-.1-.4-.2-.8-.2-1.2.1-.5.3-1 .6-1.5l2.8-3.7.7-.9-.9-.4c-1.1-.2-2.3.2-3.1 1.1-1.2 1.2-1.9 2.8-2.1 4.5-.3 1.2.1 2.6 1.1 3.4 1 .6 2.3.5 3.3-.2 3.4-2 5.9-5 7.4-8.6.3-.8.4-1.7.3-2.5 0-.1 0-.2 0-.2-.1-.9-.9-1.5-1.8-1.4l-2.8.3c-.9.2-1.8.3-2.7.3-.2 0-.4 0-.6-.1-.7-.3-1-1.1-.7-1.8.2-.7.4-1.5.8-2.1 1.3-1.8 3.1-3.1 5.3-3.7-.1.4-.2.9-.4 1.3l-2.1 3.4c-.4.5-.2 1.1.4 1.3 1.1.1 2.3-.3 3.1-1.2.7-1.2 1.3-2.4 1.8-3.7.7-1.9-.2-3.1-2.3-2.8l-1.1.2c-2.1.6-4 1.6-5.6 3-1.3 1.1-2.2 2.7-2.4 4.4-.1.3-.1.6-.1.9-.2 1.5 1.2 2.9 2.9 2.9z"/><path d="m4.7.1h.9v8.1h-.9z"/><path d="m7.7 8.2h1.2v-7.1h.9l-.1-1h-3v1.1h1z"/><path d="m14.5 46.9c.1.4.4.7.7.8 1.3.6 2.8.1 3.5-1.1l1.4-2.4.3-.6c.1.6.2 1.2.2 1.8.2 2 1.7 2.8 3.4 1.7.3-.2.6-.4.8-.7l2-3.4c.1-.1.2-.3.2-.4.1-.5-.2-1-.7-1.2-1.3.9-1.5 2.6-2.7 3.6-.4-.5-.5-1.1-.2-1.7.4-1.2.8-2.4 1.3-3.6l3.2-8.7c.1-.6.2-1.1.2-1.7-1.7 0-3.2 0-3.8 1.8l-1.6-.9c-1.8-.8-3.1-.5-4.1 1.1-2.1 2.9-3.6 6.3-4.4 9.8-.5 1.9-.4 3.9.3 5.8zm3.5-4.2c.6-2.9 1.5-5.8 2.8-8.4.3-.5.7-1 1.1-1.5.7-.8 1.2-.8 2 0-1.4 4.3-3.5 8.4-6 12.1h-.3c.1-.7.2-1.4.4-2.2z"/><path d="m.7 8.2c.7.3 1.5.2 2.1-.2.4-.4.5-1 .3-1.6h-.9v.7h-.8v-5.9h1.1v1.2h1.1c0-.3-.3.4-.3-.7 0-1.2-.2-1.5-1.5-1.5-1.4-.1-1.8 1.3-1.8 1.3v5.4c0 .5.1 1 .7 1.3z"/><path d="m11.6 8.2h1.3c-.5-2.9.6-5.5 1.1-8.2h-1l-.6 3.2h-.1l-.7-3.1h-1.2c.6 2.7 1.6 5.3 1.2 8.1z"/></svg>