<svg width="141" height="31" viewBox="0 0 141 31" fill="none" xmlns="http://www.w3.org/2000/svg">
<path fill-rule="evenodd" clip-rule="evenodd" d="M92.8774 20.2643C90.0852 20.2643 89.9352 17.9828 89.9352 15.67C89.9352 13.3886 90.1155 11.1072 92.8774 11.1072C95.6393 11.1072 95.7894 13.5096 95.7894 15.67C95.7894 17.8328 95.6696 20.2643 92.8774 20.2643ZM95.7898 9.87612C94.6788 8.82556 93.4781 8.13452 91.9773 8.13452C90.416 8.1054 88.9444 8.79532 88.0148 10.0262C87.2039 11.0768 86.9631 12.0075 86.9631 15.6408C86.9631 19.2729 87.2039 20.2339 88.0148 21.2844C88.9444 22.5153 90.416 23.2366 91.9773 23.2064C93.4176 23.2064 94.8288 22.5758 95.7898 21.495V23.026H98.7623V2.34076H95.7898V9.87612Z" fill="#162020"/>
<path fill-rule="evenodd" clip-rule="evenodd" d="M109.78 19.1538L109.51 19.4238C108.189 20.5953 106.177 20.4743 105.006 19.1538C104.465 18.3732 104.286 17.7729 104.286 15.6415C104.286 13.509 104.436 12.939 105.006 12.1583L105.276 11.8884C106.598 10.7169 108.609 10.8378 109.78 12.1583C110.291 12.9692 110.501 13.5393 110.501 15.6706C110.501 17.802 110.35 18.3732 109.78 19.1538ZM107.408 8.1349C105.096 8.1349 103.746 9.1261 102.906 10.0266C101.764 11.2575 101.314 12.4883 101.314 15.6703C101.314 18.8533 102.065 20.4437 102.906 21.3453C103.746 22.2458 105.096 23.237 107.408 23.237C109.72 23.237 110.771 22.6064 111.912 21.3453C113.053 20.0842 113.503 18.8231 113.503 15.6703C113.503 12.5186 112.753 10.9271 111.912 10.0266C111.072 9.1261 109.72 8.1349 107.408 8.1349Z" fill="#162020"/>
<path fill-rule="evenodd" clip-rule="evenodd" d="M124.671 19.1538L124.401 19.4238C123.081 20.5953 121.069 20.4743 119.898 19.1538C119.357 18.3732 119.177 17.7729 119.177 15.6415C119.177 13.509 119.327 12.939 119.898 12.1583L120.167 11.8884C121.489 10.7169 123.501 10.8378 124.671 12.1583C125.182 12.9692 125.392 13.5393 125.392 15.6706C125.392 17.802 125.241 18.3732 124.671 19.1538ZM122.269 8.13528C120.558 8.0748 118.937 8.76584 117.797 10.027C116.655 11.2578 116.205 12.4887 116.205 15.6706C116.205 18.8537 116.986 20.4441 117.797 21.3457C118.606 22.2462 119.958 23.2374 122.269 23.2374C124.582 23.2374 125.632 22.6068 126.772 21.3457C127.914 20.0846 128.364 18.8234 128.364 15.6706C128.364 12.519 127.613 10.9274 126.772 10.027C125.932 9.12648 124.582 8.13528 122.269 8.13528Z" fill="#162020"/>
<path fill-rule="evenodd" clip-rule="evenodd" d="M80.4786 14.3198L78.0169 14.1395C76.5161 14.0499 76.0658 13.78 76.0658 12.7585C76.0658 11.7382 76.6964 10.9867 78.5881 10.9867C80.0205 10.9889 81.4138 11.4638 82.5506 12.3385L84.3818 10.1467C82.9404 8.91582 81.1999 8.13518 78.5881 8.13518C75.4644 8.13518 73.0631 9.66622 73.0631 12.6689C73.0631 15.1901 74.8641 16.6315 77.3269 16.8409L79.9388 17.0515C80.9591 17.1713 81.7397 17.2923 81.7397 18.5232C81.7397 19.7541 80.5089 20.3846 78.8277 20.3846C77.0861 20.444 75.3748 19.7832 74.1439 18.5232L72.1324 20.6243C73.874 22.3054 76.1857 23.2664 78.6172 23.2664C82.0701 23.2664 84.7425 21.5853 84.7425 18.7326C84.7425 16.3918 83.5407 14.5001 80.4786 14.3198Z" fill="#162020"/>
<mask id="gd-09827436" mask-type="alpha" maskUnits="userSpaceOnUse" x="130" y="8" width="11" height="16">
<path fill-rule="evenodd" clip-rule="evenodd" d="M130.495 8.1012H140.463V23.0257H130.495V8.1012Z" fill="white"/>
</mask>
<g mask="url(#gd-09827436)">
<path fill-rule="evenodd" clip-rule="evenodd" d="M137.371 8.10503C135.9 8.04455 134.489 8.70535 133.558 9.84663H133.498V8.28535H130.495V23.0257H133.498V14.1698C133.498 12.0082 134.879 11.0775 136.349 11.0775C137.067 11.0685 137.761 11.325 138.301 11.7977L140.463 9.24631C139.592 8.52503 138.512 8.10503 137.371 8.10503Z" fill="#162020"/>
</g>
<mask id="mask1" mask-type="alpha" maskUnits="userSpaceOnUse" x="0" y="0" width="19" height="31">
<path fill-rule="evenodd" clip-rule="evenodd" d="M0.462769 0.630138H18.3633V30.6514H0.462769V0.630138Z" fill="white"/>
</mask>
<g mask="url(#mask1)">
<path fill-rule="evenodd" clip-rule="evenodd" d="M2.48169 0.749684C2.06169 0.869524 1.70105 1.08008 1.40089 1.38024C1.10073 1.71064 0.859928 2.07128 0.680728 2.49128C0.500408 2.97176 0.439928 3.45224 0.470168 3.96184V28.5806C0.530648 29.0006 0.680728 29.3914 0.920408 29.7207C1.10073 30.0209 1.37065 30.2617 1.67081 30.4118C2.00121 30.5618 2.36185 30.6514 2.72137 30.6514C3.11225 30.6514 3.53225 30.5618 3.89289 30.4118L16.6217 25.1881C16.8625 25.0974 17.1022 24.9182 17.2825 24.7367C17.493 24.5273 17.6431 24.2876 17.7932 24.0468C17.9433 23.7769 18.0329 23.507 18.1225 23.2068C18.2434 22.9066 18.3028 22.6065 18.3028 22.2761V6.334L15.3012 6.15368V20.5345C15.3314 20.8044 15.3314 21.0743 15.3012 21.3454C15.2105 21.585 15.1209 21.8247 14.9708 22.0655C14.851 22.2761 14.7009 22.4553 14.5206 22.6367C14.3402 22.7857 14.1297 22.9066 13.9202 22.9962L5.75433 25.9687V6.60392C5.72409 6.2444 5.75433 5.914 5.81369 5.55336C5.90441 5.2532 6.08473 4.95304 6.29417 4.71336C6.47449 4.5028 6.71417 4.32248 6.98521 4.20264C7.25513 4.0828 7.55529 4.02232 7.85545 4.0828L18.3633 5.2532V3.36264L3.80217 0.660084C3.35193 0.599604 2.90169 0.629844 2.48169 0.749684Z" fill="#162020"/>
</g>
<path fill-rule="evenodd" clip-rule="evenodd" d="M66.6985 14.2596L64.2367 14.0793C62.7359 13.9897 62.2857 13.7198 62.2857 12.6983C62.2857 11.678 62.9162 10.9276 64.8079 10.9276C66.2404 10.9287 67.6337 11.4047 68.7705 12.2783L70.6017 10.147C69.1602 8.91609 67.4197 8.13545 64.8079 8.13545C61.6853 8.13545 59.3132 10.0865 59.3132 12.639C59.3132 15.1903 61.1141 16.6318 63.5468 16.8412L66.1586 17.0518C67.1789 17.1716 67.9596 17.2926 67.9596 18.5235C67.9596 19.7532 66.7287 20.3838 65.0476 20.3838C63.306 20.4443 61.6249 19.7835 60.394 18.5235L58.3522 20.5641C60.0938 22.2452 62.4055 23.2062 64.837 23.2062C68.29 23.2062 70.9623 21.5251 70.9623 18.6724C70.9623 16.3316 69.7314 14.4702 66.6985 14.2596Z" fill="#162020"/>
<path fill-rule="evenodd" clip-rule="evenodd" d="M40.7296 19.2433V2.34138H37.7268V19.483C37.7268 22.1251 39.3486 23.0558 41.5102 23.0558H42.8307V20.2647H41.8104C41.0902 20.2647 40.7296 19.9343 40.7296 19.2433Z" fill="#162020"/>
<path fill-rule="evenodd" clip-rule="evenodd" d="M31.6627 19.1237C31.5126 19.3163 31.339 19.4899 31.1463 19.64C29.8527 20.648 27.9879 20.4173 26.9788 19.1237C26.439 18.4326 26.4087 18.0731 26.4087 15.701C26.4087 13.3288 26.439 12.939 26.9788 12.248C27.13 12.0554 27.3025 11.8829 27.4951 11.7317C28.7887 10.7237 30.6547 10.9555 31.6627 12.248C32.1734 12.9088 32.2327 13.359 32.2327 15.701C32.2327 18.0429 32.2025 18.4326 31.6627 19.1237ZM32.2632 9.87695C31.1824 8.70543 29.9515 8.13535 28.4507 8.13535C26.9499 8.10511 25.5084 8.76591 24.5475 9.93631C23.7064 11.0171 23.4364 11.5872 23.4364 15.6707C23.4364 19.7531 23.7064 20.3243 24.5475 21.4051C25.5084 22.5766 26.9499 23.2363 28.4507 23.2072C29.891 23.177 31.272 22.5766 32.2632 21.4958L32.2329 23.056C32.2329 25.128 30.852 26.239 28.8707 26.239C27.7596 26.1786 26.7393 25.6981 25.9889 24.8872L23.6772 26.7195C24.9977 28.2203 26.9196 29.2104 28.8113 29.2104C32.2027 29.2104 35.2356 27.1698 35.2356 22.7256V8.34479H32.2632V9.87695Z" fill="#162020"/>
<path fill-rule="evenodd" clip-rule="evenodd" d="M53.5489 17.8623C53.5489 20.1438 52.7089 20.4137 50.2169 20.4137C48.2054 20.4137 47.4248 19.6342 47.4248 18.5534C47.4248 17.4715 48.2345 16.7815 49.9773 16.7815H53.5187H53.5489V17.8623ZM50.3365 8.16553C48.1145 8.16553 46.4938 8.73561 45.3525 10.2969L47.6945 12.0687C48.2052 11.2276 48.9253 10.9274 50.4866 10.9274C52.618 10.9274 53.5185 11.4382 53.5185 12.8191V14.3502H49.4058C46.2228 14.3502 44.6021 16.1511 44.6021 18.7025C44.6021 21.255 46.5241 23.206 49.8258 23.206C51.8373 23.206 52.8588 22.7558 53.4591 21.7354H53.5185V23.0559H56.4909V13.0286C56.4909 9.36617 53.9687 8.16553 50.3365 8.16553Z" fill="#162020"/>
</svg>
