<svg fill="none" height="80" viewBox="0 0 144 80" width="144" xmlns="http://www.w3.org/2000/svg" xmlns:xlink="http://www.w3.org/1999/xlink"><mask id="a" height="19" maskUnits="userSpaceOnUse" width="23" x="122" y="22"><path clip-rule="evenodd" d="m122.719 22h21.281v18.8173h-21.281z" fill="#fff" fill-rule="evenodd"/></mask><mask id="b" height="19" maskUnits="userSpaceOnUse" width="19" x="0" y="22"><path clip-rule="evenodd" d="m0 22.3953h18.6847v18.0829h-18.6847z" fill="#fff" fill-rule="evenodd"/></mask><mask id="c" height="19" maskUnits="userSpaceOnUse" width="24" x="24" y="22"><path clip-rule="evenodd" d="m24.0464 22h23.9351v18.8737h-23.9351z" fill="#fff" fill-rule="evenodd"/></mask><path clip-rule="evenodd" d="m103.244 55.0578c-1.411-.0565-2.766-.1131-2.766-.9607 0-.9041 1.694-.9607 2.258-.9607 1.186 0 2.315.1696 3.218.3956l.226-.9041c-1.016-.2261-2.202-.3956-3.274-.3956-1.468 0-3.3872.2825-3.3872 1.9213s1.9192 1.7518 3.6692 1.8083c1.58.113 2.484.113 2.484.8476 0 .9042-1.75 1.0172-2.484 1.0172-1.298 0-2.427-.226-3.6139-.5651l-.2811.8477c1.185.3955 2.484.6216 3.669.6216 1.581 0 3.669-.3391 3.669-1.9779.057-1.4692-1.637-1.6387-3.387-1.6952z" fill="#000" fill-rule="evenodd"/><path clip-rule="evenodd" d="m89.0763 52.3453h-.9596v6.2726h6.4351v-.9042h-5.4755z" fill="#000" fill-rule="evenodd"/><g mask="url(#a)"><path clip-rule="evenodd" d="m134.065 29.911c-3.443-.1695-7.338-.339-7.338-2.3168 0-2.2039 4.574-2.3734 5.984-2.3734 3.782 0 6.944.5651 8.918 1.0171l.339.0566.734-3.1646h-.339c-2.879-.6781-6.322-1.1301-9.201-1.1301-6.435 0-9.822 1.9778-9.822 5.7639 0 4.9163 5.589 5.1988 10.557 5.4249h.168c4.347.226 6.493.4521 6.493 1.9213 0 1.9213-3.557 2.5429-6.661 2.5429-3.388 0-6.435-.5086-9.936-1.6388l-.337-.113-.905 3.0515.339.113c3.33 1.1302 6.887 1.7518 10.386 1.7518 3.953 0 10.556-.7346 10.556-5.8769-.056-4.6338-5.758-4.8598-9.935-5.0294z" fill="#000" fill-rule="evenodd"/></g><g clip-rule="evenodd" fill="#000" fill-rule="evenodd"><path d="m76.6574 55.849h5.2496v-.9041h-5.2496v-1.6953h5.7577v-.9041h-6.7173v6.2725h6.8866v-.9042h-5.927z"/><path d="m110.583 30.0243-2.653 5.7639-2.201-5.7074-3.049-7.6853h-3.6123l-3.0494 7.6288-2.1439 5.7639-2.7095-5.7639-3.6691-7.6288h-4.009l8.7506 18.083h3.4422l3.0494-7.8548 2.145-5.9335 2.145 5.9335 3.105 7.8548h3.443l8.693-18.083h-3.951z"/><path d="m54.3036 57.8266c-2.145 0-3.1611-1.0172-3.1611-2.3734s1.0161-2.3734 3.1611-2.3734 3.1611 1.0172 3.1611 2.3734-1.0161 2.3734-3.1611 2.3734zm0-5.5944c-2.7095 0-4.1771 1.4127-4.1771 3.2775s1.4112 3.2775 4.1771 3.2775c2.7095 0 4.1772-1.4127 4.1772-3.2775s-1.4677-3.2775-4.1772-3.2775z"/></g><g mask="url(#b)"><path clip-rule="evenodd" d="m3.33062 22.3953h-3.33159656v18.0829h18.68547656v-3.221h-15.35388z" fill="#000" fill-rule="evenodd"/></g><path clip-rule="evenodd" d="m76.996 37.2574h-16.5957v-4.4642h14.62v-3.221h-14.62v-4.0122h16.0877v-3.1645h-19.4182v18.083h19.9262z" fill="#000" fill-rule="evenodd"/><path clip-rule="evenodd" d="m43.5779 54.9446h-5.3614v-2.5994h-.9597v6.2725h.9597v-2.7689h5.3614v2.7689h.9596v-6.2725h-.9596z" fill="#000" fill-rule="evenodd"/><g mask="url(#c)"><path clip-rule="evenodd" d="m36.0146 37.6527c-5.3626 0-8.5237-2.3169-8.5237-6.216 0-3.8992 3.2175-6.216 8.5237-6.216 5.3625 0 8.5225 2.3168 8.5225 6.216 0 3.8991-3.16 6.216-8.5225 6.216zm-.0001-15.6531c-7.3382 0-11.9681 3.6166-11.9681 9.4371 0 5.8204 4.5734 9.437 11.9681 9.437s11.967-3.6166 11.967-9.437c0-5.8205-4.5723-9.4371-11.967-9.4371z" fill="#000" fill-rule="evenodd"/></g><path clip-rule="evenodd" d="m63.2227 53.2497h3.1046v5.3684h.9596v-5.3684h3.1047v-.9041h-7.1689z" fill="#000" fill-rule="evenodd"/></svg>