<svg width="440" height="266" viewBox="0 0 440 266" fill="none" xmlns="http://www.w3.org/2000/svg">
<mask id="mask0_3269_13953" style="mask-type:alpha" maskUnits="userSpaceOnUse" x="0" y="0" width="440" height="266">
<rect width="440" height="265.18" fill="#C4C4C4"/>
</mask>
<g mask="url(#mask0_3269_13953)">
<rect x="-60.136" y="-0.436523" width="77.7279" height="77.7279" rx="8.47692" fill="white"/>
<mask id="mask1_3269_13953" style="mask-type:alpha" maskUnits="userSpaceOnUse" x="-48" y="15" width="53" height="47">
<path d="M-12.7397 15.6841H-29.8045L-47.4207 46.3874L-39.0929 61.1704H-3.45129L4.87645 46.3874L-12.7397 15.6841ZM-30.5293 46.3874L-21.2721 30.4103L-12.0149 46.3874H-30.5293Z" fill="white"/>
</mask>
<g mask="url(#mask1_3269_13953)">
<path d="M-39.0906 46.3877V61.1707H-3.44896L4.87878 46.3877H-39.0906Z" fill="#4285F4"/>
<path d="M-30.6938 46.672H4.39069L4.87671 46.3877H-30.529L-30.6938 46.672Z" fill="white" fill-opacity="0.2"/>
<path d="M4.39276 46.672L-3.61381 60.8864H-38.9257L-39.0906 61.1707H-3.44896L4.87878 46.3877L4.39276 46.672Z" fill="#1A237E" fill-opacity="0.2"/>
</g>
<mask id="mask2_3269_13953" style="mask-type:alpha" maskUnits="userSpaceOnUse" x="-48" y="15" width="53" height="47">
<path d="M-12.7397 15.6841H-29.8045L-47.4207 46.3874L-39.0929 61.1704H-3.45129L4.87645 46.3874L-12.7397 15.6841ZM-30.5293 46.3874L-21.2721 30.4103L-12.0149 46.3874H-30.5293Z" fill="white"/>
</mask>
<g mask="url(#mask2_3269_13953)">
<path d="M-12.7411 15.6841H-29.8059L-12.0164 46.3874H4.87502L-12.7411 15.6841Z" fill="#FFCD40"/>
<path d="M-12.7411 15.6841H-29.8059L-29.3142 15.9684H-12.906L4.54817 46.3874H4.87502L-12.7411 15.6841Z" fill="white" fill-opacity="0.2"/>
</g>
<path d="M-12.7397 15.6841H-29.8045L-47.4207 46.3874L-39.0929 61.1704H-3.45129L4.87645 46.3874L-12.7397 15.6841ZM-30.5293 46.3874L-21.2721 30.4103L-12.0149 46.3874H-30.5293Z" fill="url(#paint0_radial_3269_13953)"/>
<rect x="33.5918" y="-0.436523" width="77.7279" height="77.7279" rx="8.47692" fill="white"/>
<path d="M70.4647 29.0791V58.2449H46.3071L70.4647 29.0791Z" fill="#03363D"/>
<path d="M70.4647 18.6099C70.4647 21.8134 69.1921 24.8856 66.9269 27.1508C64.6617 29.416 61.5894 30.6886 58.3859 30.6886C55.1824 30.6886 52.1101 29.416 49.8449 27.1508C47.5797 24.8856 46.3071 21.8134 46.3071 18.6099H70.4647Z" fill="#03363D"/>
<path d="M74.4443 47.7757V18.6099H98.6045L74.4443 47.7757Z" fill="#03363D"/>
<path d="M89.0815 54.7865C88.941 54.7788 88.803 54.8247 88.6951 54.9149C88.5872 55.0051 88.5175 55.1328 88.5 55.2723H89.6241C89.6161 55.1361 89.5546 55.0086 89.4529 54.9175C89.3513 54.8265 89.2177 54.7794 89.0815 54.7865Z" fill="#03363D"/>
<path d="M86.5231 46.1631C83.3194 46.1638 80.2471 47.4369 77.982 49.7025C75.7168 51.9682 74.4443 55.0407 74.4443 58.2444H98.6019C98.6022 56.658 98.29 55.0871 97.6832 53.6213C97.0763 52.1555 96.1866 50.8237 95.065 49.7018C93.9433 48.5799 92.6117 47.6899 91.146 47.0828C89.6804 46.4756 88.1095 46.1631 86.5231 46.1631Z" fill="#03363D"/>
<rect x="127.32" y="-0.436523" width="77.7279" height="77.7279" rx="8.47692" fill="white"/>
<path fill-rule="evenodd" clip-rule="evenodd" d="M161.798 24.1168C163.484 22.3603 165.833 21.2696 168.43 21.2696C171.882 21.2696 174.894 23.1948 176.498 26.0529C177.933 25.4119 179.487 25.0815 181.059 25.0834C187.285 25.0834 192.332 30.175 192.332 36.4568C192.332 42.7386 187.285 47.8302 181.059 47.8302C180.298 47.8302 179.555 47.7541 178.837 47.6094C177.425 50.1278 174.733 51.8299 171.643 51.8299C170.35 51.8299 169.127 51.5325 168.038 51C166.606 54.3689 163.27 56.7299 159.382 56.7299C155.334 56.7299 151.883 54.1675 150.559 50.5751C149.969 50.6995 149.367 50.7622 148.764 50.7621C143.943 50.7627 140.035 46.8138 140.035 41.9425C140.032 40.3987 140.433 38.8809 141.198 37.5405C141.964 36.2 143.068 35.0837 144.4 34.3028C143.847 33.0298 143.563 31.6565 143.565 30.2688C143.565 24.6659 148.112 20.1245 153.722 20.1245C155.285 20.1227 156.827 20.4821 158.228 21.1746C159.629 21.8671 160.851 22.8741 161.798 24.1168Z" fill="#00A1E0"/>
<path fill-rule="evenodd" clip-rule="evenodd" d="M147.61 39.1081L147.822 38.5207C147.855 38.42 147.932 38.4532 147.962 38.4721C148.021 38.507 148.064 38.5384 148.14 38.583C148.763 38.9771 149.341 38.9811 149.521 38.9811C149.988 38.9811 150.277 38.734 150.277 38.4006V38.3834C150.277 38.0208 149.831 37.8835 149.316 37.7257L149.201 37.6891C148.494 37.4877 147.737 37.1966 147.737 36.3009V36.2826C147.737 35.4327 148.423 34.8396 149.404 34.8396L149.512 34.8384C150.088 34.8384 150.645 35.006 151.049 35.2508C151.086 35.2737 151.121 35.316 151.101 35.372L150.883 35.9595C150.845 36.0595 150.74 35.9932 150.74 35.9932C150.319 35.7737 149.853 35.6541 149.378 35.6437C148.962 35.6437 148.694 35.8645 148.694 36.1642V36.1831C148.694 36.5326 149.153 36.6818 149.685 36.8551L149.776 36.8837C150.481 37.1068 151.234 37.4157 151.234 38.265V38.2827C151.234 39.2007 150.567 39.771 149.495 39.771C148.968 39.771 148.464 39.6898 147.931 39.4067C147.83 39.3483 147.731 39.298 147.632 39.2265C147.622 39.2116 147.577 39.1939 147.61 39.1081H147.61ZM163.314 39.1081L163.527 38.5207C163.557 38.4246 163.647 38.4601 163.667 38.4721C163.725 38.5081 163.769 38.5384 163.844 38.583C164.469 38.9771 165.045 38.9811 165.227 38.9811C165.692 38.9811 165.982 38.734 165.982 38.4006V38.3834C165.982 38.0208 165.536 37.8835 165.021 37.7257L164.907 37.6891C164.198 37.4877 163.441 37.1966 163.441 36.3009V36.2826C163.441 35.4327 164.128 34.8396 165.109 34.8396L165.216 34.8384C165.793 34.8384 166.35 35.006 166.755 35.2508C166.79 35.2737 166.826 35.316 166.806 35.372C166.786 35.4241 166.608 35.9045 166.589 35.9595C166.549 36.0595 166.446 35.9932 166.446 35.9932C166.024 35.7736 165.558 35.654 165.083 35.6437C164.667 35.6437 164.399 35.8645 164.399 36.1642V36.1831C164.399 36.5326 164.857 36.6818 165.389 36.8551L165.481 36.8837C166.186 37.1068 166.938 37.4157 166.938 38.265V38.2827C166.938 39.2007 166.272 39.771 165.2 39.771C164.672 39.771 164.168 39.6898 163.636 39.4067C163.535 39.3483 163.436 39.298 163.337 39.2265C163.326 39.2116 163.281 39.1939 163.314 39.1081ZM174.931 36.3461C175.019 36.6412 175.062 36.9655 175.062 37.3081C175.062 37.6513 175.019 37.9745 174.931 38.2696C174.85 38.5542 174.712 38.8191 174.525 39.048C174.337 39.2703 174.102 39.4474 173.836 39.5662C173.562 39.6921 173.239 39.755 172.876 39.755C172.514 39.755 172.19 39.6921 171.917 39.5662C171.651 39.4474 171.416 39.2703 171.228 39.048C171.041 38.8192 170.902 38.5545 170.821 38.2702C170.731 37.9575 170.687 37.6335 170.69 37.3081C170.69 36.965 170.734 36.6412 170.821 36.3461C170.909 36.0487 171.046 35.7867 171.227 35.5682C171.416 35.345 171.651 35.1665 171.917 35.0455C172.191 34.9173 172.513 34.8527 172.876 34.8527C173.24 34.8527 173.562 34.9173 173.836 35.0455C174.11 35.173 174.342 35.3486 174.525 35.5682C174.707 35.7867 174.844 36.0487 174.931 36.3461ZM174.036 37.3081C174.036 36.7894 173.94 36.3816 173.749 36.0956C173.56 35.8119 173.274 35.6746 172.876 35.6746C172.478 35.6746 172.195 35.8119 172.008 36.0956C171.821 36.3816 171.726 36.7894 171.726 37.3081C171.726 37.8263 171.821 38.237 172.009 38.5253C172.195 38.8124 172.478 38.9514 172.876 38.9514C173.274 38.9514 173.56 38.8118 173.749 38.5253C173.939 38.237 174.036 37.8263 174.036 37.3081ZM182.285 38.8124L182.505 39.4198C182.533 39.4942 182.469 39.5268 182.469 39.5268C182.13 39.6583 181.659 39.7521 181.201 39.7521C180.424 39.7521 179.829 39.5285 179.432 39.0869C179.038 38.6465 178.836 38.0477 178.836 37.3047C178.836 36.961 178.886 36.6355 178.983 36.3409C179.08 36.0435 179.226 35.7816 179.418 35.5631C179.618 35.3385 179.864 35.1601 180.14 35.0403C180.426 34.9128 180.762 34.8487 181.137 34.8487C181.391 34.8487 181.616 34.8641 181.809 34.8927C182.016 34.9248 182.291 34.9991 182.407 35.0443C182.428 35.0523 182.487 35.0809 182.463 35.1501C182.378 35.3886 182.321 35.5442 182.242 35.7616C182.208 35.8542 182.138 35.8233 182.138 35.8233C181.844 35.7307 181.561 35.6883 181.192 35.6883C180.749 35.6883 180.416 35.8359 180.199 36.1247C179.979 36.4159 179.856 36.7974 179.854 37.3047C179.853 37.8612 179.992 38.2736 180.239 38.5287C180.486 38.7832 180.83 38.9119 181.264 38.9119C181.439 38.9119 181.605 38.9005 181.754 38.877C181.902 38.8536 182.04 38.8078 182.171 38.7569C182.171 38.7569 182.255 38.7254 182.285 38.8124ZM186.867 36.1774C187.062 36.8603 186.96 37.45 186.956 37.4826C186.949 37.5604 186.869 37.5615 186.869 37.5615L183.838 37.5592C183.857 38.0196 183.967 38.3457 184.19 38.567C184.409 38.7838 184.757 38.9228 185.228 38.9233C185.947 38.9251 186.255 38.7804 186.472 38.6997C186.472 38.6997 186.555 38.67 186.587 38.7523L186.784 39.3077C186.824 39.4009 186.792 39.4335 186.758 39.4524C186.569 39.5571 186.108 39.7527 185.232 39.755C184.807 39.7567 184.437 39.6961 184.132 39.5777C183.842 39.4704 183.581 39.2975 183.37 39.0726C183.167 38.852 183.017 38.5887 182.93 38.3022C182.836 37.9883 182.79 37.6621 182.793 37.3344C182.793 36.9913 182.837 36.6652 182.926 36.3673C183.014 36.067 183.152 35.8022 183.336 35.5797C183.526 35.3526 183.765 35.1709 184.034 35.0477C184.312 34.9168 184.656 34.8527 185.035 34.8527C185.359 34.8527 185.656 34.9225 185.902 35.0289C186.092 35.1101 186.283 35.2571 186.479 35.4676C186.602 35.6003 186.79 35.8908 186.867 36.1774ZM183.852 36.8105H186.014C185.992 36.5326 185.938 36.2832 185.813 36.0956C185.623 35.8119 185.361 35.6557 184.964 35.6557C184.566 35.6557 184.283 35.8119 184.096 36.0956C183.974 36.2832 183.895 36.5223 183.852 36.8105H183.852ZM162.59 36.1774C162.784 36.8603 162.684 37.45 162.681 37.4826C162.673 37.5604 162.593 37.5615 162.593 37.5615L159.561 37.5592C159.581 38.0196 159.69 38.3457 159.914 38.567C160.133 38.7838 160.48 38.9228 160.951 38.9233C161.671 38.9251 161.979 38.7804 162.196 38.6997C162.196 38.6997 162.279 38.67 162.31 38.7523L162.508 39.3077C162.548 39.4009 162.516 39.4335 162.483 39.4524C162.292 39.5571 161.831 39.7527 160.956 39.755C160.53 39.7567 160.16 39.6961 159.856 39.5777C159.566 39.4702 159.305 39.2974 159.093 39.0726C158.891 38.8518 158.741 38.5885 158.654 38.3022C158.56 37.9884 158.513 37.6621 158.516 37.3344C158.516 36.9913 158.561 36.6652 158.649 36.3673C158.731 36.0797 158.871 35.8118 159.06 35.5797C159.25 35.3528 159.488 35.1711 159.757 35.0477C160.036 34.9168 160.381 34.8527 160.758 34.8527C161.057 34.852 161.352 34.9119 161.627 35.0289C161.816 35.1101 162.007 35.2571 162.203 35.4676C162.326 35.6003 162.514 35.8908 162.59 36.1774ZM159.575 36.8105H161.738C161.715 36.5326 161.661 36.2832 161.537 36.0956C161.348 35.8119 161.085 35.6557 160.687 35.6557C160.289 35.6557 160.006 35.8119 159.82 36.0956C159.697 36.2832 159.618 36.5223 159.574 36.8105H159.575ZM154.229 36.6658C154.229 36.6658 154.468 36.687 154.729 36.7247V36.5966C154.729 36.1922 154.645 36.0018 154.48 35.8742C154.311 35.745 154.058 35.678 153.731 35.678C153.731 35.678 152.993 35.6689 152.409 35.9858C152.383 36.0018 152.36 36.0109 152.36 36.0109C152.36 36.0109 152.287 36.0367 152.261 35.9617L152.046 35.3852C152.013 35.3023 152.073 35.2645 152.073 35.2645C152.346 35.0518 153.007 34.9231 153.007 34.9231C153.276 34.8759 153.547 34.8508 153.82 34.8481C154.425 34.8481 154.893 34.9888 155.212 35.2674C155.531 35.5471 155.694 35.9978 155.694 36.6052L155.695 39.3781C155.695 39.3781 155.702 39.4581 155.626 39.4764C155.626 39.4764 155.514 39.5073 155.414 39.5308C155.313 39.5542 154.948 39.6286 154.65 39.6789C154.345 39.7299 154.037 39.7555 153.729 39.7555C153.434 39.7555 153.164 39.7281 152.926 39.6738C152.705 39.6273 152.495 39.5362 152.309 39.4061C152.14 39.2834 152.005 39.1204 151.915 38.9319C151.821 38.7415 151.775 38.5087 151.775 38.2399C151.775 37.9762 151.83 37.7411 151.937 37.5409C152.045 37.3419 152.192 37.1731 152.377 37.041C152.569 36.9062 152.783 36.8069 153.009 36.7476C153.246 36.6847 153.497 36.6521 153.756 36.6521C153.947 36.6521 154.106 36.6561 154.229 36.6658ZM153.023 38.7958C153.021 38.7952 153.295 39.0103 153.912 38.9725C154.345 38.9462 154.73 38.8639 154.73 38.8639V37.4854C154.73 37.4854 154.342 37.422 153.907 37.4157C153.29 37.4082 153.027 37.6353 153.028 37.6347C152.846 37.764 152.758 37.9556 152.758 38.221C152.758 38.3908 152.788 38.5235 152.849 38.6162C152.888 38.6774 152.904 38.7003 153.023 38.7958ZM178.678 35.1038C178.65 35.1867 178.503 35.602 178.45 35.7398C178.43 35.7924 178.398 35.8285 178.339 35.8222C178.339 35.8222 178.165 35.7821 178.006 35.7821C177.897 35.7821 177.741 35.7959 177.6 35.8393C177.459 35.8827 177.331 35.9599 177.226 36.0641C177.115 36.1711 177.025 36.3215 176.96 36.5102C176.894 36.7001 176.86 37.0021 176.86 37.3053V39.5634C176.86 39.5754 176.857 39.5874 176.853 39.5986C176.848 39.6097 176.841 39.6199 176.833 39.6284C176.824 39.637 176.814 39.6438 176.803 39.6484C176.792 39.6531 176.78 39.6555 176.768 39.6555H175.972C175.96 39.6556 175.948 39.6534 175.937 39.6488C175.926 39.6443 175.915 39.6376 175.907 39.6291C175.898 39.6206 175.891 39.6105 175.886 39.5993C175.881 39.5881 175.879 39.5761 175.879 39.5639V35.0426C175.879 34.9917 175.916 34.9511 175.967 34.9511H176.743C176.794 34.9511 176.831 34.9917 176.831 35.0426V35.4121C176.947 35.2565 177.155 35.1192 177.343 35.0346C177.532 34.9488 177.743 34.8859 178.125 34.9088C178.323 34.9208 178.581 34.9751 178.633 34.9951C178.643 34.9992 178.653 35.0053 178.66 35.013C178.668 35.0207 178.674 35.0298 178.679 35.04C178.683 35.0501 178.685 35.0609 178.685 35.0719C178.685 35.0829 178.683 35.0937 178.678 35.1038ZM171.203 33.0087C171.224 33.0173 171.282 33.0453 171.259 33.114L171.026 33.7505C171.007 33.7986 170.994 33.8272 170.895 33.7974C170.764 33.7563 170.628 33.7351 170.491 33.7345C170.371 33.7345 170.262 33.75 170.166 33.782C170.07 33.8128 169.983 33.8666 169.912 33.9387C169.818 34.0296 169.745 34.1401 169.699 34.2624C169.588 34.5827 169.545 34.9242 169.539 34.9459H170.508C170.59 34.9459 170.615 34.9837 170.607 35.0437L170.494 35.674C170.476 35.7656 170.393 35.7621 170.393 35.7621H169.394L168.712 39.6263C168.653 39.9728 168.564 40.3135 168.445 40.6444C168.338 40.9241 168.228 41.1282 168.051 41.3233C167.899 41.4978 167.707 41.6319 167.491 41.7134C167.281 41.7906 167.026 41.83 166.747 41.83C166.615 41.83 166.472 41.8272 166.303 41.7871C166.209 41.7657 166.116 41.7385 166.025 41.7059C165.988 41.6928 165.958 41.6453 165.98 41.5847C166 41.5246 166.18 41.0333 166.204 40.9687C166.235 40.8909 166.314 40.9206 166.314 40.9206C166.368 40.9435 166.405 40.9584 166.477 40.9727C166.549 40.987 166.647 40.9996 166.72 40.9996C166.853 40.9996 166.973 40.9835 167.077 40.9481C167.203 40.9075 167.277 40.8337 167.354 40.7353C167.434 40.6318 167.499 40.4917 167.566 40.3035C167.633 40.113 167.694 39.8614 167.747 39.5565L168.427 35.7627H167.757C167.677 35.7627 167.65 35.7249 167.659 35.6643L167.771 35.034C167.789 34.9425 167.874 34.9459 167.874 34.9459H168.561L168.598 34.7412C168.701 34.1326 168.905 33.6699 169.207 33.3662C169.511 33.0602 169.943 32.9058 170.491 32.9058C170.647 32.9058 170.786 32.9161 170.903 32.9372C171.018 32.959 171.106 32.979 171.203 33.0087ZM157.661 39.5634C157.661 39.6148 157.626 39.6555 157.574 39.6555H156.771C156.719 39.6555 156.684 39.6143 156.684 39.5639V33.0934C156.684 33.0436 156.72 33.0024 156.77 33.0024H157.574C157.626 33.0024 157.661 33.0436 157.661 33.0939V39.5634Z" fill="white"/>
<rect x="221.048" y="-0.436523" width="77.7279" height="77.7279" rx="8.47692" fill="white"/>
<g clip-path="url(#clip0_3269_13953)">
<path d="M259.911 64.5759C274.353 64.5759 286.06 52.8688 286.06 38.4274C286.06 23.9859 274.353 12.2788 259.911 12.2788C245.47 12.2788 233.763 23.9859 233.763 38.4274C233.763 52.8688 245.47 64.5759 259.911 64.5759Z" fill="#20C4CB"/>
<path d="M266.688 42.8032C265.621 43.9772 264.127 44.5642 263.433 44.5642C262.633 44.5642 262.206 44.0839 262.099 43.3368C262.046 43.07 262.099 42.7498 262.153 42.483C262.419 40.8287 263.006 39.7614 263.006 39.4946C263.006 39.3879 262.953 39.3345 262.9 39.3345C262.366 39.3345 260.552 41.2023 260.285 42.4297L260.071 43.4436C259.911 44.1373 259.271 44.5642 258.791 44.5642C258.577 44.5642 258.417 44.4575 258.364 44.1907V43.8705L258.47 43.3368C257.51 44.0839 256.443 44.5642 255.962 44.5642C255.269 44.5642 254.895 44.1907 254.788 43.657C254.361 44.244 253.774 44.5642 253.134 44.5642C252.333 44.5642 251.586 44.0306 251.213 43.2301C250.679 43.8171 250.039 44.4041 249.292 44.8844C248.171 45.5782 246.944 46.1652 245.503 46.1652C244.169 46.1652 242.995 45.4714 242.408 44.8844C241.447 44.0306 240.967 42.6965 240.807 41.5225C240.326 37.7869 242.621 32.8241 246.197 30.6895C246.997 30.2092 247.904 29.9424 248.758 29.9424C250.466 29.9424 251.746 31.1698 251.907 32.6106C252.067 33.9447 251.533 35.0654 250.092 35.7591C249.345 36.1327 248.972 36.1327 248.865 35.9192C248.811 35.8125 248.811 35.599 248.972 35.4923C250.359 34.3716 250.359 33.4111 250.199 32.077C250.092 31.2231 249.559 30.6895 248.918 30.6895C246.143 30.6895 242.301 36.7197 242.835 41.0955C243.048 42.8032 244.115 44.7777 246.25 44.7777C246.944 44.7777 247.744 44.5642 248.384 44.244C249.559 43.657 250.252 43.1768 250.893 42.3763C250.733 40.3484 252.494 37.7869 255.055 37.7869C256.176 37.7869 257.083 38.2139 257.19 39.1211C257.35 40.2417 256.389 40.4552 256.016 40.4552C255.695 40.4552 255.215 40.3484 255.162 40.0816C255.108 39.7614 255.856 39.9215 255.749 39.2278C255.695 38.8009 255.215 38.6408 254.788 38.6408C253.187 38.6408 252.28 40.8821 252.44 42.2696C252.494 42.9099 252.867 43.5503 253.401 43.5503C253.881 43.5503 254.575 42.8566 254.788 41.896C254.948 41.2023 255.589 40.7754 256.069 40.7754C256.336 40.7754 256.496 40.8821 256.496 41.1489V41.4691C256.443 41.7359 256.229 42.7498 256.229 42.9099C256.229 43.07 256.336 43.3368 256.656 43.3368C256.923 43.3368 257.777 42.8566 258.63 42.1095C258.897 40.7754 259.217 39.1211 259.217 39.0143C259.324 38.4807 259.538 37.8937 260.605 37.8937C260.818 37.8937 260.978 38.0004 261.032 38.2672V38.5874L260.765 40.0283C261.726 38.7475 263.22 37.7869 264.127 37.7869C264.501 37.7869 264.821 38.0004 264.874 38.374C264.927 38.5874 264.821 38.961 264.714 39.3879C264.394 40.2417 264.02 41.5758 263.807 42.6965C263.753 42.9633 263.86 43.2835 264.287 43.2835C264.661 43.2835 265.781 42.8566 266.688 41.6292V41.0955C266.688 40.135 266.742 39.3879 266.955 38.8009C267.115 38.2139 267.863 37.6802 268.343 37.6802C268.61 37.6802 268.77 37.8403 268.77 38.1071C268.77 38.2139 268.77 38.3206 268.716 38.4273C268.396 39.4412 268.183 40.3484 268.183 41.2556C268.183 41.7893 268.289 42.5897 268.396 43.0167C268.396 43.1234 268.45 43.1768 268.556 43.1768C268.716 43.1768 269.784 42.1628 270.531 40.8821C269.837 40.4552 269.463 39.6547 269.463 38.6941C269.463 37.0932 270.424 36.2394 271.385 36.2394C272.132 36.2394 272.772 36.773 272.772 37.8403C272.772 38.5341 272.505 39.2812 272.132 40.0283H272.345C272.932 40.0283 273.359 39.7614 273.626 39.4412C273.733 39.3345 273.839 39.2278 273.946 39.1744C274.693 38.2672 275.814 37.6269 277.095 37.6269C278.215 37.6269 279.122 38.0538 279.229 38.961C279.389 40.0816 278.375 40.3484 278.055 40.3484C277.735 40.3484 277.201 40.2417 277.201 39.9749C277.148 39.7081 277.895 39.8148 277.842 39.1211C277.788 38.6941 277.308 38.4807 276.881 38.4807C275.387 38.4807 274.373 40.4552 274.533 42.1095C274.586 42.7498 274.907 43.3902 275.494 43.3902C275.974 43.3902 276.668 42.6965 276.934 41.7359C277.095 41.0955 277.735 40.6153 278.215 40.6153C278.429 40.6153 278.642 40.722 278.642 40.9888C278.642 41.1489 278.589 41.4157 278.375 42.483C278.269 42.9099 278.269 43.3368 278.269 43.6037C278.375 44.244 278.642 44.671 278.909 44.9378C279.016 45.0445 279.069 45.1512 279.069 45.2046C279.069 45.3647 278.962 45.5248 278.749 45.5248C278.695 45.5248 278.589 45.5248 278.535 45.4714C277.361 44.9911 276.881 44.1907 276.774 43.4969C276.347 44.0839 275.76 44.3508 275.12 44.3508C274.106 44.3508 273.092 43.4436 272.932 42.2696C272.879 41.7893 272.932 41.2556 273.092 40.7754C272.665 41.0422 272.238 41.2023 271.811 41.2023H271.438C270.424 42.6431 269.357 43.657 268.556 44.1373C268.236 44.2974 267.916 44.4041 267.702 44.4041C267.542 44.4041 267.329 44.3508 267.222 44.1907C266.902 43.9772 266.742 43.4436 266.688 42.8032ZM270.317 38.0004C270.317 38.6408 270.637 39.2812 271.011 39.7081C271.171 39.2812 271.278 38.8542 271.278 38.4273C271.278 37.6269 270.958 37.2533 270.744 37.2533C270.424 37.2533 270.317 37.6802 270.317 38.0004Z" fill="white"/>
</g>
<rect x="314.775" y="-0.436523" width="77.7279" height="77.7279" rx="8.47692" fill="white"/>
<path d="M370.977 22.3334C370.939 22.0698 370.713 21.9192 370.525 21.9192C370.337 21.9192 366.609 21.8439 366.609 21.8439C366.609 21.8439 363.484 18.832 363.183 18.4931C362.882 18.1919 362.28 18.2672 362.054 18.3425C362.054 18.3425 361.451 18.5308 360.472 18.832C360.322 18.3049 360.058 17.6648 359.719 16.9871C358.628 14.8788 356.971 13.7493 355.013 13.7493C354.863 13.7493 354.75 13.7493 354.599 13.787C354.524 13.7117 354.486 13.6364 354.411 13.5987C353.545 12.6951 352.453 12.2433 351.135 12.281C348.613 12.3563 346.09 14.2011 344.02 17.4389C342.589 19.7356 341.497 22.5969 341.158 24.8182C338.259 25.7218 336.226 26.3618 336.151 26.3618C334.683 26.8136 334.645 26.8513 334.457 28.2443C334.381 29.2985 330.541 59.0038 330.541 59.0038L362.769 64.5759L376.737 61.1122C376.699 61.1122 371.014 22.5969 370.977 22.3334ZM358.854 19.3591C358.101 19.585 357.272 19.8485 356.369 20.1497C356.369 18.8696 356.18 17.0624 355.616 15.5565C357.536 15.8577 358.477 18.0413 358.854 19.3591ZM354.674 20.6391C352.98 21.1662 351.135 21.731 349.291 22.2957C349.818 20.3003 350.797 18.3425 352.001 17.0248C352.453 16.5354 353.093 16.0083 353.809 15.7071C354.562 17.1754 354.712 19.2461 354.674 20.6391ZM351.211 13.9752C351.813 13.9752 352.303 14.0882 352.717 14.3893C352.039 14.7282 351.361 15.2553 350.759 15.933C349.14 17.6648 347.898 20.3379 347.408 22.9357C345.865 23.4252 344.359 23.877 343.003 24.2911C343.907 20.1873 347.333 14.0882 351.211 13.9752Z" fill="#95BF47"/>
<path d="M370.523 21.919C370.335 21.919 366.608 21.8437 366.608 21.8437C366.608 21.8437 363.483 18.8318 363.181 18.4929C363.069 18.38 362.918 18.3047 362.767 18.3047V64.5757L376.735 61.112C376.735 61.112 371.05 22.5967 371.013 22.3332C370.937 22.0696 370.711 21.919 370.523 21.919Z" fill="#5E8E3E"/>
<path d="M355.012 29.1099L353.393 35.1715C353.393 35.1715 351.586 34.3432 349.44 34.4938C346.278 34.682 346.278 36.6774 346.278 37.1669C346.466 39.8776 353.582 40.48 353.996 46.8428C354.297 51.8501 351.36 55.2762 347.068 55.5398C341.948 55.8033 339.124 52.7914 339.124 52.7914L340.216 48.1605C340.216 48.1605 343.077 50.3065 345.336 50.1559C346.805 50.0806 347.369 48.8382 347.294 48.0099C347.068 44.4709 341.27 44.6967 340.894 38.8611C340.593 33.9667 343.793 29.0346 350.871 28.5828C353.619 28.3946 355.012 29.1099 355.012 29.1099Z" fill="white"/>
<rect x="-13.2722" y="93.2915" width="77.7279" height="77.7279" rx="8.47692" fill="white"/>
<g clip-path="url(#clip1_3269_13953)" filter="url(#filter0_d_3269_13953)">
<path d="M-0.556885 158.304L3.11066 144.88C0.844266 140.941 -0.34557 136.471 -0.33874 131.923C-0.33874 117.629 11.2625 106.009 25.5113 106.009C28.9067 106.01 32.2689 106.681 35.4057 107.984C38.5426 109.288 41.3926 111.198 43.7932 113.606C46.1938 116.014 48.0978 118.873 49.3965 122.019C50.6953 125.165 51.3633 128.537 51.3625 131.942C51.3563 146.235 39.7588 157.855 25.5113 157.855H25.4964C21.1808 157.855 16.934 156.77 13.144 154.701L-0.556885 158.304ZM13.7823 150.009L14.5669 150.476C17.8778 152.442 21.6549 153.479 25.5026 153.479H25.5113C37.3542 153.479 46.9922 143.815 46.9972 131.939C46.9991 126.225 44.7375 120.744 40.7099 116.702C36.6822 112.659 31.2183 110.387 25.5199 110.384C13.6683 110.384 4.03033 120.046 4.02537 131.922C4.01916 135.977 5.15792 139.951 7.30991 143.384L7.82181 144.199L5.65029 152.154L13.7823 150.009Z" fill="white"/>
<path d="M0.343018 157.403L3.88289 144.439C1.69385 140.634 0.544636 136.317 0.551244 131.923C0.557442 118.127 11.7522 106.908 25.5076 106.908C28.786 106.908 32.0322 107.556 35.0607 108.815C38.0893 110.073 40.841 111.918 43.1584 114.243C45.4759 116.569 47.3138 119.329 48.5671 122.367C49.8203 125.405 50.4645 128.661 50.4627 131.948C50.4627 145.744 39.2618 156.966 25.5076 156.966H25.4964C21.3305 156.966 17.2309 155.92 13.5717 153.923L0.343018 157.403Z" fill="url(#paint1_linear_3269_13953)"/>
<path d="M-0.556885 158.304L3.11066 144.88C0.844266 140.941 -0.34557 136.471 -0.33874 131.923C-0.33874 117.629 11.2625 106.009 25.5113 106.009C28.9067 106.01 32.2689 106.681 35.4057 107.984C38.5426 109.288 41.3926 111.198 43.7932 113.606C46.1938 116.014 48.0978 118.873 49.3965 122.019C50.6953 125.165 51.3633 128.537 51.3625 131.942C51.3563 146.235 39.7588 157.855 25.5113 157.855H25.4964C21.1808 157.855 16.934 156.77 13.144 154.701L-0.556885 158.304ZM13.7823 150.009L14.5669 150.476C17.8778 152.442 21.6549 153.479 25.5026 153.479H25.5113C37.3542 153.479 46.9922 143.815 46.9972 131.939C46.9991 126.225 44.7375 120.744 40.7099 116.702C36.6822 112.659 31.2183 110.387 25.5199 110.384C13.6683 110.384 4.03033 120.046 4.02537 131.922C4.01916 135.977 5.15792 139.951 7.30991 143.384L7.82181 144.199L5.65029 152.154L13.7823 150.009Z" fill="url(#paint2_linear_3269_13953)"/>
<path fill-rule="evenodd" clip-rule="evenodd" d="M19.0517 121.087C18.5683 120.008 18.0601 119.987 17.599 119.969C17.2272 119.952 16.7909 119.954 16.3596 119.954C16.0324 119.962 15.7106 120.039 15.4143 120.178C15.118 120.318 14.8537 120.517 14.638 120.764C14.0455 121.413 12.376 122.979 12.376 126.166C12.376 129.353 14.6913 132.433 15.0135 132.865C15.3358 133.298 19.4817 140.045 26.0446 142.642C31.4982 144.8 32.6137 144.371 33.7962 144.258C34.9786 144.145 37.6174 142.69 38.1553 141.178C38.6933 139.665 38.6945 138.37 38.5272 138.099C38.3598 137.828 37.9359 137.666 37.2877 137.343C36.6395 137.02 33.4665 135.452 32.8753 135.237C32.284 135.022 31.8515 134.912 31.4214 135.561C30.9913 136.21 29.7531 137.666 29.3763 138.099C28.9995 138.532 28.6227 138.586 27.977 138.262C27.3312 137.937 25.2502 137.254 22.7824 135.048C20.8625 133.33 19.566 131.211 19.188 130.562C18.81 129.913 19.1483 129.568 19.4718 129.241C19.7619 128.95 20.1176 128.484 20.4411 128.106C20.7646 127.728 20.8712 127.457 21.0856 127.026C21.3 126.595 21.1934 126.215 21.0323 125.891C20.8712 125.567 19.6255 122.367 19.0517 121.087Z" fill="white"/>
</g>
<rect x="80.4558" y="93.2915" width="77.7279" height="77.7279" rx="8.47692" fill="white"/>
<path fill-rule="evenodd" clip-rule="evenodd" d="M119.32 106.007C112.217 106.007 111.328 106.036 108.539 106.164C105.756 106.292 103.854 106.733 102.191 107.38C100.446 108.036 98.8658 109.065 97.5597 110.395C96.2299 111.702 95.2008 113.282 94.5439 115.027C93.8975 116.69 93.4544 118.592 93.328 121.376C93.2016 124.164 93.1711 125.052 93.1711 132.155C93.1711 139.259 93.2002 140.147 93.328 142.936C93.4559 145.719 93.8975 147.621 94.5439 149.284C95.2005 151.029 96.2297 152.609 97.5597 153.915C99.0124 155.368 100.472 156.263 102.191 156.931C103.854 157.578 105.756 158.021 108.539 158.147C111.328 158.273 112.217 158.304 119.32 158.304C126.422 158.304 127.311 158.275 130.1 158.147C132.884 158.019 134.785 157.578 136.448 156.931C138.193 156.275 139.774 155.245 141.08 153.915C142.532 152.463 143.427 151.003 144.095 149.284C144.742 147.621 145.185 145.719 145.311 142.936C145.438 140.147 145.468 139.258 145.468 132.155C145.468 125.053 145.439 124.164 145.311 121.375C145.184 118.592 144.742 116.69 144.095 115.027C143.439 113.282 142.41 111.702 141.08 110.395C139.773 109.066 138.193 108.036 136.448 107.38C134.785 106.733 132.884 106.29 130.099 106.164C127.311 106.037 126.423 106.007 119.32 106.007ZM119.32 110.718C126.301 110.718 127.129 110.746 129.887 110.87C132.436 110.987 133.821 111.412 134.742 111.771C135.962 112.245 136.833 112.813 137.749 113.726C138.664 114.642 139.23 115.513 139.704 116.734C140.063 117.655 140.488 119.039 140.605 121.588C140.73 124.346 140.757 125.174 140.757 132.155C140.757 139.137 140.73 139.965 140.605 142.722C140.488 145.272 140.063 146.656 139.704 147.577C139.285 148.713 138.617 149.741 137.749 150.584C136.833 151.5 135.962 152.066 134.742 152.54C133.821 152.898 132.436 153.324 129.887 153.44C127.129 153.565 126.303 153.593 119.32 153.593C112.337 153.593 111.51 153.565 108.753 153.44C106.203 153.324 104.819 152.898 103.898 152.54C102.762 152.121 101.734 151.453 100.891 150.584C100.023 149.741 99.3544 148.713 98.9354 147.577C98.5766 146.656 98.151 145.272 98.0348 142.722C97.9098 139.965 97.8822 139.137 97.8822 132.155C97.8822 125.174 97.9098 124.346 98.0348 121.588C98.151 119.039 98.5766 117.655 98.9354 116.734C99.409 115.513 99.977 114.642 100.891 113.726C101.806 112.811 102.678 112.245 103.898 111.771C104.819 111.412 106.203 110.987 108.753 110.87C111.51 110.746 112.338 110.718 119.32 110.718Z" fill="#E4405F"/>
<path fill-rule="evenodd" clip-rule="evenodd" d="M119.32 140.88C118.174 140.88 117.039 140.655 115.981 140.216C114.922 139.778 113.96 139.135 113.15 138.325C112.34 137.515 111.697 136.553 111.259 135.494C110.821 134.436 110.595 133.301 110.595 132.155C110.595 131.01 110.821 129.875 111.259 128.817C111.697 127.758 112.34 126.796 113.15 125.986C113.96 125.176 114.922 124.533 115.981 124.095C117.039 123.656 118.174 123.431 119.32 123.431C121.634 123.431 123.853 124.35 125.489 125.986C127.125 127.622 128.045 129.841 128.045 132.155C128.045 134.469 127.125 136.689 125.489 138.325C123.853 139.961 121.634 140.88 119.32 140.88ZM119.32 118.715C115.755 118.715 112.337 120.131 109.816 122.652C107.295 125.172 105.879 128.591 105.879 132.155C105.879 135.72 107.295 139.139 109.816 141.659C112.337 144.18 115.755 145.596 119.32 145.596C122.884 145.596 126.303 144.18 128.824 141.659C131.344 139.139 132.76 135.72 132.76 132.155C132.76 128.591 131.344 125.172 128.824 122.652C126.303 120.131 122.884 118.715 119.32 118.715ZM136.671 118.471C136.671 119.314 136.336 120.122 135.74 120.718C135.144 121.313 134.336 121.648 133.494 121.648C132.651 121.648 131.843 121.313 131.247 120.718C130.651 120.122 130.317 119.314 130.317 118.471C130.317 117.628 130.651 116.82 131.247 116.224C131.843 115.629 132.651 115.294 133.494 115.294C134.336 115.294 135.144 115.629 135.74 116.224C136.336 116.82 136.671 117.628 136.671 118.471Z" fill="#E4405F"/>
<rect x="174.184" y="93.2915" width="77.7279" height="77.7279" rx="8.47692" fill="white"/>
<path d="M197.925 139.062C197.925 142.099 195.47 144.554 192.433 144.554C189.396 144.554 186.941 142.099 186.941 139.062C186.941 136.025 189.396 133.57 192.433 133.57H197.925V139.062Z" fill="#E01E5A"/>
<path d="M200.67 139.062C200.67 136.025 203.124 133.57 206.162 133.57C209.199 133.57 211.654 136.025 211.654 139.062V152.792C211.654 155.829 209.199 158.284 206.162 158.284C203.124 158.284 200.67 155.829 200.67 152.792V139.062Z" fill="#E01E5A"/>
<path d="M206.162 117.011C203.124 117.011 200.67 114.556 200.67 111.519C200.67 108.482 203.124 106.027 206.162 106.027C209.199 106.027 211.654 108.482 211.654 111.519V117.011H206.162Z" fill="#36C5F0"/>
<path d="M206.162 119.799C209.199 119.799 211.654 122.254 211.654 125.291C211.654 128.328 209.199 130.783 206.162 130.783H192.391C189.354 130.783 186.899 128.328 186.899 125.291C186.899 122.254 189.354 119.799 192.391 119.799H206.162Z" fill="#36C5F0"/>
<path d="M228.172 125.291C228.172 122.254 230.627 119.799 233.664 119.799C236.702 119.799 239.156 122.254 239.156 125.291C239.156 128.328 236.702 130.783 233.664 130.783H228.172V125.291Z" fill="#2EB67D"/>
<path d="M225.425 125.291C225.425 128.328 222.97 130.783 219.933 130.783C216.895 130.783 214.441 128.328 214.441 125.291V111.519C214.441 108.482 216.895 106.027 219.933 106.027C222.97 106.027 225.425 108.482 225.425 111.519V125.291Z" fill="#2EB67D"/>
<path d="M219.933 147.3C222.97 147.3 225.425 149.755 225.425 152.792C225.425 155.829 222.97 158.284 219.933 158.284C216.895 158.284 214.441 155.829 214.441 152.792V147.3H219.933Z" fill="#ECB22E"/>
<path d="M219.933 144.554C216.895 144.554 214.441 142.099 214.441 139.062C214.441 136.025 216.895 133.57 219.933 133.57H233.704C236.741 133.57 239.196 136.025 239.196 139.062C239.196 142.099 236.741 144.554 233.704 144.554H219.933Z" fill="#ECB22E"/>
<rect x="267.911" y="93.2915" width="77.7279" height="77.7279" rx="8.47692" fill="white"/>
<path fill-rule="evenodd" clip-rule="evenodd" d="M326.387 155.035H287.164C286.297 155.035 285.466 154.691 284.853 154.078C284.24 153.465 283.895 152.634 283.895 151.767V125.618H329.655V151.767C329.655 152.634 329.311 153.465 328.698 154.078C328.085 154.691 327.254 155.035 326.387 155.035Z" fill="#4A8AF4"/>
<path fill-rule="evenodd" clip-rule="evenodd" d="M326.387 155.035H306.775L283.895 132.155V125.618H329.655V151.767C329.655 152.634 329.311 153.465 328.698 154.078C328.085 154.691 327.254 155.035 326.387 155.035Z" fill="#4A7DE2"/>
<path fill-rule="evenodd" clip-rule="evenodd" d="M295.858 109.275H287.393C286.697 109.289 286.023 109.525 285.471 109.948C284.918 110.372 284.515 110.96 284.32 111.629L280.627 125.814H293.701L295.858 109.275Z" fill="#80ADF7"/>
<path fill-rule="evenodd" clip-rule="evenodd" d="M306.775 109.275H295.858L293.701 125.847H306.775V109.275Z" fill="#4A5BB9"/>
<path fill-rule="evenodd" clip-rule="evenodd" d="M293.701 125.814V126.109C293.701 127.842 293.012 129.505 291.786 130.731C290.56 131.957 288.898 132.646 287.164 132.646C285.43 132.646 283.767 131.957 282.541 130.731C281.315 129.505 280.627 127.842 280.627 126.109V125.814H293.701Z" fill="#78A1E4"/>
<path fill-rule="evenodd" clip-rule="evenodd" d="M306.775 125.814V126.109C306.775 127.842 306.086 129.505 304.861 130.731C303.635 131.957 301.972 132.646 300.238 132.646C298.504 132.646 296.842 131.957 295.616 130.731C294.39 129.505 293.701 127.842 293.701 126.109V125.814H306.775Z" fill="#4857AD"/>
<path d="M325.341 144.413C325.392 145.251 325.267 146.09 324.972 146.876C324.678 147.662 324.222 148.377 323.633 148.975C323.044 149.573 322.336 150.041 321.555 150.347C320.773 150.654 319.936 150.792 319.098 150.754C317.903 150.75 316.732 150.419 315.712 149.797C314.692 149.175 313.862 148.285 313.313 147.224C312.867 146.307 312.633 145.302 312.626 144.282C312.627 143.272 312.862 142.277 313.313 141.373C313.86 140.301 314.693 139.401 315.72 138.773C316.747 138.144 317.927 137.811 319.131 137.81C320.742 137.778 322.302 138.376 323.478 139.477L321.615 141.34C320.937 140.721 320.049 140.383 319.131 140.393C318.32 140.397 317.532 140.659 316.879 141.141C316.227 141.623 315.745 142.299 315.503 143.073C315.371 143.462 315.305 143.871 315.306 144.282C315.305 144.704 315.371 145.123 315.503 145.524C315.745 146.298 316.227 146.974 316.879 147.456C317.532 147.938 318.32 148.2 319.131 148.204C319.907 148.229 320.672 148.012 321.321 147.583C321.658 147.36 321.948 147.071 322.172 146.735C322.397 146.398 322.552 146.02 322.628 145.622H319.098V143.105H325.21C325.304 143.535 325.348 143.973 325.341 144.413Z" fill="white"/>
<path fill-rule="evenodd" clip-rule="evenodd" d="M317.692 109.275H326.157C326.853 109.289 327.527 109.525 328.079 109.948C328.632 110.372 329.035 110.96 329.23 111.629L332.923 125.814H319.849L317.692 109.275Z" fill="#4A5BB9"/>
<path fill-rule="evenodd" clip-rule="evenodd" d="M306.775 109.275H317.692L319.849 125.847H306.775V109.275Z" fill="#80ADF7"/>
<path fill-rule="evenodd" clip-rule="evenodd" d="M319.85 125.814V126.109C319.85 127.842 320.538 129.505 321.764 130.731C322.99 131.957 324.653 132.646 326.387 132.646C328.121 132.646 329.783 131.957 331.009 130.731C332.235 129.505 332.924 127.842 332.924 126.109V125.814H319.85Z" fill="#4857AD"/>
<path fill-rule="evenodd" clip-rule="evenodd" d="M306.775 125.814V126.109C306.775 127.842 307.464 129.505 308.69 130.731C309.916 131.957 311.579 132.646 313.312 132.646C315.046 132.646 316.709 131.957 317.935 130.731C319.161 129.505 319.849 127.842 319.849 126.109V125.814H306.775Z" fill="#78A1E4"/>
<rect x="361.639" y="93.2915" width="77.7279" height="77.7279" rx="8.47692" fill="white"/>
<path d="M400.503 158.304C414.944 158.304 426.652 146.597 426.652 132.155C426.652 117.714 414.944 106.007 400.503 106.007C386.062 106.007 374.354 117.714 374.354 132.155C374.354 146.597 386.062 158.304 400.503 158.304Z" fill="black"/>
<path d="M397.032 128.416V126.996C396.557 126.932 396.074 126.891 395.581 126.891C389.644 126.891 384.814 131.721 384.814 137.658C384.814 141.3 386.634 144.524 389.411 146.473C387.619 144.55 386.555 141.972 386.555 139.142C386.555 133.29 391.213 128.551 397.032 128.415V128.416Z" fill="#25F4EE"/>
<path d="M397.286 144.091C399.935 144.091 402.127 141.954 402.226 139.329L402.248 115.918L406.494 115.92L406.487 115.885C406.398 115.403 406.349 114.908 406.349 114.4H400.5L400.49 137.844C400.392 140.47 398.231 142.576 395.582 142.576C394.758 142.576 393.984 142.371 393.301 142.012C394.194 143.25 395.647 144.091 397.287 144.091H397.286Z" fill="#25F4EE"/>
<path d="M414.488 123.911V122.538C412.853 122.538 411.331 122.052 410.055 121.22C411.192 122.525 412.736 123.536 414.488 123.911Z" fill="#25F4EE"/>
<path d="M410.055 121.22C408.811 119.79 408.054 117.925 408.054 115.884H406.46C406.872 118.113 408.222 120.025 410.055 121.22Z" fill="#FE2C55"/>
<path d="M395.581 132.696C392.87 132.696 390.631 134.947 390.631 137.659C390.631 139.547 391.735 141.187 393.3 142.011C392.717 141.203 392.369 140.213 392.369 139.143C392.369 136.431 394.575 134.225 397.287 134.225C397.793 134.225 398.279 134.309 398.738 134.453V128.48C398.263 128.416 397.78 128.375 397.287 128.375C397.202 128.375 397.118 128.379 397.033 128.381H397.01L396.994 132.903C396.535 132.759 396.088 132.696 395.581 132.696V132.696Z" fill="#FE2C55"/>
<path d="M414.487 123.842L414.46 123.836L414.459 128.353C411.425 128.353 408.607 127.355 406.312 125.708L406.314 137.659C406.314 143.596 401.519 148.396 395.581 148.396C393.287 148.396 391.159 147.702 389.411 146.474C391.378 148.586 394.18 149.91 397.287 149.91C403.224 149.91 408.054 145.08 408.054 139.143V127.255C410.348 128.901 413.159 129.872 416.192 129.872V124.023C415.607 124.023 415.037 123.959 414.487 123.842Z" fill="#FE2C55"/>
<path d="M406.348 137.659V125.771C408.642 127.417 411.453 128.388 414.487 128.388V123.842C412.735 123.467 411.191 122.526 410.054 121.221C408.221 120.026 406.898 118.113 406.486 115.885H402.203L402.193 139.329C402.095 141.954 399.934 144.061 397.285 144.061C395.645 144.061 394.193 143.25 393.299 142.012C391.734 141.188 390.663 139.547 390.663 137.66C390.663 134.948 392.869 132.742 395.58 132.742C396.087 132.742 396.572 132.826 397.032 132.969V128.383C391.212 128.519 386.518 133.292 386.518 139.144C386.518 141.974 387.617 144.551 389.409 146.475C391.158 147.703 393.285 148.427 395.579 148.427C401.517 148.427 406.347 143.596 406.347 137.66L406.348 137.659Z" fill="white"/>
<rect x="-60.136" y="187.019" width="77.7279" height="77.7279" rx="8.47692" fill="white"/>
<path fill-rule="evenodd" clip-rule="evenodd" d="M-21.2721 199.628C-35.7176 199.628 -47.4207 211.333 -47.4207 225.778V226.727V226.938V227.886V227.992C-47.4207 228.308 -47.4207 228.519 -47.3167 228.836V229.047C-47.3167 229.363 -47.2106 229.574 -47.2106 229.89V230.1C-47.2106 230.311 -47.1045 230.523 -47.1045 230.839V231.05C-47.0006 231.366 -47.0006 231.577 -46.8945 231.893C-46.8945 231.998 -46.8945 232.104 -46.7884 232.104C-46.7884 232.314 -46.6833 232.526 -46.6833 232.737C-46.6833 232.842 -46.6833 232.948 -46.5783 233.053C-46.4722 233.264 -46.4722 233.58 -46.3661 233.791C-46.3661 233.896 -46.2622 234.002 -46.2622 234.107C-46.1561 234.318 -46.1561 234.424 -46.0499 234.635C-46.0499 234.74 -45.946 234.846 -45.946 234.951C-45.8399 235.162 -45.7338 235.373 -45.7338 235.583C-45.7338 235.689 -45.6299 235.794 -45.6299 236.005C-45.5238 236.11 -45.5238 236.216 -45.4176 236.428C-45.3126 236.638 -45.2076 236.849 -45.1015 237.06C-44.9965 237.165 -44.9965 237.271 -44.8915 237.482C-44.7853 237.587 -44.7853 237.798 -44.6792 237.903C-44.6792 238.008 -44.5753 238.114 -44.5753 238.219C-44.4692 238.431 -44.2581 238.747 -44.153 238.958C-44.153 239.063 -44.0469 239.063 -44.0469 239.169C-43.9419 239.274 -43.8369 239.485 -43.7308 239.59L-43.6258 239.695C-43.4146 240.012 -43.2046 240.329 -43.0985 240.539C-43.0985 240.539 -43.0985 240.645 -42.9924 240.645C-42.6762 241.172 -42.255 241.699 -41.9389 242.12C-39.0914 245.811 -35.2954 248.658 -30.8671 250.345C-31.0782 248.237 -31.2894 245.073 -30.7621 242.859C-30.3398 240.856 -27.7045 229.89 -27.7045 229.89C-27.7045 229.89 -28.4429 228.308 -28.4429 225.988C-28.4429 222.298 -26.3338 219.662 -23.6974 219.662C-21.4832 219.662 -20.4287 221.349 -20.4287 223.353C-20.4287 225.567 -21.7994 228.941 -22.6428 232.104C-23.2751 234.74 -21.3782 236.849 -18.7418 236.849C-14.1024 236.849 -10.5175 231.893 -10.5175 224.829C-10.5175 218.608 -15.0508 214.179 -21.4832 214.179C-28.9691 214.179 -33.2924 219.768 -33.2924 225.567C-33.2924 227.781 -32.4489 230.206 -31.3944 231.577C-31.1843 231.787 -31.1843 232.104 -31.1843 232.314C-31.3944 233.158 -31.8166 234.951 -31.9217 235.267C-32.0278 235.689 -32.3439 235.9 -32.7651 235.583C-36.0338 234.002 -38.0368 229.257 -38.0368 225.461C-38.0368 217.237 -32.0278 209.646 -20.7459 209.646C-11.6771 209.646 -4.61243 216.077 -4.61243 224.724C-4.61243 233.791 -10.3075 240.961 -18.2145 240.961C-20.8498 240.961 -23.3812 239.59 -24.2247 237.903C-24.2247 237.903 -25.4893 242.859 -25.9115 244.125C-26.4388 246.339 -28.0206 249.185 -29.1802 250.978C-26.756 251.715 -24.1196 252.138 -21.3782 252.138C-14.1024 252.138 -7.56498 249.185 -2.82055 244.441C1.92499 239.59 4.87645 233.053 4.87645 225.883C4.87645 211.333 -6.82657 199.628 -21.2721 199.628Z" fill="#E60023"/>
<rect x="33.5918" y="187.019" width="77.7279" height="77.7279" rx="8.47692" fill="white"/>
<mask id="mask3_3269_13953" style="mask-type:alpha" maskUnits="userSpaceOnUse" x="46" y="199" width="53" height="53">
<path fill-rule="evenodd" clip-rule="evenodd" d="M46.3071 199.894H98.6042V251.873H46.3071V199.894Z" fill="white"/>
</mask>
<g mask="url(#mask3_3269_13953)">
<path fill-rule="evenodd" clip-rule="evenodd" d="M72.4558 199.894C58.0139 199.894 46.3071 211.6 46.3071 226.042C46.3071 239.093 55.8692 249.911 68.3703 251.873V233.6H61.7315V226.042H68.3703V220.281C68.3703 213.727 72.2739 210.107 78.2463 210.107C81.1083 210.107 84.1002 210.618 84.1002 210.618V217.053H80.8027C77.555 217.053 76.5414 219.069 76.5414 221.137V226.042H83.7936L82.6344 233.6H76.5414V251.873C89.0424 249.911 98.6046 239.093 98.6046 226.042C98.6046 211.6 86.8978 199.894 72.4558 199.894Z" fill="#1877F2"/>
</g>
<rect x="127.32" y="187.019" width="77.7279" height="77.7279" rx="8.47692" fill="white"/>
<path d="M175.212 199.734V252.031L188.579 241.364V206.993L175.212 199.734Z" fill="#5C4C9F"/>
<path d="M169.008 240.611L158.213 245.318V204.262L169.008 207.473V240.611Z" fill="#5C4C9F"/>
<path d="M143.788 239.395L152.011 237.241L152.017 211.014L143.795 209.711L143.788 239.395Z" fill="#5C4C9F"/>
<rect x="221.048" y="187.019" width="77.7279" height="77.7279" rx="8.47692" fill="white"/>
<path fill-rule="evenodd" clip-rule="evenodd" d="M279.877 211.456C282.11 210.168 283.828 208.021 284.6 205.531C282.539 206.733 280.221 207.678 277.816 208.107C275.841 205.96 273.092 204.672 270.002 204.672C264.076 204.672 259.268 209.481 259.268 215.406C259.268 216.265 259.353 217.037 259.526 217.81C250.594 217.381 242.694 213.088 237.37 206.561C236.426 208.107 235.911 209.996 235.911 211.971C235.911 215.664 237.8 219.012 240.719 220.902C239.002 220.816 237.285 220.387 235.824 219.528V219.7C235.824 224.938 239.517 229.231 244.411 230.262C243.552 230.52 242.522 230.606 241.578 230.606C240.891 230.606 240.204 230.52 239.603 230.434C240.976 234.728 244.927 237.819 249.65 237.905C245.957 240.824 241.32 242.456 236.339 242.456C235.481 242.456 234.622 242.37 233.763 242.284C238.487 245.29 244.154 247.093 250.251 247.093C270.002 247.093 280.736 230.777 280.736 216.522V215.149C282.797 213.775 284.6 211.886 286.06 209.739C284.171 210.597 282.11 211.198 279.877 211.456Z" fill="#1DA1F2"/>
<rect x="314.775" y="187.019" width="77.7279" height="77.7279" rx="8.47692" fill="white"/>
<path d="M353.673 212.09L340.582 220.395L353.673 228.7L340.582 237.005L327.491 228.655L340.582 220.35L327.491 212.09L340.582 203.786L353.673 212.09ZM340.514 239.676L353.605 231.371L366.697 239.676L353.605 247.981L340.514 239.676ZM353.673 228.655L366.764 220.35L353.673 212.09L366.697 203.786L379.788 212.09L366.697 220.395L379.788 228.7L366.697 237.005L353.673 228.655Z" fill="#0061FF"/>
</g>
<defs>
<filter id="filter0_d_3269_13953" x="-4.55688" y="104.007" width="59.9182" height="60.2969" filterUnits="userSpaceOnUse" color-interpolation-filters="sRGB">
<feFlood flood-opacity="0" result="BackgroundImageFix"/>
<feColorMatrix in="SourceAlpha" type="matrix" values="0 0 0 0 0 0 0 0 0 0 0 0 0 0 0 0 0 0 127 0" result="hardAlpha"/>
<feOffset dy="2"/>
<feGaussianBlur stdDeviation="2"/>
<feColorMatrix type="matrix" values="0 0 0 0 0.152941 0 0 0 0 0.2 0 0 0 0 0.2 0 0 0 0.24 0"/>
<feBlend mode="normal" in2="BackgroundImageFix" result="effect1_dropShadow_3269_13953"/>
<feBlend mode="normal" in="SourceGraphic" in2="effect1_dropShadow_3269_13953" result="shape"/>
</filter>
<radialGradient id="paint0_radial_3269_13953" cx="0" cy="0" r="1" gradientUnits="userSpaceOnUse" gradientTransform="translate(-31.9973 16.1437) scale(52.0851 52.0851)">
<stop stop-color="white" stop-opacity="0.1"/>
<stop offset="1" stop-color="white" stop-opacity="0"/>
</radialGradient>
<linearGradient id="paint1_linear_3269_13953" x1="25.4022" y1="157.399" x2="25.4022" y2="106.913" gradientUnits="userSpaceOnUse">
<stop stop-color="#20B038"/>
<stop offset="1" stop-color="#60D66A"/>
</linearGradient>
<linearGradient id="paint2_linear_3269_13953" x1="25.4034" y1="158.304" x2="25.4034" y2="106.007" gradientUnits="userSpaceOnUse">
<stop stop-color="#F9F9F9"/>
<stop offset="1" stop-color="white"/>
</linearGradient>
<clipPath id="clip0_3269_13953">
<rect width="52.2971" height="52.2971" fill="white" transform="translate(233.763 12.2788)"/>
</clipPath>
<clipPath id="clip1_3269_13953">
<rect width="51.9181" height="52.2971" fill="white" transform="translate(-0.556885 106.007)"/>
</clipPath>
</defs>
</svg>
